<svg width="26" height="26" viewBox="0 0 26 26" fill="none" xmlns="http://www.w3.org/2000/svg">
<path d="M16.0658 16.7375C15.6758 16.1417 15.3616 15.5892 15.0691 15.08C13.8016 12.9025 12.7725 11.4292 9.74996 10.9742V5.95832C9.74996 3.86749 8.04913 2.16666 5.95829 2.16666C3.86746 2.16666 2.16663 3.86749 2.16663 5.95832V23.8333H4.33329V21.6667H7.58329V23.8333H9.74996V13.1733C11.6566 13.5417 12.2308 14.5058 13.1841 16.1633C13.4983 16.7158 13.845 17.3008 14.2675 17.94C16.6941 21.58 19.1425 23.8333 23.8333 23.8333V21.6667C20.0741 21.6667 18.2 19.9333 16.0658 16.7375ZM5.95829 4.33332C6.85746 4.33332 7.58329 5.05916 7.58329 5.95832V10.8333H4.33329V5.95832C4.33329 5.05916 5.05913 4.33332 5.95829 4.33332ZM4.33329 19.5V17.3333H7.58329V19.5H4.33329ZM7.58329 15.1667H4.33329V13H7.58329V15.1667Z" fill="#667680"/>
</svg>
