<svg width="24" height="24" viewBox="0 0 24 24" fill="none" xmlns="http://www.w3.org/2000/svg">
<path d="M2 15.75C2 15.75 3.795 15 7 15C12 15 16 18 22 18M2 21H22M14.5 9.5L16.5 17M12.286 3L12 2M12.594 3.228C9.748 4.044 7.899 6.852 8.004 9.875C8.026 10.503 8.037 10.817 8.305 10.955C8.574 11.095 8.852 10.898 9.409 10.505L10.651 9.627C10.834 9.49614 11.0564 9.43223 11.281 9.446L14.198 9.633L16.636 7.91C16.8191 7.7795 17.0416 7.71594 17.266 7.73L18.788 7.827C19.441 7.869 19.768 7.89 19.929 7.639C20.09 7.388 19.959 7.116 19.696 6.572C18.386 3.87 15.456 2.407 12.594 3.228Z" stroke="#667680" stroke-width="2" stroke-linecap="round" stroke-linejoin="round"/>
</svg>
