<svg width="24" height="24" viewBox="0 0 24 24" fill="none" xmlns="http://www.w3.org/2000/svg">
<g clip-path="url(#clip0_1103_8514)">
<path d="M1.28577 18.888V5.87659L3.43548 7.59773C4.52063 8.46516 5.86977 8.9383 7.25834 8.9383H12.0001L14.2149 4.50859C14.4698 4.00073 14.8608 3.57362 15.3441 3.27487C15.8275 2.97613 16.3844 2.81747 16.9526 2.81659H18.1218V6.64287L22.7143 8.17373V9.70459C22.7143 11.3949 21.3429 12.7646 19.6526 12.7646H16.5943V18.888C16.6027 19.1948 16.5495 19.5003 16.4379 19.7862C16.3263 20.0721 16.1585 20.3328 15.9444 20.5528C15.7304 20.7727 15.4744 20.9476 15.1916 21.067C14.9088 21.1864 14.605 21.2479 14.2981 21.2479C13.9911 21.2479 13.6873 21.1864 13.4045 21.067C13.1217 20.9476 12.8658 20.7727 12.6517 20.5528C12.4376 20.3328 12.2698 20.0721 12.1582 19.7862C12.0466 19.5003 11.9934 19.1948 12.0018 18.888V18.1217C12.0018 17.2766 11.3161 16.5926 10.4709 16.5926H7.40748C6.56234 16.5926 5.87834 17.2783 5.87834 18.1217V18.888C5.88672 19.1948 5.83353 19.5003 5.7219 19.7862C5.61027 20.0721 5.44247 20.3328 5.22842 20.5528C5.01436 20.7727 4.75838 20.9476 4.47561 21.067C4.19284 21.1864 3.889 21.2479 3.58206 21.2479C3.27511 21.2479 2.97128 21.1864 2.6885 21.067C2.40573 20.9476 2.14975 20.7727 1.93569 20.5528C1.72164 20.3328 1.55384 20.0721 1.44221 19.7862C1.33058 19.5003 1.27738 19.1948 1.28577 18.888Z" stroke="#667680" stroke-width="1.6" stroke-linecap="round" stroke-linejoin="round"/>
<path d="M12.0206 8.73773C12.3206 9.96687 13.7349 12.5006 16.9835 12.8092" stroke="#667680" stroke-width="1.6" stroke-linecap="round" stroke-linejoin="round"/>
<path d="M9.82729 6.54546C9.72426 6.54546 9.63796 6.51055 9.56838 6.44073C9.49881 6.37091 9.4639 6.28461 9.46365 6.18182V5.76364C9.19093 5.70303 8.95153 5.59697 8.74547 5.44546C8.53941 5.29394 8.37274 5.08182 8.24547 4.80909C8.20305 4.72424 8.20159 4.63491 8.24111 4.54109C8.28062 4.44727 8.35178 4.37903 8.45456 4.33637C8.53941 4.3 8.62729 4.30158 8.7182 4.34109C8.80911 4.38061 8.87881 4.4457 8.92729 4.53637C9.03032 4.71818 9.16062 4.85612 9.3182 4.95018C9.47578 5.04424 9.66971 5.09115 9.90002 5.09091C10.1485 5.09091 10.359 5.03491 10.5317 4.92291C10.7043 4.81091 10.7907 4.63661 10.7909 4.4C10.7909 4.18788 10.7243 4.01976 10.5909 3.89564C10.4576 3.77152 10.1485 3.63055 9.66365 3.47273C9.14244 3.30909 8.78487 3.1137 8.59093 2.88655C8.39699 2.6594 8.30002 2.38206 8.30002 2.05455C8.30002 1.66061 8.42729 1.35455 8.68184 1.13636C8.93638 0.918183 9.19699 0.793941 9.46365 0.763638V0.363638C9.46365 0.260607 9.49856 0.174183 9.56838 0.104365C9.6382 0.0345467 9.7245 -0.000241166 9.82729 1.25826e-06C9.93008 0.000243683 10.0165 0.0351528 10.0866 0.104729C10.1566 0.174304 10.1914 0.260607 10.1909 0.363638V0.763638C10.4212 0.800001 10.6212 0.874304 10.7909 0.986547C10.9606 1.09879 11.1 1.23661 11.2091 1.4C11.2637 1.47879 11.2743 1.56667 11.2411 1.66364C11.2079 1.76061 11.1397 1.8303 11.0364 1.87273C10.9515 1.90909 10.8637 1.91067 10.7727 1.87746C10.6818 1.84424 10.597 1.78509 10.5182 1.7C10.4394 1.61491 10.3469 1.54982 10.2407 1.50473C10.1346 1.45964 10.0028 1.43685 9.84547 1.43636C9.57881 1.43636 9.37578 1.49552 9.23638 1.61382C9.09699 1.73212 9.02729 1.87903 9.02729 2.05455C9.02729 2.25455 9.1182 2.41212 9.30002 2.52727C9.48184 2.64243 9.79699 2.76364 10.2455 2.89091C10.6637 3.01212 10.9804 3.20461 11.1957 3.46837C11.4109 3.73212 11.5184 4.03661 11.5182 4.38182C11.5182 4.81212 11.3909 5.1394 11.1364 5.36364C10.8818 5.58788 10.5667 5.72727 10.1909 5.78182V6.18182C10.1909 6.28485 10.156 6.37127 10.0862 6.44109C10.0164 6.51091 9.93008 6.5457 9.82729 6.54546Z" fill="#667680"/>
</g>
<defs>
<clipPath id="clip0_1103_8514">
<rect width="24" height="24" fill="white"/>
</clipPath>
</defs>
</svg>
