<svg width="22" height="22" viewBox="0 0 22 22" fill="none" xmlns="http://www.w3.org/2000/svg">
<g clip-path="url(#clip0_1103_8584)">
<path d="M11.5568 10.9015C11.4092 10.7538 11.2089 10.6708 11 10.6708C10.7911 10.6708 10.5908 10.7538 10.4432 10.9015C10.2955 11.0492 10.2125 11.2495 10.2125 11.4583V12.0458H9.625C9.41614 12.0458 9.21584 12.1288 9.06815 12.2765C8.92047 12.4242 8.8375 12.6245 8.8375 12.8333C8.8375 13.0422 8.92047 13.2425 9.06815 13.3902C9.21584 13.5379 9.41614 13.6208 9.625 13.6208H10.2125V14.2083C10.2125 14.4172 10.2955 14.6175 10.4432 14.7652C10.5908 14.9129 10.7911 14.9958 11 14.9958C11.2089 14.9958 11.4092 14.9129 11.5568 14.7652C11.7045 14.6175 11.7875 14.4172 11.7875 14.2083V13.6208H12.375C12.5839 13.6208 12.7842 13.5379 12.9318 13.3902C13.0795 13.2425 13.1625 13.0422 13.1625 12.8333C13.1625 12.6245 13.0795 12.4242 12.9318 12.2765C12.7842 12.1288 12.5839 12.0458 12.375 12.0458H11.7875V11.4583C11.7875 11.2495 11.7045 11.0492 11.5568 10.9015Z" fill="#667680" stroke="#667680" stroke-width="0.2"/>
<path d="M11 8.37917C9.81872 8.37917 8.68579 8.84845 7.85047 9.68377C7.01515 10.5191 6.54587 11.652 6.54587 12.8333C6.54587 14.0147 7.01515 15.1476 7.85047 15.9829C8.68579 16.8182 9.81872 17.2875 11 17.2875C12.1814 17.2875 13.3143 16.8182 14.1496 15.9829C14.9849 15.1476 15.4542 14.0147 15.4542 12.8333C15.4542 11.652 14.9849 10.5191 14.1496 9.68377C13.3143 8.84845 12.1814 8.37917 11 8.37917ZM8.12087 12.8333C8.12087 12.0697 8.42421 11.3374 8.96416 10.7975C9.50411 10.2575 10.2364 9.95417 11 9.95417C11.7636 9.95417 12.496 10.2575 13.0359 10.7975C13.5759 11.3374 13.8792 12.0697 13.8792 12.8333C13.8792 13.5969 13.5759 14.3293 13.0359 14.8692C12.496 15.4092 11.7636 15.7125 11 15.7125C10.2364 15.7125 9.50411 15.4092 8.96416 14.8692C8.42421 14.3293 8.12087 13.5969 8.12087 12.8333Z" fill="#667680" stroke="#667680" stroke-width="0.2"/>
<path d="M5.03843 4.85364L5.03868 4.85361C5.48862 4.79408 5.99026 4.75873 6.54754 4.73874C6.55219 4.22307 6.56741 3.76938 6.62011 3.38286C6.69861 2.79701 6.87435 2.25268 7.314 1.81303C7.75276 1.37427 8.29713 1.19855 8.88386 1.12006L5.03843 4.85364ZM5.03843 4.85364C3.95306 4.99996 3.05855 5.30951 2.35029 6.01682L2.3502 6.01691M5.03843 4.85364L2.3502 6.01691M2.3502 6.01691C1.64289 6.72517 1.33334 7.61968 1.18702 8.70505L1.18701 8.70511M2.3502 6.01691L1.18701 8.70511M1.18701 8.70511C1.04587 9.75673 1.04587 11.0959 1.04587 12.7747V12.782V12.8847V12.892C1.04587 14.5708 1.04587 15.9108 1.18701 16.9616L1.18702 16.9616M1.18701 8.70511L1.18702 16.9616M1.18702 16.9616C1.33334 18.047 1.64289 18.9415 2.3502 19.6497L2.35029 19.6498M1.18702 16.9616L2.35029 19.6498M2.35029 19.6498C3.05855 20.3571 3.95306 20.6667 5.03843 20.813L5.03849 20.813M2.35029 19.6498L5.03849 20.813M5.03849 20.813C6.09012 20.9542 7.42929 20.9542 9.10804 20.9542H9.11537H12.8847H12.892C14.5708 20.9542 15.9109 20.9542 16.9616 20.813L16.9617 20.813M5.03849 20.813L16.9617 20.813M16.9617 20.813C18.047 20.6667 18.9415 20.3571 19.6498 19.6498L19.6499 19.6497M16.9617 20.813L19.6499 19.6497M19.6499 19.6497C20.3572 18.9415 20.6667 18.047 20.8131 16.9616L20.8131 16.9615M19.6499 19.6497L20.8131 16.9615M20.8131 16.9615C20.9542 15.9099 20.9542 14.5707 20.9542 12.892V12.8847V12.782V12.7747C20.9542 11.0959 20.9542 9.75582 20.8131 8.7051L20.8131 8.70505M20.8131 16.9615L20.8131 8.70505M20.8131 8.70505C20.6667 7.61968 20.3572 6.72517 19.6499 6.01691L19.6498 6.01682M20.8131 8.70505L19.6498 6.01682M19.6498 6.01682C18.9415 5.30951 18.047 4.99996 16.9617 4.85364L16.9617 4.85363M19.6498 6.01682L16.9617 4.85363M16.9617 4.85363L16.9605 4.85349M16.9617 4.85363L16.9605 4.85349M16.9605 4.85349C16.4598 4.79215 15.9566 4.75366 15.4525 4.73814M16.9605 4.85349L15.3533 4.83541M13.1162 1.12006L13.1163 1.12007C13.7028 1.19944 14.2463 1.37326 14.6861 1.81303C15.1258 2.25271 15.3015 2.79708 15.38 3.38297M13.1162 1.12006L15.3533 4.83541M13.1162 1.12006C12.5651 1.04583 11.8721 1.04583 11.0544 1.04583H11.0477H10.9524H10.9457M13.1162 1.12006L10.9457 1.04583M15.38 3.38297L15.2809 3.39625L15.38 3.38295C15.38 3.38296 15.38 3.38296 15.38 3.38297ZM15.38 3.38297C15.4318 3.76917 15.4478 4.2225 15.4525 4.73814M15.4525 4.73814C15.4203 4.73715 15.388 4.73625 15.3558 4.73544L15.3533 4.83541M15.4525 4.73814C15.4528 4.7701 15.4531 4.80231 15.4533 4.83475L15.3533 4.83541M2.74832 16.7516L2.74832 16.7516C2.87057 17.6626 3.09815 18.1697 3.46425 18.5358C3.83036 18.9019 4.33744 19.1295 5.2475 19.2517C5.24751 19.2517 5.24751 19.2517 5.24752 19.2517L5.23421 19.3508C6.17746 19.4773 7.41862 19.4792 9.16671 19.4792H12.8334C14.5815 19.4792 15.8235 19.4773 16.765 19.3508C17.6871 19.2271 18.2188 18.9942 18.6065 18.6065L2.74832 16.7516ZM2.74832 16.7516C2.62292 15.8184 2.62087 14.5843 2.62087 12.8333C2.62087 11.0824 2.62292 9.84918 2.74832 8.91412C2.87057 8.00406 3.09815 7.49698 3.46425 7.13087C3.83035 6.76477 4.33742 6.53719 5.24842 6.41494M2.74832 16.7516L5.24842 6.41494M16.7526 6.41494C16.7526 6.41494 16.7526 6.41494 16.7526 6.41494L16.7659 6.31583L16.7526 6.41494ZM16.7526 6.41494C15.8184 6.28954 14.5843 6.2875 12.8334 6.2875M16.7526 6.41494L12.8334 6.2875M10.9457 1.04583C10.1271 1.04583 9.43509 1.04583 8.88395 1.12004L10.9457 1.04583ZM5.24842 6.41494C6.18256 6.28954 7.41579 6.2875 9.16671 6.2875M5.24842 6.41494L9.16671 6.2875M9.16671 6.2875H12.8334M9.16671 6.2875H12.8334M9.09295 2.68135L9.09296 2.68135C9.52749 2.62288 10.1135 2.62083 11 2.62083C11.8864 2.62083 12.4725 2.62287 12.9062 2.68043C13.3186 2.73669 13.4755 2.82955 13.573 2.92704C13.6705 3.02455 13.7634 3.18146 13.8196 3.59297C13.8581 3.88379 13.8719 4.2421 13.8765 4.71399C13.5604 4.71299 13.2298 4.7125 12.8847 4.7125H9.11553C8.77044 4.71194 8.43978 4.71239 8.12355 4.71383C8.12818 4.24115 8.14194 3.8829 8.18048 3.59295C8.23668 3.18183 8.32942 3.02637 8.42736 2.92768C8.52474 2.82955 8.6814 2.7367 9.09295 2.68135Z" fill="#667680" stroke="#667680" stroke-width="0.2"/>
</g>
<defs>
<clipPath id="clip0_1103_8584">
<rect width="22" height="22" fill="white"/>
</clipPath>
</defs>
</svg>
