<svg width="22" height="22" viewBox="0 0 22 22" fill="none" xmlns="http://www.w3.org/2000/svg">
<g clip-path="url(#clip0_1103_8557)">
<path d="M4.125 20.525V20.5249L4.12116 20.525C3.95086 20.5316 3.7874 20.499 3.62956 20.4266C3.46743 20.3523 3.33073 20.2586 3.21817 20.1461C3.10568 20.0336 3.01596 19.9009 2.94913 19.7472C2.88339 19.596 2.85 19.4307 2.85 19.25V6.97497H19.25H19.35V6.87497V5.49997V5.39997H19.25H16.6V4.12558C16.6072 3.55313 16.497 3.00574 16.2694 2.48437C16.0426 1.96508 15.7385 1.51408 15.3568 1.13238C14.9751 0.750672 14.5275 0.449994 14.015 0.230321C13.5008 0.00994237 12.9538 -0.100031 12.375 -0.100031C11.6459 -0.100031 10.9614 0.0812821 10.3232 0.443185C9.68459 0.0812142 8.99314 -0.0999289 8.25062 -0.100031C7.66423 -0.107277 7.11303 0.00279569 6.59818 0.2308C6.08608 0.457585 5.63888 0.761664 5.25741 1.14313C4.8757 1.52484 4.57502 1.97242 4.35535 2.48499C4.13497 2.99921 4.025 3.54619 4.025 4.12497V5.39997H1.375H1.275V5.49997L1.27498 19.25L1.27502 19.2518C1.28239 19.6499 1.3562 20.0205 1.49742 20.3624C1.63874 20.7045 1.84345 21.0059 2.11096 21.266C2.37742 21.5251 2.68114 21.7288 3.02165 21.8768C3.36436 22.0258 3.73251 22.1 4.125 22.1H11H11.1V22V20.625V20.525H11H4.125ZM22 22.1H22.1V22V9.62684C22.1074 9.42544 22.0684 9.2315 21.9835 9.0462C21.9002 8.86457 21.7934 8.70766 21.6625 8.57672C21.5315 8.44572 21.3777 8.34208 21.202 8.26568C21.0237 8.18819 20.831 8.14997 20.625 8.14997H13.7519C13.5505 8.14253 13.3565 8.18155 13.1712 8.26649C12.9896 8.34973 12.8327 8.45653 12.7017 8.58746C12.5708 8.71846 12.4671 8.87227 12.3907 9.04799C12.3132 9.22622 12.275 9.41895 12.275 9.62497V22V22.1H12.375H22ZM19.25 19.35H19.35V19.25V17.875V17.775H19.25H15.125H15.025V17.875V19.25V19.35H15.125H19.25ZM19.25 16.6H19.35V16.5V15.125V15.025H19.25H15.125H15.025V15.125V16.5V16.6H15.125H19.25ZM19.25 12.475H19.35V12.375V11V10.9H19.25H15.125H15.025V11V12.375V12.475H15.125H19.25ZM14.8184 3.10137C14.9559 3.41751 15.025 3.75834 15.025 4.12497V5.39997H12.475V4.64059C12.475 4.34456 12.4642 4.06605 12.4424 3.80514C12.4206 3.54265 12.3804 3.28375 12.3221 3.02847C12.263 2.76983 12.1708 2.51202 12.046 2.25511C11.9383 2.03326 11.7985 1.80995 11.6273 1.58513C11.8634 1.51189 12.1122 1.47506 12.3741 1.47497C12.749 1.48202 13.0944 1.55143 13.411 1.68224C13.7277 1.81305 14.0064 2.00222 14.2476 2.25034C14.4899 2.49951 14.68 2.78302 14.8184 3.10137ZM10.9 4.12497V5.39997H5.6V4.1259C5.60705 3.75094 5.67646 3.40562 5.80727 3.08893C5.93808 2.77222 6.12725 2.49356 6.37537 2.25233C6.62454 2.01009 6.90805 1.81993 7.2264 1.68152C7.54227 1.54418 7.8828 1.47509 8.24908 1.47497C8.62403 1.48202 8.96935 1.55143 9.28604 1.68224C9.60275 1.81305 9.88141 2.00222 10.1226 2.25034C10.3649 2.49951 10.555 2.78302 10.6934 3.10137C10.8309 3.41751 10.9 3.75834 10.9 4.12497ZM13.85 9.72497H20.525V20.525H13.85V9.72497Z" fill="#667680" stroke="#667680" stroke-width="0.2"/>
</g>
<defs>
<clipPath id="clip0_1103_8557">
<rect width="22" height="22" fill="white"/>
</clipPath>
</defs>
</svg>
