<svg width="24" height="24" viewBox="0 0 24 24" fill="none" xmlns="http://www.w3.org/2000/svg">
<path d="M21.6812 18.2504L21.6813 18.2509C21.7593 18.629 21.6856 19.0226 21.476 19.3468C21.2665 19.671 20.9379 19.8998 20.5611 19.9839L20.5599 19.9842L16.1724 20.9262C16.1722 20.9262 16.1721 20.9262 16.1719 20.9263C16.0688 20.949 15.9636 20.9602 15.858 20.9597M21.6812 18.2504L15.8588 20.8097M21.6812 18.2504L18.5697 3.4533C18.5697 3.45326 18.5697 3.45321 18.5697 3.45317C18.5305 3.26446 18.4545 3.08534 18.3459 2.92612C18.2373 2.76686 18.0982 2.63064 17.9368 2.52531C17.7753 2.41997 17.5946 2.3476 17.4051 2.31234C17.2156 2.27708 17.021 2.27964 16.8324 2.31986L16.8322 2.31991L12.4438 3.26303L12.4431 3.26318C12.0649 3.34632 11.7348 3.57523 11.5243 3.90024C11.3138 4.22526 11.2399 4.62017 11.3188 4.99929L11.3188 4.99962L14.4303 19.794C14.4304 19.7941 14.4304 19.7942 14.4304 19.7943C14.4699 19.9836 14.5465 20.1632 14.6558 20.3227C14.7651 20.4822 14.905 20.6185 15.0673 20.7235M21.6812 18.2504L15.1491 20.5978M15.858 20.9597L15.8588 20.8097M15.858 20.9597C15.8582 20.9597 15.8584 20.9597 15.8586 20.9597L15.8588 20.8097M15.858 20.9597C15.5771 20.9593 15.3024 20.8773 15.0673 20.7235M15.8588 20.8097C15.6066 20.8095 15.36 20.7358 15.1491 20.5978M15.0673 20.7235C15.0674 20.7236 15.0675 20.7237 15.0676 20.7237L15.1491 20.5978M15.0673 20.7235C15.0671 20.7235 15.067 20.7234 15.0669 20.7233L15.1491 20.5978M12.7355 4.65974L12.744 4.65791L17.1207 3.71804C17.1217 3.71807 17.1226 3.71813 17.1236 3.71823L17.1313 3.71904L17.139 3.71906C17.1445 3.71908 17.1499 3.72072 17.1545 3.7238L17.1545 3.72383L17.1573 3.72559C17.1616 3.72834 17.1653 3.73193 17.1681 3.73615C17.171 3.74037 17.173 3.74514 17.1739 3.75015L17.1739 3.75016L17.1745 3.75276L17.4952 5.27701L13.0336 6.22879L12.714 4.70912L12.7137 4.70779C12.7112 4.69648 12.7133 4.68464 12.7194 4.67484C12.7235 4.66848 12.729 4.66331 12.7355 4.65974ZM19.9669 17.0251L20.2908 18.5404L20.291 18.5413C20.2923 18.547 20.2924 18.5529 20.2914 18.5586C20.2908 18.5616 20.29 18.5645 20.2888 18.5674C20.2878 18.5699 20.2865 18.5724 20.285 18.5747L20.4112 18.6559L20.285 18.5747C20.2819 18.5796 20.2778 18.5838 20.273 18.5871L20.3583 18.7105L20.273 18.5871C20.2682 18.5904 20.2629 18.5927 20.2572 18.5939L20.1384 18.6192V18.6214L15.8684 19.5409L15.8675 19.5411C15.8658 19.5414 15.8641 19.5417 15.8624 19.5417C15.8601 19.5418 15.8579 19.5417 15.8556 19.5413C15.8517 19.5405 15.8479 19.539 15.8446 19.5368L15.8427 19.5357C15.8384 19.5329 15.8347 19.5293 15.8319 19.5251C15.829 19.5209 15.827 19.5161 15.8261 19.5111L15.8261 19.5111L15.8255 19.5085L15.5047 17.984L19.9669 17.0251ZM9.75 3.0375H5.25C4.86212 3.0375 4.49013 3.19158 4.21586 3.46586C3.94158 3.74013 3.7875 4.11212 3.7875 4.5V19.5C3.7875 19.8879 3.94158 20.2599 4.21586 20.5341C4.49013 20.8084 4.86212 20.9625 5.25 20.9625H9.75C9.94206 20.9625 10.1322 20.9247 10.3097 20.8512C10.4871 20.7777 10.6483 20.67 10.7841 20.5341C10.9199 20.3983 11.0277 20.2371 11.1012 20.0597C11.1747 19.8822 11.2125 19.6921 11.2125 19.5V4.5C11.2125 4.30794 11.1747 4.11776 11.1012 3.94033C11.0277 3.76289 10.92 3.60166 10.7841 3.46586C10.6483 3.33005 10.4871 3.22232 10.3097 3.14883C10.1322 3.07533 9.94206 3.0375 9.75 3.0375ZM5.2125 7.4625H9.7875V16.5375H5.2125V7.4625ZM5.25 4.4625H9.75C9.75995 4.4625 9.76948 4.46645 9.77652 4.47348C9.78355 4.48052 9.7875 4.49005 9.7875 4.5V6.0375H5.2125V4.5C5.2125 4.49005 5.21645 4.48052 5.22348 4.47348C5.23052 4.46645 5.24005 4.4625 5.25 4.4625ZM9.75 19.5375H5.25C5.24005 19.5375 5.23051 19.5335 5.22348 19.5265C5.21645 19.5195 5.2125 19.5099 5.2125 19.5V17.9625H9.7875V19.5C9.7875 19.5099 9.78355 19.5195 9.77652 19.5265C9.76949 19.5335 9.75995 19.5375 9.75 19.5375ZM15.2096 16.5852L13.9484 10.5853L18.4111 9.62643L19.6731 15.629L15.2096 16.5852ZM13.3269 7.62645L17.7904 6.66497L18.1179 8.22845L13.6552 9.18732L13.3269 7.62645Z" fill="#667680" stroke="#667680" stroke-width="0.3"/>
</svg>
