<svg width="24" height="24" viewBox="0 0 24 24" fill="none" xmlns="http://www.w3.org/2000/svg">
<path d="M21.525 8.8515L21.75 8.98143V8.7216V7.2C21.75 6.5237 21.4814 5.8751 21.0031 5.39688C20.5249 4.91866 19.8763 4.65 19.2 4.65H4.80002C4.12372 4.65 3.47512 4.91866 2.9969 5.39688C2.51868 5.8751 2.25002 6.5237 2.25002 7.2V15.6C2.25002 16.2763 2.51868 16.9249 2.9969 17.4031C3.47512 17.8813 4.12372 18.15 4.80002 18.15H14.6112H14.8432L14.748 17.9385C14.6174 17.6481 14.5499 17.3333 14.55 17.0149V17.0148V16.8V16.65H14.4H4.80002C4.52155 16.65 4.25448 16.5394 4.05756 16.3425C3.86065 16.1456 3.75002 15.8785 3.75002 15.6V7.2C3.75002 6.92153 3.86065 6.65445 4.05756 6.45754C4.25448 6.26063 4.52155 6.15 4.80002 6.15H19.2C19.4785 6.15 19.7456 6.26063 19.9425 6.45754C20.1394 6.65445 20.25 6.92153 20.25 7.2V8.4V8.55L20.4 8.55C20.795 8.55002 21.183 8.654 21.525 8.8515ZM16.35 20.298V20.2499L16.322 20.2107L15.536 19.1127L15.4911 19.05H15.414H6.60002C6.40111 19.05 6.21035 19.129 6.06969 19.2697C5.92904 19.4103 5.85002 19.6011 5.85002 19.8C5.85002 19.9989 5.92904 20.1897 6.06969 20.3303C6.21035 20.471 6.40111 20.55 6.60002 20.55H16.2H16.35V20.4V20.298ZM15.45 17.0148V17.0148C15.4501 17.2967 15.5384 17.5714 15.7025 17.8005L15.7025 17.8006L17.25 19.961V21.6C17.25 21.958 17.3923 22.3014 17.6454 22.5546C17.8986 22.8078 18.242 22.95 18.6 22.95H19.8C20.1581 22.95 20.5014 22.8078 20.7546 22.5546C21.0078 22.3014 21.15 21.958 21.15 21.6V19.9616L22.6921 17.841L22.6922 17.841C22.8598 17.6103 22.9501 17.3324 22.95 17.0472V14.4C22.95 14.042 22.8078 13.6986 22.5546 13.4454C22.3371 13.2278 22.0529 13.0922 21.75 13.0584V10.8C21.75 10.442 21.6078 10.0986 21.3546 9.84541C21.1014 9.59224 20.7581 9.45 20.4 9.45H18C17.642 9.45 17.2986 9.59224 17.0454 9.84541C16.7923 10.0986 16.65 10.442 16.65 10.8V13.0584C16.3472 13.0922 16.063 13.2278 15.8454 13.4454C15.5923 13.6986 15.45 14.042 15.45 14.4V17.0148ZM20.25 13.05H18.15V10.95H20.25V13.05Z" fill="#667680" stroke="#667680" stroke-width="0.3"/>
</svg>
