<svg width="22" height="22" viewBox="0 0 22 22" fill="none" xmlns="http://www.w3.org/2000/svg">
<path d="M11 18.3333C12.945 18.3333 14.8102 17.5607 16.1855 16.1855C17.5608 14.8102 18.3334 12.9449 18.3334 11C18.3334 9.05509 17.5608 7.18983 16.1855 5.81456C14.8102 4.43929 12.945 3.66668 11 3.66668C9.05512 3.66668 7.18986 4.43929 5.81459 5.81456C4.43932 7.18983 3.66671 9.05509 3.66671 11C3.66671 12.9449 4.43932 14.8102 5.81459 16.1855C7.18986 17.5607 9.05512 18.3333 11 18.3333ZM11 1.83334C12.2038 1.83334 13.3958 2.07045 14.508 2.53111C15.6201 2.99178 16.6306 3.66699 17.4819 4.5182C18.3331 5.3694 19.0083 6.37993 19.4689 7.49208C19.9296 8.60423 20.1667 9.79623 20.1667 11C20.1667 13.4312 19.2009 15.7627 17.4819 17.4818C15.7628 19.2009 13.4312 20.1667 11 20.1667C5.93087 20.1667 1.83337 16.0417 1.83337 11C1.83337 8.56886 2.79914 6.23728 4.51823 4.5182C6.23731 2.79911 8.56889 1.83334 11 1.83334ZM11.4584 6.41668V11.2292L15.5834 13.6767L14.8959 14.8042L10.0834 11.9167V6.41668H11.4584Z" fill="#667680"/>
</svg>
