<svg width="28" height="28" viewBox="0 0 28 28" fill="none" xmlns="http://www.w3.org/2000/svg">
<mask id="path-1-outside-1_1103_8467" maskUnits="userSpaceOnUse" x="3.19995" y="1.79999" width="21" height="24" fill="black">
<rect fill="white" x="3.19995" y="1.79999" width="21" height="24"/>
<path d="M6.53795 2.80001C5.66435 2.80001 4.89295 3.41321 4.73195 4.29521C4.52475 5.44041 4.19995 7.47881 4.19995 9.10001C4.19995 10.8234 5.09035 12.3382 6.43295 13.2104C6.81235 13.4582 6.99995 13.7774 6.99995 14.0504V14.6244C6.99995 14.6496 6.99855 14.6748 6.99575 14.7C6.95795 15.064 6.78435 16.7006 6.62055 18.3834C6.45955 20.0424 6.29995 21.8134 6.29995 22.4C6.29995 23.1426 6.59495 23.8548 7.12005 24.3799C7.64515 24.905 8.35735 25.2 9.09995 25.2C9.84256 25.2 10.5547 24.905 11.0799 24.3799C11.605 23.8548 11.9 23.1426 11.9 22.4C11.9 21.812 11.7404 20.0424 11.5794 18.3834C11.4597 17.1555 11.3346 15.9282 11.2042 14.7014L11.2 14.6244V14.0504C11.2 13.776 11.3876 13.4568 11.767 13.2104C12.4523 12.7657 13.0156 12.1568 13.4056 11.4389C13.7956 10.721 13.9999 9.91699 14 9.10001C14 7.47881 13.6752 5.44041 13.468 4.29521C13.3901 3.87373 13.1666 3.49303 12.8364 3.2197C12.5063 2.94637 12.0906 2.79781 11.662 2.80001C11.186 2.80001 10.752 2.97781 10.4244 3.27041C10.05 2.96615 9.58234 2.80004 9.09995 2.80001C8.59735 2.80001 8.13675 2.97641 7.77555 3.27041C7.43563 2.96647 6.99394 2.79893 6.53795 2.80001ZM8.39995 4.90001C8.39995 4.71436 8.4737 4.53631 8.60498 4.40504C8.73625 4.27376 8.9143 4.20001 9.09995 4.20001C9.2856 4.20001 9.46365 4.27376 9.59493 4.40504C9.7262 4.53631 9.79995 4.71436 9.79995 4.90001V9.10001C9.79995 9.28566 9.8737 9.46371 10.005 9.59499C10.1363 9.72626 10.3143 9.80001 10.5 9.80001C10.6856 9.80001 10.8637 9.72626 10.9949 9.59499C11.1262 9.46371 11.2 9.28566 11.2 9.10001V4.66201C11.2 4.60134 11.2119 4.54126 11.2351 4.48521C11.2583 4.42916 11.2924 4.37823 11.3353 4.33533C11.3782 4.29243 11.4291 4.2584 11.4852 4.23518C11.5412 4.21196 11.6013 4.20001 11.662 4.20001C11.8818 4.20001 12.054 4.35121 12.0904 4.54581C12.2962 5.68401 12.6 7.61461 12.6 9.10001C12.6 9.68386 12.454 10.2585 12.1753 10.7715C11.8965 11.2845 11.4939 11.7196 11.004 12.0372C10.3894 12.4362 9.79995 13.1376 9.79995 14.0504V14.6244C9.79995 14.6991 9.80368 14.7737 9.81115 14.8484C9.85035 15.2096 10.0226 16.842 10.1864 18.5192C10.3516 20.2202 10.5 21.9002 10.5 22.4C10.5 22.7713 10.3525 23.1274 10.0899 23.39C9.82735 23.6525 9.47125 23.8 9.09995 23.8C8.72865 23.8 8.37255 23.6525 8.11 23.39C7.84745 23.1274 7.69995 22.7713 7.69995 22.4C7.69995 21.9002 7.84835 20.2202 8.01355 18.5192C8.17735 16.842 8.34955 15.2096 8.38875 14.8484C8.39622 14.7737 8.39995 14.6991 8.39995 14.6244V14.0504C8.39995 13.1376 7.81055 12.4362 7.19595 12.0372C6.70605 11.7196 6.30339 11.2845 6.02463 10.7715C5.74588 10.2585 5.59988 9.68386 5.59995 9.10001C5.59995 7.61601 5.90375 5.68401 6.10955 4.54581C6.12873 4.44665 6.18243 4.3575 6.26112 4.29419C6.3398 4.23088 6.43839 4.19751 6.53935 4.20001C6.66164 4.20038 6.77879 4.24922 6.86513 4.33582C6.95147 4.42242 6.99995 4.53972 6.99995 4.66201V9.10001C6.99995 9.28566 7.0737 9.46371 7.20498 9.59499C7.33625 9.72626 7.5143 9.80001 7.69995 9.80001C7.8856 9.80001 8.06365 9.72626 8.19493 9.59499C8.3262 9.46371 8.39995 9.28566 8.39995 9.10001V4.90001ZM15.4 9.10001C15.4 7.42915 16.0637 5.82672 17.2452 4.64524C18.4267 3.46376 20.0291 2.80001 21.7 2.80001C21.8856 2.80001 22.0637 2.87376 22.1949 3.00504C22.3262 3.13631 22.4 3.31436 22.4 3.50001V13.2692L22.428 13.5828C22.5371 14.8407 22.6435 16.0988 22.7472 17.3572C22.9208 19.467 23.1 21.7826 23.1 22.4C23.1 23.1426 22.805 23.8548 22.2799 24.3799C21.7547 24.905 21.0426 25.2 20.3 25.2C19.5573 25.2 18.8452 24.905 18.3201 24.3799C17.795 23.8548 17.5 23.1426 17.5 22.4C17.5 21.784 17.6792 19.467 17.8528 17.3572C17.9396 16.2918 18.0278 15.2614 18.0936 14.4984L18.1356 14H17.5C16.943 14 16.4089 13.7788 16.015 13.3849C15.6212 12.9911 15.4 12.457 15.4 11.9V9.10001ZM19.5972 13.3616L19.5678 13.7046L19.488 14.6188C19.4222 15.3804 19.334 16.408 19.2472 17.472C19.0708 19.6238 18.9 21.8568 18.9 22.4C18.9 22.7713 19.0475 23.1274 19.31 23.39C19.5726 23.6525 19.9286 23.8 20.3 23.8C20.6713 23.8 21.0273 23.6525 21.2899 23.39C21.5525 23.1274 21.7 22.7713 21.7 22.4C21.7 21.8568 21.5292 19.6238 21.3528 17.472C21.2489 16.216 21.142 14.9602 21.0322 13.7046L21.0028 13.363V13.3616L21 13.3V4.24901C19.8335 4.41737 18.7669 5.00047 17.9955 5.89143C17.2241 6.78239 16.7996 7.92151 16.8 9.10001V11.9C16.8 12.0857 16.8737 12.2637 17.005 12.395C17.1363 12.5263 17.3143 12.6 17.5 12.6H18.9C18.9971 12.6 19.0931 12.6202 19.182 12.6594C19.2709 12.6985 19.3506 12.7557 19.4162 12.8273C19.4818 12.899 19.5317 12.9835 19.5629 13.0754C19.594 13.1674 19.6057 13.2649 19.5972 13.3616Z"/>
</mask>
<path d="M6.53795 2.80001C5.66435 2.80001 4.89295 3.41321 4.73195 4.29521C4.52475 5.44041 4.19995 7.47881 4.19995 9.10001C4.19995 10.8234 5.09035 12.3382 6.43295 13.2104C6.81235 13.4582 6.99995 13.7774 6.99995 14.0504V14.6244C6.99995 14.6496 6.99855 14.6748 6.99575 14.7C6.95795 15.064 6.78435 16.7006 6.62055 18.3834C6.45955 20.0424 6.29995 21.8134 6.29995 22.4C6.29995 23.1426 6.59495 23.8548 7.12005 24.3799C7.64515 24.905 8.35735 25.2 9.09995 25.2C9.84256 25.2 10.5547 24.905 11.0799 24.3799C11.605 23.8548 11.9 23.1426 11.9 22.4C11.9 21.812 11.7404 20.0424 11.5794 18.3834C11.4597 17.1555 11.3346 15.9282 11.2042 14.7014L11.2 14.6244V14.0504C11.2 13.776 11.3876 13.4568 11.767 13.2104C12.4523 12.7657 13.0156 12.1568 13.4056 11.4389C13.7956 10.721 13.9999 9.91699 14 9.10001C14 7.47881 13.6752 5.44041 13.468 4.29521C13.3901 3.87373 13.1666 3.49303 12.8364 3.2197C12.5063 2.94637 12.0906 2.79781 11.662 2.80001C11.186 2.80001 10.752 2.97781 10.4244 3.27041C10.05 2.96615 9.58234 2.80004 9.09995 2.80001C8.59735 2.80001 8.13675 2.97641 7.77555 3.27041C7.43563 2.96647 6.99394 2.79893 6.53795 2.80001ZM8.39995 4.90001C8.39995 4.71436 8.4737 4.53631 8.60498 4.40504C8.73625 4.27376 8.9143 4.20001 9.09995 4.20001C9.2856 4.20001 9.46365 4.27376 9.59493 4.40504C9.7262 4.53631 9.79995 4.71436 9.79995 4.90001V9.10001C9.79995 9.28566 9.8737 9.46371 10.005 9.59499C10.1363 9.72626 10.3143 9.80001 10.5 9.80001C10.6856 9.80001 10.8637 9.72626 10.9949 9.59499C11.1262 9.46371 11.2 9.28566 11.2 9.10001V4.66201C11.2 4.60134 11.2119 4.54126 11.2351 4.48521C11.2583 4.42916 11.2924 4.37823 11.3353 4.33533C11.3782 4.29243 11.4291 4.2584 11.4852 4.23518C11.5412 4.21196 11.6013 4.20001 11.662 4.20001C11.8818 4.20001 12.054 4.35121 12.0904 4.54581C12.2962 5.68401 12.6 7.61461 12.6 9.10001C12.6 9.68386 12.454 10.2585 12.1753 10.7715C11.8965 11.2845 11.4939 11.7196 11.004 12.0372C10.3894 12.4362 9.79995 13.1376 9.79995 14.0504V14.6244C9.79995 14.6991 9.80368 14.7737 9.81115 14.8484C9.85035 15.2096 10.0226 16.842 10.1864 18.5192C10.3516 20.2202 10.5 21.9002 10.5 22.4C10.5 22.7713 10.3525 23.1274 10.0899 23.39C9.82735 23.6525 9.47125 23.8 9.09995 23.8C8.72865 23.8 8.37255 23.6525 8.11 23.39C7.84745 23.1274 7.69995 22.7713 7.69995 22.4C7.69995 21.9002 7.84835 20.2202 8.01355 18.5192C8.17735 16.842 8.34955 15.2096 8.38875 14.8484C8.39622 14.7737 8.39995 14.6991 8.39995 14.6244V14.0504C8.39995 13.1376 7.81055 12.4362 7.19595 12.0372C6.70605 11.7196 6.30339 11.2845 6.02463 10.7715C5.74588 10.2585 5.59988 9.68386 5.59995 9.10001C5.59995 7.61601 5.90375 5.68401 6.10955 4.54581C6.12873 4.44665 6.18243 4.3575 6.26112 4.29419C6.3398 4.23088 6.43839 4.19751 6.53935 4.20001C6.66164 4.20038 6.77879 4.24922 6.86513 4.33582C6.95147 4.42242 6.99995 4.53972 6.99995 4.66201V9.10001C6.99995 9.28566 7.0737 9.46371 7.20498 9.59499C7.33625 9.72626 7.5143 9.80001 7.69995 9.80001C7.8856 9.80001 8.06365 9.72626 8.19493 9.59499C8.3262 9.46371 8.39995 9.28566 8.39995 9.10001V4.90001ZM15.4 9.10001C15.4 7.42915 16.0637 5.82672 17.2452 4.64524C18.4267 3.46376 20.0291 2.80001 21.7 2.80001C21.8856 2.80001 22.0637 2.87376 22.1949 3.00504C22.3262 3.13631 22.4 3.31436 22.4 3.50001V13.2692L22.428 13.5828C22.5371 14.8407 22.6435 16.0988 22.7472 17.3572C22.9208 19.467 23.1 21.7826 23.1 22.4C23.1 23.1426 22.805 23.8548 22.2799 24.3799C21.7547 24.905 21.0426 25.2 20.3 25.2C19.5573 25.2 18.8452 24.905 18.3201 24.3799C17.795 23.8548 17.5 23.1426 17.5 22.4C17.5 21.784 17.6792 19.467 17.8528 17.3572C17.9396 16.2918 18.0278 15.2614 18.0936 14.4984L18.1356 14H17.5C16.943 14 16.4089 13.7788 16.015 13.3849C15.6212 12.9911 15.4 12.457 15.4 11.9V9.10001ZM19.5972 13.3616L19.5678 13.7046L19.488 14.6188C19.4222 15.3804 19.334 16.408 19.2472 17.472C19.0708 19.6238 18.9 21.8568 18.9 22.4C18.9 22.7713 19.0475 23.1274 19.31 23.39C19.5726 23.6525 19.9286 23.8 20.3 23.8C20.6713 23.8 21.0273 23.6525 21.2899 23.39C21.5525 23.1274 21.7 22.7713 21.7 22.4C21.7 21.8568 21.5292 19.6238 21.3528 17.472C21.2489 16.216 21.142 14.9602 21.0322 13.7046L21.0028 13.363V13.3616L21 13.3V4.24901C19.8335 4.41737 18.7669 5.00047 17.9955 5.89143C17.2241 6.78239 16.7996 7.92151 16.8 9.10001V11.9C16.8 12.0857 16.8737 12.2637 17.005 12.395C17.1363 12.5263 17.3143 12.6 17.5 12.6H18.9C18.9971 12.6 19.0931 12.6202 19.182 12.6594C19.2709 12.6985 19.3506 12.7557 19.4162 12.8273C19.4818 12.899 19.5317 12.9835 19.5629 13.0754C19.594 13.1674 19.6057 13.2649 19.5972 13.3616Z" fill="#667680"/>
<path d="M6.53795 2.80001C5.66435 2.80001 4.89295 3.41321 4.73195 4.29521C4.52475 5.44041 4.19995 7.47881 4.19995 9.10001C4.19995 10.8234 5.09035 12.3382 6.43295 13.2104C6.81235 13.4582 6.99995 13.7774 6.99995 14.0504V14.6244C6.99995 14.6496 6.99855 14.6748 6.99575 14.7C6.95795 15.064 6.78435 16.7006 6.62055 18.3834C6.45955 20.0424 6.29995 21.8134 6.29995 22.4C6.29995 23.1426 6.59495 23.8548 7.12005 24.3799C7.64515 24.905 8.35735 25.2 9.09995 25.2C9.84256 25.2 10.5547 24.905 11.0799 24.3799C11.605 23.8548 11.9 23.1426 11.9 22.4C11.9 21.812 11.7404 20.0424 11.5794 18.3834C11.4597 17.1555 11.3346 15.9282 11.2042 14.7014L11.2 14.6244V14.0504C11.2 13.776 11.3876 13.4568 11.767 13.2104C12.4523 12.7657 13.0156 12.1568 13.4056 11.4389C13.7956 10.721 13.9999 9.91699 14 9.10001C14 7.47881 13.6752 5.44041 13.468 4.29521C13.3901 3.87373 13.1666 3.49303 12.8364 3.2197C12.5063 2.94637 12.0906 2.79781 11.662 2.80001C11.186 2.80001 10.752 2.97781 10.4244 3.27041C10.05 2.96615 9.58234 2.80004 9.09995 2.80001C8.59735 2.80001 8.13675 2.97641 7.77555 3.27041C7.43563 2.96647 6.99394 2.79893 6.53795 2.80001ZM8.39995 4.90001C8.39995 4.71436 8.4737 4.53631 8.60498 4.40504C8.73625 4.27376 8.9143 4.20001 9.09995 4.20001C9.2856 4.20001 9.46365 4.27376 9.59493 4.40504C9.7262 4.53631 9.79995 4.71436 9.79995 4.90001V9.10001C9.79995 9.28566 9.8737 9.46371 10.005 9.59499C10.1363 9.72626 10.3143 9.80001 10.5 9.80001C10.6856 9.80001 10.8637 9.72626 10.9949 9.59499C11.1262 9.46371 11.2 9.28566 11.2 9.10001V4.66201C11.2 4.60134 11.2119 4.54126 11.2351 4.48521C11.2583 4.42916 11.2924 4.37823 11.3353 4.33533C11.3782 4.29243 11.4291 4.2584 11.4852 4.23518C11.5412 4.21196 11.6013 4.20001 11.662 4.20001C11.8818 4.20001 12.054 4.35121 12.0904 4.54581C12.2962 5.68401 12.6 7.61461 12.6 9.10001C12.6 9.68386 12.454 10.2585 12.1753 10.7715C11.8965 11.2845 11.4939 11.7196 11.004 12.0372C10.3894 12.4362 9.79995 13.1376 9.79995 14.0504V14.6244C9.79995 14.6991 9.80368 14.7737 9.81115 14.8484C9.85035 15.2096 10.0226 16.842 10.1864 18.5192C10.3516 20.2202 10.5 21.9002 10.5 22.4C10.5 22.7713 10.3525 23.1274 10.0899 23.39C9.82735 23.6525 9.47125 23.8 9.09995 23.8C8.72865 23.8 8.37255 23.6525 8.11 23.39C7.84745 23.1274 7.69995 22.7713 7.69995 22.4C7.69995 21.9002 7.84835 20.2202 8.01355 18.5192C8.17735 16.842 8.34955 15.2096 8.38875 14.8484C8.39622 14.7737 8.39995 14.6991 8.39995 14.6244V14.0504C8.39995 13.1376 7.81055 12.4362 7.19595 12.0372C6.70605 11.7196 6.30339 11.2845 6.02463 10.7715C5.74588 10.2585 5.59988 9.68386 5.59995 9.10001C5.59995 7.61601 5.90375 5.68401 6.10955 4.54581C6.12873 4.44665 6.18243 4.3575 6.26112 4.29419C6.3398 4.23088 6.43839 4.19751 6.53935 4.20001C6.66164 4.20038 6.77879 4.24922 6.86513 4.33582C6.95147 4.42242 6.99995 4.53972 6.99995 4.66201V9.10001C6.99995 9.28566 7.0737 9.46371 7.20498 9.59499C7.33625 9.72626 7.5143 9.80001 7.69995 9.80001C7.8856 9.80001 8.06365 9.72626 8.19493 9.59499C8.3262 9.46371 8.39995 9.28566 8.39995 9.10001V4.90001ZM15.4 9.10001C15.4 7.42915 16.0637 5.82672 17.2452 4.64524C18.4267 3.46376 20.0291 2.80001 21.7 2.80001C21.8856 2.80001 22.0637 2.87376 22.1949 3.00504C22.3262 3.13631 22.4 3.31436 22.4 3.50001V13.2692L22.428 13.5828C22.5371 14.8407 22.6435 16.0988 22.7472 17.3572C22.9208 19.467 23.1 21.7826 23.1 22.4C23.1 23.1426 22.805 23.8548 22.2799 24.3799C21.7547 24.905 21.0426 25.2 20.3 25.2C19.5573 25.2 18.8452 24.905 18.3201 24.3799C17.795 23.8548 17.5 23.1426 17.5 22.4C17.5 21.784 17.6792 19.467 17.8528 17.3572C17.9396 16.2918 18.0278 15.2614 18.0936 14.4984L18.1356 14H17.5C16.943 14 16.4089 13.7788 16.015 13.3849C15.6212 12.9911 15.4 12.457 15.4 11.9V9.10001ZM19.5972 13.3616L19.5678 13.7046L19.488 14.6188C19.4222 15.3804 19.334 16.408 19.2472 17.472C19.0708 19.6238 18.9 21.8568 18.9 22.4C18.9 22.7713 19.0475 23.1274 19.31 23.39C19.5726 23.6525 19.9286 23.8 20.3 23.8C20.6713 23.8 21.0273 23.6525 21.2899 23.39C21.5525 23.1274 21.7 22.7713 21.7 22.4C21.7 21.8568 21.5292 19.6238 21.3528 17.472C21.2489 16.216 21.142 14.9602 21.0322 13.7046L21.0028 13.363V13.3616L21 13.3V4.24901C19.8335 4.41737 18.7669 5.00047 17.9955 5.89143C17.2241 6.78239 16.7996 7.92151 16.8 9.10001V11.9C16.8 12.0857 16.8737 12.2637 17.005 12.395C17.1363 12.5263 17.3143 12.6 17.5 12.6H18.9C18.9971 12.6 19.0931 12.6202 19.182 12.6594C19.2709 12.6985 19.3506 12.7557 19.4162 12.8273C19.4818 12.899 19.5317 12.9835 19.5629 13.0754C19.594 13.1674 19.6057 13.2649 19.5972 13.3616Z" stroke="#667680" stroke-width="0.6" mask="url(#path-1-outside-1_1103_8467)"/>
</svg>
