<svg width="24" height="24" viewBox="0 0 24 24" fill="none" xmlns="http://www.w3.org/2000/svg">
<path d="M1.28577 18.888V5.87659L3.43548 7.59773C4.52063 8.46516 5.86977 8.9383 7.25834 8.9383H12.0001L14.2149 4.50859C14.4698 4.00073 14.8608 3.57362 15.3441 3.27487C15.8275 2.97613 16.3844 2.81747 16.9526 2.81659H18.1218V6.64287L22.7143 8.17373V9.70459C22.7143 11.3949 21.3429 12.7646 19.6526 12.7646H16.5943V18.888C16.6027 19.1948 16.5495 19.5003 16.4379 19.7862C16.3263 20.0721 16.1585 20.3328 15.9444 20.5528C15.7304 20.7727 15.4744 20.9476 15.1916 21.067C14.9088 21.1864 14.605 21.2479 14.2981 21.2479C13.9911 21.2479 13.6873 21.1864 13.4045 21.067C13.1217 20.9476 12.8658 20.7727 12.6517 20.5528C12.4376 20.3328 12.2698 20.0721 12.1582 19.7862C12.0466 19.5003 11.9934 19.1948 12.0018 18.888V18.1217C12.0018 17.2766 11.3161 16.5926 10.4709 16.5926H7.40748C6.56234 16.5926 5.87834 17.2783 5.87834 18.1217V18.888C5.88672 19.1948 5.83353 19.5003 5.7219 19.7862C5.61027 20.0721 5.44247 20.3328 5.22842 20.5528C5.01436 20.7727 4.75838 20.9476 4.47561 21.067C4.19284 21.1864 3.889 21.2479 3.58206 21.2479C3.27511 21.2479 2.97128 21.1864 2.6885 21.067C2.40573 20.9476 2.14975 20.7727 1.93569 20.5528C1.72164 20.3328 1.55384 20.0721 1.44221 19.7862C1.33058 19.5003 1.27738 19.1948 1.28577 18.888Z" stroke="#667680" stroke-width="1.6" stroke-linecap="round" stroke-linejoin="round"/>
<path d="M12.0206 8.73773C12.3206 9.96687 13.7349 12.5006 16.9835 12.8092" stroke="#667680" stroke-width="1.6" stroke-linecap="round" stroke-linejoin="round"/>
</svg>
