<svg width="24" height="24" viewBox="0 0 24 24" fill="none" xmlns="http://www.w3.org/2000/svg">
<g clip-path="url(#clip0_1103_8591)">
<path d="M16 4L12.379 7.621C12.1004 7.89971 11.7696 8.1208 11.4055 8.27162C11.0414 8.42244 10.6511 8.50005 10.257 8.5H6.5L4.379 10.621C4.10029 10.8996 3.8792 11.2304 3.72838 11.5945C3.57756 11.9586 3.49995 12.3489 3.5 12.743V16M6.5 11V15.556C6.50033 15.9405 6.61461 16.3163 6.82841 16.6359C7.04222 16.9555 7.34595 17.2045 7.70123 17.3515C8.05651 17.4986 8.4474 17.537 8.82452 17.462C9.20163 17.3869 9.54805 17.2018 9.82 16.93L13.25 13.5H13.5L13.796 14.092C14.5716 15.6433 15.8896 16.856 17.5 17.5M12 17.998L11.944 17.888L11.75 17.5L12 17.998ZM12 17.998C13.1708 20.2735 15.1239 22.0498 17.5 23M19.5 24V8L17 5.5M12 0.5L14.5 3M10.5 8.5V13.5M7.695 6.5C7.695 6.5 5.885 5.943 5.56 4.724C5.43961 4.27253 5.50262 3.79177 5.73528 3.38657C5.96795 2.98137 6.3514 2.68461 6.802 2.561C7.025 2.50133 7.2576 2.48637 7.4864 2.51698C7.71521 2.54759 7.93569 2.62316 8.13516 2.73935C8.33464 2.85554 8.50915 3.01004 8.64865 3.19396C8.78815 3.37789 8.88989 3.58759 8.948 3.811C9.272 5.03 7.986 6.421 7.986 6.421L7.695 6.5Z" stroke="#667680" stroke-width="2"/>
</g>
<defs>
<clipPath id="clip0_1103_8591">
<rect width="24" height="24" fill="white"/>
</clipPath>
</defs>
</svg>
