<svg fill="none" height="24" viewBox="0 0 28 24" width="28" xmlns="http://www.w3.org/2000/svg"><g fill="currentColor"><path d="m27.4746 5.16481c-.2391-.66414-.9775-1.00876-1.6368-.7605l-4.3788 1.61364-6.3269-4.93926-1.592.58129 4.0511 5.77962-4.0984 1.5111-1.7836-1.15868-1.1956.44254 2.5347 3.61954 13.6643-5.03444c.6669-.25753 1.0011-.99071.762-1.65485z"/><path d="m18.5588 17.353c-1.1191 1.1192-2.385 1.8838-3.7975 2.294-1.3966.3941-2.8276.3861-4.2929-.0241-1.4494-.4261-2.83699-1.3021-4.16279-2.6279-1.32579-1.3258-2.16979-2.7453-2.53197-4.2586-.36218-1.5134-.32223-2.99228.11985-4.43678.44209-1.44451 1.20673-2.71036 2.29393-3.79754.73545-.73545 1.51223-1.2697 2.33032-1.60275.81792-.3652 1.62876-.56163 2.43246-.58929l.5522 3.86172c-.3857.02999-.771.1243-1.156.28292-.36899.14263-.72137.38182-1.05712.71757-.55958.55958-.90979 1.18465-1.05062 1.8752-.14083.69054-.07247 1.41445.20509 2.17165s.76396 1.4834 1.4592 2.1786c.69525.6952 1.42145 1.1816 2.17865 1.4592s1.4731.3539 2.1477.2291c.6905-.1409 1.2916-.4671 1.8032-.9787.3997-.3997.7027-.8482.9089-1.3454.2062-.4973.3481-1.011.4255-1.5411l3.5737.7917c-.043.9484-.2627 1.8957-.6594 2.8421-.4128.9302-.9869 1.763-1.7224 2.4984z"/></g></svg>
