<svg width="24" height="24" viewBox="0 0 24 24" fill="none" xmlns="http://www.w3.org/2000/svg">
<path d="M19.5 18H18.177C17.849 18 17.685 18 17.558 17.914C17.431 17.828 17.37 17.676 17.248 17.371L16.751 16.129C16.63 15.824 16.569 15.672 16.441 15.586C16.315 15.5 16.151 15.5 15.823 15.5H13.5C13.029 15.5 12.793 15.5 12.646 15.354C12.5 15.207 12.5 14.971 12.5 14.5V10.5M12.5 10.5V8M12.5 10.5H16.389M12.5 6C11.9696 6 11.4609 5.78929 11.0858 5.41421C10.7107 5.03914 10.5 4.53043 10.5 4C10.5 3.46957 10.7107 2.96086 11.0858 2.58579C11.4609 2.21071 11.9696 2 12.5 2C13.0304 2 13.5391 2.21071 13.9142 2.58579C14.2893 2.96086 14.5 3.46957 14.5 4C14.5 4.53043 14.2893 5.03914 13.9142 5.41421C13.5391 5.78929 13.0304 6 12.5 6Z" stroke="#667680" stroke-width="2" stroke-linecap="round" stroke-linejoin="round"/>
<path d="M9.558 10C6.688 10.48 4.5 12.964 4.5 15.958C4.5 19.295 7.217 22 10.57 22C11.5324 22.0013 12.4814 21.7738 13.3386 21.3362C14.1958 20.8985 14.9366 20.2633 15.5 19.483" stroke="#667680" stroke-width="2" stroke-linecap="round" stroke-linejoin="round"/>
</svg>
