<svg width="22" height="22" viewBox="0 0 22 22" fill="none" xmlns="http://www.w3.org/2000/svg">
<path d="M21 13H13V21H21V13ZM5.5 1L10 9H1L5.5 1ZM17 9C18.0609 9 19.0783 8.57857 19.8284 7.82843C20.5786 7.07828 21 6.06087 21 5C21 3.93913 20.5786 2.92172 19.8284 2.17157C19.0783 1.42143 18.0609 1 17 1C15.9391 1 14.9217 1.42143 14.1716 2.17157C13.4214 2.92172 13 3.93913 13 5C13 6.06087 13.4214 7.07828 14.1716 7.82843C14.9217 8.57857 15.9391 9 17 9Z" stroke="#667680" stroke-width="2" stroke-linejoin="round"/>
<path d="M1 13L9 21M9 13L1 21" stroke="#667680" stroke-width="2" stroke-linecap="round" stroke-linejoin="round"/>
</svg>
