<svg width="20" height="20" viewBox="0 0 20 20" fill="none" xmlns="http://www.w3.org/2000/svg">
<path d="M4.78947 6.26316L1.78947 9.26316C1.59649 9.45614 1.35544 9.55719 1.06632 9.56632C0.777193 9.57544 0.527017 9.47439 0.315789 9.26316C0.122807 9.07018 0.0221053 8.82912 0.0136842 8.54C0.00526317 8.25088 0.0971931 8.0007 0.289474 7.78947L1.05263 7L0.315789 6.26316C0.105263 6.05263 0 5.80702 0 5.52632C0 5.24561 0.105263 5 0.315789 4.78947L1.78947 3.31579L1.02632 2.52632C0.833333 2.33333 0.736842 2.09228 0.736842 1.80316C0.736842 1.51403 0.842105 1.26386 1.05263 1.05263C1.24561 0.859649 1.48702 0.758947 1.77684 0.750526C2.06667 0.742105 2.31649 0.834035 2.52632 1.02632L3.31579 1.78947L4.78947 0.315789C5 0.105263 5.24561 0 5.52632 0C5.80702 0 6.05263 0.105263 6.26316 0.315789L7 1.05263L7.78947 0.289474C7.98246 0.0964913 8.22386 0 8.51368 0C8.80351 0 9.05333 0.105263 9.26316 0.315789C9.45614 0.508772 9.55263 0.754386 9.55263 1.05263C9.55263 1.35088 9.45614 1.59649 9.26316 1.78947L6.26316 4.78947L15.2105 13.7368L18.2105 10.7368C18.4035 10.5439 18.6449 10.4432 18.9347 10.4347C19.2246 10.4263 19.4744 10.527 19.6842 10.7368C19.8772 10.9298 19.9782 11.1712 19.9874 11.4611C19.9965 11.7509 19.9042 12.0007 19.7105 12.2105L18.9474 13L19.6842 13.7368C19.8947 13.9474 20 14.193 20 14.4737C20 14.7544 19.8947 15 19.6842 15.2105L18.2105 16.6842L18.9737 17.4737C19.1667 17.6667 19.2632 17.9077 19.2632 18.1968C19.2632 18.486 19.1579 18.7361 18.9474 18.9474C18.7544 19.1404 18.5133 19.2414 18.2242 19.2505C17.9351 19.2596 17.6849 19.1674 17.4737 18.9737L16.6842 18.2105L15.2105 19.6842C15 19.8947 14.7544 20 14.4737 20C14.193 20 13.9474 19.8947 13.7368 19.6842L13 18.9474L12.2105 19.7105C12.0175 19.9035 11.7765 20 11.4874 20C11.1982 20 10.9481 19.8947 10.7368 19.6842C10.5439 19.4912 10.4474 19.2456 10.4474 18.9474C10.4474 18.6491 10.5439 18.4035 10.7368 18.2105L13.7368 15.2105L4.78947 6.26316Z" fill="#667680"/>
</svg>
