<svg width="26" height="26" viewBox="0 0 26 26" fill="none" xmlns="http://www.w3.org/2000/svg">
<path d="M15.1666 4.33331V8.66665M15.3659 8.47381L7.63962 8.71648C6.86395 8.7414 6.4772 8.75331 6.14462 8.60598C5.50762 8.32323 5.2487 7.65048 4.96378 7.05898C4.64637 6.39923 4.04078 6.50648 3.41353 6.50648C2.74837 6.50648 2.41687 6.50648 2.2522 6.73181C2.08862 6.95715 2.17962 7.28865 2.36162 7.95273L2.42337 8.17481C2.73428 9.30148 2.8892 9.8659 3.26403 10.2711C3.63778 10.6773 4.17403 10.8626 5.24653 11.2331L9.93195 12.8537C10.9243 13.1961 11.4302 13.6337 11.9372 14.5806C12.7194 16.0387 13.1094 16.7689 13.677 17.2867C14.093 17.6659 14.5751 17.9606 15.0962 18.1534C15.809 18.4166 16.6129 18.4166 18.2227 18.4166H22.464C23.4065 18.4166 23.8333 17.8576 23.8333 16.9953C23.8333 15.353 23.8333 14.5318 23.7 13.8558C23.1584 11.115 21.0534 8.99706 18.3949 8.51715C17.7395 8.39906 16.9476 8.42398 15.3659 8.47381Z" stroke="#667680" stroke-width="1.5" stroke-linecap="round" stroke-linejoin="round"/>
<path d="M23.2916 14.625H20.5833C19.1467 14.625 17.769 14.0543 16.7531 13.0385C15.7373 12.0227 15.1666 10.6449 15.1666 9.20831M13 21.6666H15.1666M15.1666 21.6666H20.5833M15.1666 21.6666L16.25 18.4166M22.75 21.6666H20.5833M20.5833 21.6666L21.6666 18.4166M11.9166 4.33331H18.4166" stroke="#667680" stroke-width="1.5" stroke-linecap="round" stroke-linejoin="round"/>
</svg>
