<svg width="27" height="27" viewBox="0 0 27 27" fill="none" xmlns="http://www.w3.org/2000/svg">
<path d="M15.4144 13.5067C15.4068 13.9218 15.2803 14.3252 15.0511 14.6658C14.8218 15.0063 14.5001 15.2688 14.1267 15.4198C13.7533 15.5707 13.345 15.6035 12.9536 15.5139C12.5621 15.4243 12.2052 15.2163 11.9281 14.9163C11.6509 14.6164 11.4659 14.238 11.3967 13.829C11.3274 13.4201 11.3769 12.9991 11.5389 12.6193C11.7009 12.2396 11.9682 11.9182 12.3068 11.6959C12.6453 11.4736 13.04 11.3605 13.4408 11.3708C13.9733 11.3912 14.4772 11.6256 14.8456 12.0244C15.2141 12.4231 15.4181 12.9548 15.4144 13.5067Z" fill="#254262"/>
<path d="M16.8736 6.94141H10.01C9.33081 6.94141 8.67947 7.22083 8.19924 7.71821C7.71901 8.2156 7.44922 8.89019 7.44922 9.5936V16.8622C7.44922 17.2105 7.51545 17.5554 7.64414 17.8772C7.77283 18.199 7.96145 18.4913 8.19924 18.7376C8.43703 18.9839 8.71932 19.1792 9.03 19.3125C9.34069 19.4458 9.67367 19.5144 10.01 19.5144H16.8736C17.2099 19.5144 17.5429 19.4458 17.8535 19.3125C18.1642 19.1792 18.4465 18.9839 18.6843 18.7376C18.9221 18.4913 19.1107 18.199 19.2394 17.8772C19.3681 17.5554 19.4343 17.2105 19.4343 16.8622V9.6067C19.4357 9.25741 19.3704 8.91127 19.2424 8.58813C19.1143 8.265 18.9259 7.97121 18.688 7.72361C18.4502 7.47601 18.1674 7.27947 17.8561 7.14524C17.5447 7.01102 17.2108 6.94175 16.8736 6.94141ZM13.4411 17.0614C12.7617 17.0773 12.0931 16.8831 11.5206 16.5037C10.9482 16.1243 10.4979 15.5769 10.2272 14.9312C9.95646 14.2856 9.87763 13.571 10.0007 12.8788C10.1238 12.1865 10.4433 11.548 10.9184 11.0446C11.3934 10.5412 12.0025 10.1959 12.6679 10.0526C13.3333 9.90931 14.0248 9.97463 14.6542 10.2402C15.2836 10.5058 15.8223 10.9595 16.2016 11.5436C16.5809 12.1277 16.7836 12.8156 16.7838 13.5195C16.7889 13.9794 16.7066 14.4359 16.5414 14.8628C16.3762 15.2897 16.1314 15.6788 15.821 16.0077C15.5106 16.3366 15.1406 16.599 14.7323 16.7798C14.3239 16.9606 13.8852 17.0563 13.4411 17.0614ZM17.1557 9.97885C17.0722 9.97886 16.9896 9.96163 16.9126 9.92815C16.8356 9.89467 16.7659 9.84562 16.7075 9.78387C16.649 9.72212 16.6031 9.64892 16.5723 9.56855C16.5415 9.48817 16.5265 9.40225 16.5282 9.3158C16.5282 9.13995 16.5956 8.9713 16.7157 8.84695C16.8358 8.72261 16.9986 8.65275 17.1684 8.65275C17.3382 8.65275 17.501 8.72261 17.6211 8.84695C17.7411 8.9713 17.8086 9.13995 17.8086 9.3158C17.8111 9.40941 17.794 9.50247 17.7586 9.58862C17.7231 9.67477 17.6702 9.75198 17.6032 9.81494C17.5363 9.87791 17.457 9.92516 17.3708 9.95345C17.2847 9.98173 17.1936 9.9904 17.1039 9.97885H17.1557Z" fill="#254262"/>
<path d="M13.4409 0.0841484C10.0854 0.0667718 6.86067 1.43067 4.47612 3.87581C2.09157 6.32094 0.742522 9.64702 0.725744 13.1223C0.708967 16.5977 2.02584 19.9375 4.38666 22.4073C6.74748 24.877 9.95886 26.2742 13.3143 26.2916C14.9758 26.3002 16.6226 25.9698 18.1608 25.3192C19.699 24.6686 21.0984 23.7106 22.2791 22.4999C23.4598 21.2892 24.3987 19.8495 25.0422 18.263C25.6857 16.6764 26.0212 14.9742 26.0295 13.2534C26.0378 11.5326 25.7187 9.82693 25.0906 8.23382C24.4625 6.64071 23.5375 5.19134 22.3685 3.96847C21.1996 2.74559 19.8095 1.77315 18.2777 1.10668C16.7459 0.44021 15.1023 0.0927524 13.4409 0.0841484ZM21.1243 16.7285C21.1279 17.3164 21.0187 17.8991 20.8031 18.443C20.5876 18.9868 20.27 19.4809 19.8686 19.8967C19.4673 20.3125 18.9903 20.6416 18.4653 20.865C17.9403 21.0884 17.3777 21.2016 16.8101 21.1982H10.0742C9.50669 21.2015 8.94419 21.0881 8.41924 20.8648C7.8943 20.6414 7.41735 20.3124 7.01599 19.8968C6.61464 19.4813 6.29685 18.9874 6.08103 18.4438C5.86521 17.9001 5.75563 17.3176 5.75865 16.7298V9.75207C5.75513 9.16419 5.8643 8.58144 6.07985 8.03759C6.2954 7.49374 6.61303 6.99961 7.01434 6.58385C7.41565 6.16809 7.89264 5.83897 8.41767 5.61556C8.94271 5.39216 9.50533 5.27891 10.0729 5.28239H16.8101C17.3776 5.27891 17.9401 5.39212 18.465 5.61544C18.99 5.83877 19.4669 6.16777 19.8682 6.58339C20.2695 6.99901 20.5871 7.49298 20.8028 8.03668C21.0184 8.58038 21.1277 9.16299 21.1243 9.75076V16.7285Z" fill="#254262"/>
</svg>
