<svg width="38" height="38" viewBox="0 0 38 38" fill="none" xmlns="http://www.w3.org/2000/svg">
<mask id="path-1-outside-1_1103_8445" maskUnits="userSpaceOnUse" x="2.10803" y="8.67258" width="33" height="22" fill="black">
<rect fill="white" x="2.10803" y="8.67258" width="33" height="22"/>
<path d="M18.107 17.4467H20.3236V16.3384H18.5455L17.0604 10.1001C17.0318 9.97836 16.9629 9.86989 16.8649 9.79228C16.7669 9.71467 16.6455 9.67248 16.5205 9.67258H14.1391C14.0141 9.67248 13.8927 9.71467 13.7947 9.79228C13.6967 9.86989 13.6278 9.97836 13.5992 10.1001L12.1125 16.3384H10.3296V17.4467H18.107ZM14.5777 10.7793H16.0803L17.404 16.3352H13.254L14.5777 10.7793ZM16.9955 23.5584H13.6625C13.5896 23.5582 13.5174 23.5724 13.45 23.6001C13.3826 23.6279 13.3213 23.6687 13.2697 23.7202C13.218 23.7716 13.1771 23.8328 13.1491 23.9001C13.1212 23.9675 13.1068 24.0397 13.1068 24.1126V26.8913C13.1066 26.9644 13.1208 27.0367 13.1487 27.1043C13.1765 27.1718 13.2174 27.2331 13.2691 27.2848C13.3207 27.3364 13.3821 27.3773 13.4496 27.4052C13.5171 27.4331 13.5895 27.4473 13.6625 27.4471H16.9955C17.0685 27.4473 17.1409 27.4331 17.2084 27.4052C17.2759 27.3773 17.3372 27.3364 17.3889 27.2848C17.4405 27.2331 17.4815 27.1718 17.5093 27.1043C17.5372 27.0367 17.5514 26.9644 17.5512 26.8913V24.1126C17.5512 24.0397 17.5368 23.9675 17.5089 23.9001C17.4809 23.8328 17.44 23.7716 17.3883 23.7202C17.3367 23.6687 17.2754 23.6279 17.208 23.6001C17.1406 23.5724 17.0684 23.5582 16.9955 23.5584ZM16.4413 26.3356H14.2183V24.6683H16.435L16.4413 26.3356ZM9.77387 23.5584H10.8854V26.3356H9.77387V23.5584ZM27.5515 19.6682H28.663V22.4453H27.5515V19.6682ZM27.5515 14.6696H28.663V17.4467H27.5515V14.6696ZM34.219 10.7793H26.4416C26.3687 10.7793 26.2965 10.7937 26.2292 10.8217C26.1618 10.8496 26.1007 10.8906 26.0492 10.9422C25.9977 10.9938 25.9569 11.0551 25.9292 11.1225C25.9014 11.1899 25.8872 11.2622 25.8875 11.3351V21.8912H3.6622C3.58929 21.8912 3.5171 21.9055 3.44976 21.9335C3.38243 21.9614 3.32127 22.0024 3.26979 22.054C3.21831 22.1057 3.17752 22.1669 3.14976 22.2344C3.12201 22.3018 3.10783 22.374 3.10803 22.4469V29.1127C3.10783 29.1857 3.12201 29.2579 3.14976 29.3253C3.17752 29.3927 3.21831 29.454 3.26979 29.5056C3.32127 29.5573 3.38243 29.5982 3.44976 29.6262C3.5171 29.6541 3.58929 29.6685 3.6622 29.6685H34.2205C34.2936 29.6687 34.3659 29.6545 34.4335 29.6266C34.501 29.5988 34.5623 29.5578 34.614 29.5062C34.6656 29.4545 34.7066 29.3932 34.7344 29.3257C34.7623 29.2581 34.7765 29.1858 34.7763 29.1127V11.3351C34.7765 11.2619 34.7622 11.1894 34.7343 11.1218C34.7063 11.0542 34.6652 10.9927 34.6134 10.9411C34.5616 10.8894 34.5001 10.8485 34.4324 10.8207C34.3647 10.793 34.2921 10.7789 34.219 10.7793ZM25.8859 25.2241H19.2185V23.0074H25.8859V25.2241ZM4.21795 23.0074H11.4411V28.5633H4.21795V23.0074ZM12.551 23.0074H18.107V25.2241H18.088V26.3324H18.107V28.5491H12.551V23.0074ZM19.2185 26.3324H25.8859V28.5491H19.2185V26.3324ZM33.6632 28.5491H26.9958V19.114H33.6632V28.5491ZM26.9958 18.0025V11.8908H33.6632V18.0025H26.9958Z"/>
</mask>
<path d="M18.107 17.4467H20.3236V16.3384H18.5455L17.0604 10.1001C17.0318 9.97836 16.9629 9.86989 16.8649 9.79228C16.7669 9.71467 16.6455 9.67248 16.5205 9.67258H14.1391C14.0141 9.67248 13.8927 9.71467 13.7947 9.79228C13.6967 9.86989 13.6278 9.97836 13.5992 10.1001L12.1125 16.3384H10.3296V17.4467H18.107ZM14.5777 10.7793H16.0803L17.404 16.3352H13.254L14.5777 10.7793ZM16.9955 23.5584H13.6625C13.5896 23.5582 13.5174 23.5724 13.45 23.6001C13.3826 23.6279 13.3213 23.6687 13.2697 23.7202C13.218 23.7716 13.1771 23.8328 13.1491 23.9001C13.1212 23.9675 13.1068 24.0397 13.1068 24.1126V26.8913C13.1066 26.9644 13.1208 27.0367 13.1487 27.1043C13.1765 27.1718 13.2174 27.2331 13.2691 27.2848C13.3207 27.3364 13.3821 27.3773 13.4496 27.4052C13.5171 27.4331 13.5895 27.4473 13.6625 27.4471H16.9955C17.0685 27.4473 17.1409 27.4331 17.2084 27.4052C17.2759 27.3773 17.3372 27.3364 17.3889 27.2848C17.4405 27.2331 17.4815 27.1718 17.5093 27.1043C17.5372 27.0367 17.5514 26.9644 17.5512 26.8913V24.1126C17.5512 24.0397 17.5368 23.9675 17.5089 23.9001C17.4809 23.8328 17.44 23.7716 17.3883 23.7202C17.3367 23.6687 17.2754 23.6279 17.208 23.6001C17.1406 23.5724 17.0684 23.5582 16.9955 23.5584ZM16.4413 26.3356H14.2183V24.6683H16.435L16.4413 26.3356ZM9.77387 23.5584H10.8854V26.3356H9.77387V23.5584ZM27.5515 19.6682H28.663V22.4453H27.5515V19.6682ZM27.5515 14.6696H28.663V17.4467H27.5515V14.6696ZM34.219 10.7793H26.4416C26.3687 10.7793 26.2965 10.7937 26.2292 10.8217C26.1618 10.8496 26.1007 10.8906 26.0492 10.9422C25.9977 10.9938 25.9569 11.0551 25.9292 11.1225C25.9014 11.1899 25.8872 11.2622 25.8875 11.3351V21.8912H3.6622C3.58929 21.8912 3.5171 21.9055 3.44976 21.9335C3.38243 21.9614 3.32127 22.0024 3.26979 22.054C3.21831 22.1057 3.17752 22.1669 3.14976 22.2344C3.12201 22.3018 3.10783 22.374 3.10803 22.4469V29.1127C3.10783 29.1857 3.12201 29.2579 3.14976 29.3253C3.17752 29.3927 3.21831 29.454 3.26979 29.5056C3.32127 29.5573 3.38243 29.5982 3.44976 29.6262C3.5171 29.6541 3.58929 29.6685 3.6622 29.6685H34.2205C34.2936 29.6687 34.3659 29.6545 34.4335 29.6266C34.501 29.5988 34.5623 29.5578 34.614 29.5062C34.6656 29.4545 34.7066 29.3932 34.7344 29.3257C34.7623 29.2581 34.7765 29.1858 34.7763 29.1127V11.3351C34.7765 11.2619 34.7622 11.1894 34.7343 11.1218C34.7063 11.0542 34.6652 10.9927 34.6134 10.9411C34.5616 10.8894 34.5001 10.8485 34.4324 10.8207C34.3647 10.793 34.2921 10.7789 34.219 10.7793ZM25.8859 25.2241H19.2185V23.0074H25.8859V25.2241ZM4.21795 23.0074H11.4411V28.5633H4.21795V23.0074ZM12.551 23.0074H18.107V25.2241H18.088V26.3324H18.107V28.5491H12.551V23.0074ZM19.2185 26.3324H25.8859V28.5491H19.2185V26.3324ZM33.6632 28.5491H26.9958V19.114H33.6632V28.5491ZM26.9958 18.0025V11.8908H33.6632V18.0025H26.9958Z" fill="#667680"/>
<path d="M18.107 17.4467H20.3236V16.3384H18.5455L17.0604 10.1001C17.0318 9.97836 16.9629 9.86989 16.8649 9.79228C16.7669 9.71467 16.6455 9.67248 16.5205 9.67258H14.1391C14.0141 9.67248 13.8927 9.71467 13.7947 9.79228C13.6967 9.86989 13.6278 9.97836 13.5992 10.1001L12.1125 16.3384H10.3296V17.4467H18.107ZM14.5777 10.7793H16.0803L17.404 16.3352H13.254L14.5777 10.7793ZM16.9955 23.5584H13.6625C13.5896 23.5582 13.5174 23.5724 13.45 23.6001C13.3826 23.6279 13.3213 23.6687 13.2697 23.7202C13.218 23.7716 13.1771 23.8328 13.1491 23.9001C13.1212 23.9675 13.1068 24.0397 13.1068 24.1126V26.8913C13.1066 26.9644 13.1208 27.0367 13.1487 27.1043C13.1765 27.1718 13.2174 27.2331 13.2691 27.2848C13.3207 27.3364 13.3821 27.3773 13.4496 27.4052C13.5171 27.4331 13.5895 27.4473 13.6625 27.4471H16.9955C17.0685 27.4473 17.1409 27.4331 17.2084 27.4052C17.2759 27.3773 17.3372 27.3364 17.3889 27.2848C17.4405 27.2331 17.4815 27.1718 17.5093 27.1043C17.5372 27.0367 17.5514 26.9644 17.5512 26.8913V24.1126C17.5512 24.0397 17.5368 23.9675 17.5089 23.9001C17.4809 23.8328 17.44 23.7716 17.3883 23.7202C17.3367 23.6687 17.2754 23.6279 17.208 23.6001C17.1406 23.5724 17.0684 23.5582 16.9955 23.5584ZM16.4413 26.3356H14.2183V24.6683H16.435L16.4413 26.3356ZM9.77387 23.5584H10.8854V26.3356H9.77387V23.5584ZM27.5515 19.6682H28.663V22.4453H27.5515V19.6682ZM27.5515 14.6696H28.663V17.4467H27.5515V14.6696ZM34.219 10.7793H26.4416C26.3687 10.7793 26.2965 10.7937 26.2292 10.8217C26.1618 10.8496 26.1007 10.8906 26.0492 10.9422C25.9977 10.9938 25.9569 11.0551 25.9292 11.1225C25.9014 11.1899 25.8872 11.2622 25.8875 11.3351V21.8912H3.6622C3.58929 21.8912 3.5171 21.9055 3.44976 21.9335C3.38243 21.9614 3.32127 22.0024 3.26979 22.054C3.21831 22.1057 3.17752 22.1669 3.14976 22.2344C3.12201 22.3018 3.10783 22.374 3.10803 22.4469V29.1127C3.10783 29.1857 3.12201 29.2579 3.14976 29.3253C3.17752 29.3927 3.21831 29.454 3.26979 29.5056C3.32127 29.5573 3.38243 29.5982 3.44976 29.6262C3.5171 29.6541 3.58929 29.6685 3.6622 29.6685H34.2205C34.2936 29.6687 34.3659 29.6545 34.4335 29.6266C34.501 29.5988 34.5623 29.5578 34.614 29.5062C34.6656 29.4545 34.7066 29.3932 34.7344 29.3257C34.7623 29.2581 34.7765 29.1858 34.7763 29.1127V11.3351C34.7765 11.2619 34.7622 11.1894 34.7343 11.1218C34.7063 11.0542 34.6652 10.9927 34.6134 10.9411C34.5616 10.8894 34.5001 10.8485 34.4324 10.8207C34.3647 10.793 34.2921 10.7789 34.219 10.7793ZM25.8859 25.2241H19.2185V23.0074H25.8859V25.2241ZM4.21795 23.0074H11.4411V28.5633H4.21795V23.0074ZM12.551 23.0074H18.107V25.2241H18.088V26.3324H18.107V28.5491H12.551V23.0074ZM19.2185 26.3324H25.8859V28.5491H19.2185V26.3324ZM33.6632 28.5491H26.9958V19.114H33.6632V28.5491ZM26.9958 18.0025V11.8908H33.6632V18.0025H26.9958Z" stroke="#667680" stroke-width="0.4" mask="url(#path-1-outside-1_1103_8445)"/>
</svg>
