<svg width="27" height="27" viewBox="0 0 27 27" fill="none" xmlns="http://www.w3.org/2000/svg">
<path d="M13.987 0C6.79981 0 0.973633 5.82618 0.973633 13.0133C0.973633 20.2005 6.79981 26.0267 13.987 26.0267C21.1741 26.0267 27.0003 20.2005 27.0003 13.0133C27.0003 5.82618 21.1741 0 13.987 0ZM10.8014 18.4071H8.16621V9.92674H10.8014V18.4071ZM9.46755 8.88567C8.63524 8.88567 8.09708 8.296 8.09708 7.56671C8.09708 6.82251 8.6515 6.25047 9.50144 6.25047C10.3514 6.25047 10.8719 6.82251 10.8882 7.56671C10.8882 8.296 10.3514 8.88567 9.46755 8.88567ZM20.4259 18.4071H17.7907V13.7074C17.7907 12.6135 17.4084 11.8706 16.4554 11.8706C15.7275 11.8706 15.2951 12.3735 15.104 12.8575C15.0335 13.0296 15.0158 13.2736 15.0158 13.5163V18.4057H12.3793V12.6311C12.3793 11.5724 12.3454 10.6872 12.3101 9.92538H14.5997L14.7203 11.1034H14.7732C15.1202 10.5503 15.9702 9.73425 17.3921 9.73425C19.1259 9.73425 20.4259 10.896 20.4259 13.3929V18.4071Z" fill="#254262"/>
</svg>
