<svg width="40" height="41" viewBox="0 0 40 41" fill="none" xmlns="http://www.w3.org/2000/svg">
<rect x="1" y="1" width="38" height="39" rx="4" fill="#F4FAFE" stroke="#E2F2FF" stroke-width="2"/>
<path d="M15.466 29.8752V30.0252H15.616H16.615H16.765V29.8752V28.9835H23.235V29.8752V30.0252H23.385H24.385H24.535V29.8752V28.9774C24.9572 28.9428 25.3251 28.7629 25.6331 28.4427C25.977 28.0852 26.15 27.652 26.15 27.1512L26.15 16.9742L26.15 16.9739C26.1493 16.474 25.9763 16.041 25.6333 15.6829C25.2899 15.3245 24.8712 15.1419 24.385 15.1419H22.247V12.7679C22.247 12.5127 22.1545 12.2883 21.9752 12.1015C21.7958 11.9147 21.5776 11.8158 21.327 11.8158H18.673C18.4229 11.8158 18.2051 11.9148 18.0258 12.1015C17.8465 12.2883 17.754 12.5127 17.754 12.7679V15.1419L15.615 15.1419L15.6145 15.1419C15.1292 15.1434 14.7108 15.3263 14.3669 15.6837C14.023 16.0412 13.85 16.4745 13.85 16.9752L13.85 27.1523L13.85 27.1525C13.8507 27.6518 14.0237 28.0845 14.3667 28.4425C14.6743 28.7636 15.0427 28.9436 15.466 28.9776V29.8752ZM19.35 22.9846V23.1346H19.5H20.5H20.65V22.9846V22.0688C21.4006 22.0041 22.1336 21.8761 22.8488 21.6847C23.5326 21.5017 24.1997 21.2474 24.85 20.922V27.1512C24.85 27.3044 24.804 27.4191 24.7188 27.5078C24.6341 27.596 24.527 27.6419 24.385 27.6419H15.616C15.4732 27.6419 15.3658 27.5959 15.2812 27.5078C15.196 27.4191 15.15 27.3044 15.15 27.1512V20.9221C15.7998 21.2475 16.4669 21.5017 17.1513 21.6847C17.867 21.8761 18.6 22.0041 19.35 22.0688V22.9846ZM20.946 15.1419H19.054V13.1585H20.946V15.1419ZM22.5477 20.4047C21.719 20.6357 20.8699 20.7512 20.0001 20.7512C19.1309 20.7506 18.282 20.635 17.4532 20.4046C16.6511 20.1817 15.8835 19.8505 15.15 19.4105V16.9752C15.15 16.8211 15.1961 16.7062 15.2812 16.6176C15.3659 16.5294 15.473 16.4835 15.615 16.4835H24.385C24.527 16.4835 24.6341 16.5294 24.7188 16.6176C24.804 16.7063 24.85 16.821 24.85 16.9742V19.4104C24.1171 19.8498 23.3498 20.1811 22.5477 20.4047Z" fill="#254262" stroke="#254262" stroke-width="0.3"/>
</svg>
