<svg width="24" height="24" viewBox="0 0 24 24" fill="none" xmlns="http://www.w3.org/2000/svg">
<g clip-path="url(#clip0_1103_8473)">
<path d="M0.339844 17.0977C0.113281 17.5977 0 18.1172 0 18.6562V19.5C0 20.0938 0.160156 20.6367 0.480469 21.1289C0.800781 21.6211 1.23047 21.9883 1.76953 22.2305C2.01172 22.7695 2.37891 23.1992 2.87109 23.5195C3.36328 23.8398 3.90625 24 4.5 24C5.03906 24 5.53906 23.8672 6 23.6016C6.46094 23.3359 6.82813 22.9688 7.10156 22.5H15.3984C15.6719 22.9688 16.0391 23.3359 16.5 23.6016C16.9609 23.8672 17.4609 24 18 24C18.5391 24 19.0391 23.8672 19.5 23.6016C19.9609 23.3359 20.3281 22.9688 20.6016 22.5H22.5C22.7109 22.5 22.9063 22.4609 23.0859 22.3828C23.2656 22.3047 23.4219 22.1992 23.5547 22.0664C23.6875 21.9336 23.7969 21.7734 23.8828 21.5859C23.9688 21.3984 24.0078 21.2031 24 21V18C24 17.375 23.8828 16.7891 23.6484 16.2422C23.4141 15.6953 23.0938 15.2188 22.6875 14.8125C22.2813 14.4062 21.8047 14.0859 21.2578 13.8516C20.7109 13.6172 20.125 13.5 19.5 13.5H19.0664L15.2227 9.65625C15.0117 9.44531 14.7695 9.28516 14.4961 9.17578C14.2227 9.06641 13.9336 9.00781 13.6289 9H3V10.5H3.33984L0.339844 17.0977ZM9 10.5V13.5H3.62109L4.78125 10.9336C4.84375 10.8008 4.9375 10.6953 5.0625 10.6172C5.1875 10.5391 5.32422 10.5 5.47266 10.5H9ZM13.6289 10.5C13.832 10.5 14.0078 10.5742 14.1563 10.7227L16.9336 13.5H10.5V10.5H13.6289ZM18 22.5C17.7891 22.5 17.5938 22.4609 17.4141 22.3828C17.2344 22.3047 17.0781 22.1992 16.9453 22.0664C16.8125 21.9336 16.7031 21.7734 16.6172 21.5859C16.5313 21.3984 16.4922 21.2031 16.5 21C16.5 20.7891 16.5391 20.5938 16.6172 20.4141C16.6953 20.2344 16.8008 20.0781 16.9336 19.9453C17.0664 19.8125 17.2266 19.7031 17.4141 19.6172C17.6016 19.5312 17.7969 19.4922 18 19.5C18.2109 19.5 18.4063 19.5391 18.5859 19.6172C18.7656 19.6953 18.9219 19.8008 19.0547 19.9336C19.1875 20.0664 19.2969 20.2266 19.3828 20.4141C19.4688 20.6016 19.5078 20.7969 19.5 21C19.5 21.2109 19.4609 21.4062 19.3828 21.5859C19.3047 21.7656 19.1992 21.9219 19.0664 22.0547C18.9336 22.1875 18.7734 22.2969 18.5859 22.3828C18.3984 22.4688 18.2031 22.5078 18 22.5ZM18 18C17.5859 18 17.1992 18.0781 16.8398 18.2344C16.4805 18.3906 16.1602 18.6055 15.8789 18.8789C15.5977 19.1523 15.3828 19.4688 15.2344 19.8281C15.0859 20.1875 15.0078 20.5781 15 21H10.5V15H19.5C19.9141 15 20.3008 15.0781 20.6602 15.2344C21.0195 15.3906 21.3398 15.6055 21.6211 15.8789C21.9023 16.1523 22.1172 16.4688 22.2656 16.8281C22.4141 17.1875 22.4922 17.5781 22.5 18V21H21C21 20.5859 20.9219 20.1992 20.7656 19.8398C20.6094 19.4805 20.3945 19.1602 20.1211 18.8789C19.8477 18.5977 19.5313 18.3828 19.1719 18.2344C18.8125 18.0859 18.4219 18.0078 18 18ZM4.5 22.5C4.28906 22.5 4.09375 22.4609 3.91406 22.3828C3.73438 22.3047 3.57813 22.1992 3.44531 22.0664C3.3125 21.9336 3.20313 21.7734 3.11719 21.5859C3.03125 21.3984 2.99219 21.2031 3 21C3 20.7891 3.03906 20.5938 3.11719 20.4141C3.19531 20.2344 3.30078 20.0781 3.43359 19.9453C3.56641 19.8125 3.72656 19.7031 3.91406 19.6172C4.10156 19.5312 4.29688 19.4922 4.5 19.5C4.71094 19.5 4.90625 19.5391 5.08594 19.6172C5.26563 19.6953 5.42188 19.8008 5.55469 19.9336C5.6875 20.0664 5.79688 20.2266 5.88281 20.4141C5.96875 20.6016 6.00781 20.7969 6 21C6 21.2109 5.96094 21.4062 5.88281 21.5859C5.80469 21.7656 5.69922 21.9219 5.56641 22.0547C5.43359 22.1875 5.27344 22.2969 5.08594 22.3828C4.89844 22.4688 4.70313 22.5078 4.5 22.5ZM1.5 18.6562C1.5 18.3359 1.56641 18.0234 1.69922 17.7188L2.94141 15H9V21H7.5C7.5 20.5859 7.42188 20.1992 7.26563 19.8398C7.10938 19.4805 6.89453 19.1602 6.62109 18.8789C6.34766 18.5977 6.03125 18.3828 5.67188 18.2344C5.3125 18.0859 4.92188 18.0078 4.5 18C4.17188 18 3.85547 18.0508 3.55078 18.1523C3.24609 18.2539 2.96875 18.3984 2.71875 18.5859C2.46875 18.7734 2.25 18.9961 2.0625 19.2539C1.875 19.5117 1.73047 19.8008 1.62891 20.1211C1.54297 19.9102 1.5 19.7031 1.5 19.5V18.6562Z" fill="#667680"/>
</g>
<defs>
<clipPath id="clip0_1103_8473">
<rect width="24" height="24" fill="white"/>
</clipPath>
</defs>
</svg>
