<svg width="40" height="41" viewBox="0 0 40 41" fill="none" xmlns="http://www.w3.org/2000/svg">
<rect x="1" y="1" width="38" height="39" rx="4" fill="#F4FAFE" stroke="#E2F2FF" stroke-width="2"/>
<path d="M18.7621 27.2353C18.6439 27.676 18.6361 28.1366 18.7394 28.5807C15.111 28.098 13 25.6859 13 23.3338V22.6671C13 22.1366 13.2239 21.6279 13.6225 21.2528C14.021 20.8777 14.5616 20.667 15.1252 20.667H23.6586C23.6798 21.1404 23.8385 21.6017 24.1233 22.0004H15.1252C14.9373 22.0004 14.7571 22.0706 14.6243 22.1957C14.4914 22.3207 14.4168 22.4903 14.4168 22.6671V23.3338C14.4168 25.0045 15.9583 26.8006 18.7621 27.2353ZM20.084 12C21.1173 12 22.1083 12.3863 22.839 13.074C23.5697 13.7616 23.9802 14.6943 23.9802 15.6668C23.9802 16.6393 23.5697 17.572 22.839 18.2596C22.1083 18.9473 21.1173 19.3336 20.084 19.3336C19.0507 19.3336 18.0596 18.9473 17.329 18.2596C16.5983 17.572 16.1878 16.6393 16.1878 15.6668C16.1878 14.6943 16.5983 13.7616 17.329 13.074C18.0596 12.3863 19.0507 12 20.084 12ZM20.084 13.3334C19.4264 13.3334 18.7958 13.5792 18.3308 14.0168C17.8658 14.4544 17.6046 15.048 17.6046 15.6668C17.6046 16.2857 17.8658 16.8792 18.3308 17.3168C18.7958 17.7544 19.4264 18.0002 20.084 18.0002C20.7416 18.0002 21.3722 17.7544 21.8372 17.3168C22.3022 16.8792 22.5634 16.2857 22.5634 15.6668C22.5634 15.048 22.3022 14.4544 21.8372 14.0168C21.3722 13.5792 20.7416 13.3334 20.084 13.3334ZM25.1618 20.1083L25.5627 19.1083C25.9283 18.2016 27.0674 17.7536 28.028 18.1389L28.5777 18.3603C29.2478 18.6296 29.8032 19.1176 29.9194 19.7736C30.5669 23.4071 27.2162 28.5753 23.3596 29.8941C22.6626 30.1314 21.9088 29.9474 21.3124 29.566L20.8221 29.2527C20.6209 29.1251 20.4514 28.958 20.3255 28.7628C20.1995 28.5676 20.1201 28.349 20.0926 28.1221C20.0651 27.8952 20.0903 27.6654 20.1663 27.4485C20.2424 27.2316 20.3675 27.0329 20.5331 26.8659L21.3053 26.0566C21.4866 25.8686 21.718 25.7296 21.9756 25.6539C22.2331 25.5782 22.5074 25.5685 22.7702 25.6259L24.5058 26.0126C25.882 25.2036 26.6197 24.0658 26.7189 22.5991L25.4749 21.4524C25.2891 21.2815 25.1605 21.0632 25.1049 20.8244C25.0492 20.5856 25.069 20.3367 25.1618 20.1083Z" fill="#254262"/>
</svg>
