<svg width="28" height="28" viewBox="0 0 28 28" fill="none" xmlns="http://www.w3.org/2000/svg">
<mask id="path-1-outside-1_1103_8624" maskUnits="userSpaceOnUse" x="2.94922" y="3.98053" width="22" height="21" fill="black">
<rect fill="white" x="2.94922" y="3.98053" width="22" height="21"/>
<path d="M14.4037 24.4557C13.1904 24.311 11.9856 23.9945 10.7894 23.506C9.59316 23.0168 8.50933 22.3044 7.53789 21.3687C6.56566 20.4323 5.75833 19.2454 5.11589 17.808C4.47344 16.3707 4.09933 14.6378 3.99355 12.6094L3.94922 11.6667L4.84639 11.7122C5.65839 11.7565 6.62283 11.9615 7.73972 12.327C8.85739 12.691 9.80589 13.1558 10.5852 13.7212C10.684 12.259 11.0457 10.719 11.6702 9.1012C12.2948 7.48342 13.0714 6.10986 14.0001 4.98053C14.9287 6.10986 15.7053 7.49081 16.3299 9.12336C16.9544 10.7559 17.3161 12.3037 17.4149 13.7667C18.1491 13.2456 19.0599 12.7844 20.1472 12.383C21.2346 11.9817 22.2219 11.7577 23.1094 11.711L24.0509 11.6667L24.0066 12.6537C23.9467 14.2637 23.6962 15.7088 23.2552 16.989C22.8142 18.2693 22.1901 19.3924 21.3827 20.3584C20.5754 21.3244 19.5927 22.1449 18.4346 22.82C17.2764 23.4951 15.9328 24.0404 14.4037 24.4557ZM14.3897 23.275C14.1758 20.0473 13.2184 17.607 11.5174 15.9542C9.81639 14.3014 7.70161 13.2806 5.17305 12.8917C5.38694 16.2167 6.37394 18.6959 8.13405 20.3292C9.89416 21.9625 11.9794 22.9445 14.3897 23.275ZM14.0001 17.3927C14.2622 16.905 14.5986 16.3952 15.0092 15.8632C15.4191 15.3312 15.8411 14.8851 16.2751 14.525C16.2665 13.3273 16.0627 12.077 15.6637 10.7742C15.2647 9.47142 14.7102 8.22386 14.0001 7.03153C13.2899 8.22386 12.7354 9.47142 12.3364 10.7742C11.9374 12.077 11.7336 13.3273 11.7251 14.525C12.1591 14.8859 12.5787 15.332 12.9839 15.8632C13.3891 16.3952 13.7278 16.9046 14.0001 17.3915M15.5576 22.8854C16.4707 22.5766 17.3461 22.1686 18.1837 21.6615C19.0222 21.1552 19.7727 20.5065 20.4354 19.7155C21.0988 18.9253 21.6429 17.9714 22.0676 16.8537C22.4914 15.7368 22.7442 14.4161 22.8259 12.8917C20.9382 13.1639 19.2594 13.8278 17.7894 14.8832C16.3194 15.9386 15.2597 17.2329 14.6102 18.7659C14.8436 19.3881 15.0353 20.0161 15.1854 20.65C15.3355 21.2839 15.4596 22.029 15.5576 22.8854Z"/>
</mask>
<path d="M14.4037 24.4557C13.1904 24.311 11.9856 23.9945 10.7894 23.506C9.59316 23.0168 8.50933 22.3044 7.53789 21.3687C6.56566 20.4323 5.75833 19.2454 5.11589 17.808C4.47344 16.3707 4.09933 14.6378 3.99355 12.6094L3.94922 11.6667L4.84639 11.7122C5.65839 11.7565 6.62283 11.9615 7.73972 12.327C8.85739 12.691 9.80589 13.1558 10.5852 13.7212C10.684 12.259 11.0457 10.719 11.6702 9.1012C12.2948 7.48342 13.0714 6.10986 14.0001 4.98053C14.9287 6.10986 15.7053 7.49081 16.3299 9.12336C16.9544 10.7559 17.3161 12.3037 17.4149 13.7667C18.1491 13.2456 19.0599 12.7844 20.1472 12.383C21.2346 11.9817 22.2219 11.7577 23.1094 11.711L24.0509 11.6667L24.0066 12.6537C23.9467 14.2637 23.6962 15.7088 23.2552 16.989C22.8142 18.2693 22.1901 19.3924 21.3827 20.3584C20.5754 21.3244 19.5927 22.1449 18.4346 22.82C17.2764 23.4951 15.9328 24.0404 14.4037 24.4557ZM14.3897 23.275C14.1758 20.0473 13.2184 17.607 11.5174 15.9542C9.81639 14.3014 7.70161 13.2806 5.17305 12.8917C5.38694 16.2167 6.37394 18.6959 8.13405 20.3292C9.89416 21.9625 11.9794 22.9445 14.3897 23.275ZM14.0001 17.3927C14.2622 16.905 14.5986 16.3952 15.0092 15.8632C15.4191 15.3312 15.8411 14.8851 16.2751 14.525C16.2665 13.3273 16.0627 12.077 15.6637 10.7742C15.2647 9.47142 14.7102 8.22386 14.0001 7.03153C13.2899 8.22386 12.7354 9.47142 12.3364 10.7742C11.9374 12.077 11.7336 13.3273 11.7251 14.525C12.1591 14.8859 12.5787 15.332 12.9839 15.8632C13.3891 16.3952 13.7278 16.9046 14.0001 17.3915M15.5576 22.8854C16.4707 22.5766 17.3461 22.1686 18.1837 21.6615C19.0222 21.1552 19.7727 20.5065 20.4354 19.7155C21.0988 18.9253 21.6429 17.9714 22.0676 16.8537C22.4914 15.7368 22.7442 14.4161 22.8259 12.8917C20.9382 13.1639 19.2594 13.8278 17.7894 14.8832C16.3194 15.9386 15.2597 17.2329 14.6102 18.7659C14.8436 19.3881 15.0353 20.0161 15.1854 20.65C15.3355 21.2839 15.4596 22.029 15.5576 22.8854Z" fill="#667680"/>
<path d="M14.4037 24.4557L14.3682 24.7536L14.4261 24.7605L14.4824 24.7452L14.4037 24.4557ZM10.7894 23.506L10.6758 23.7837L10.676 23.7838L10.7894 23.506ZM7.53789 21.3687L7.32977 21.5848L7.32977 21.5848L7.53789 21.3687ZM3.99355 12.6094L3.69388 12.6235L3.69396 12.625L3.99355 12.6094ZM3.94922 11.6667L3.96441 11.3671L3.63401 11.3503L3.64955 11.6808L3.94922 11.6667ZM4.84639 11.7122L4.86274 11.4126L4.86158 11.4126L4.84639 11.7122ZM7.73972 12.327L7.6464 12.6121L7.64682 12.6123L7.73972 12.327ZM10.5852 13.7212L10.409 13.964L10.848 14.2825L10.8845 13.7414L10.5852 13.7212ZM14.0001 4.98053L14.2318 4.78999L14.0001 4.5082L13.7683 4.78999L14.0001 4.98053ZM17.4149 13.7667L17.1156 13.7869L17.1517 14.3214L17.5885 14.0113L17.4149 13.7667ZM23.1094 11.711L23.0953 11.4114L23.0936 11.4114L23.1094 11.711ZM24.0509 11.6667L24.3506 11.6802L24.3653 11.3516L24.0368 11.367L24.0509 11.6667ZM24.0066 12.6537L23.7068 12.6402L23.7068 12.6425L24.0066 12.6537ZM14.3897 23.275L14.349 23.5722L14.7134 23.6222L14.6891 23.2552L14.3897 23.275ZM5.17305 12.8917L5.21866 12.5952L4.84971 12.5384L4.87367 12.911L5.17305 12.8917ZM15.0092 15.8632L15.2467 16.0465L15.2469 16.0463L15.0092 15.8632ZM16.2751 14.525L16.4666 14.7559L16.5761 14.6651L16.575 14.5229L16.2751 14.525ZM14.0001 7.03153L14.2578 6.87802L14.0001 6.44524L13.7423 6.87802L14.0001 7.03153ZM11.7251 14.525L11.4251 14.5229L11.424 14.6649L11.5332 14.7557L11.7251 14.525ZM12.9839 15.8632L13.2225 15.6814L13.2224 15.6812L12.9839 15.8632ZM15.5576 22.8854L15.2595 22.9195L15.3017 23.2886L15.6537 23.1696L15.5576 22.8854ZM18.1837 21.6615L18.0286 21.4047L18.0284 21.4049L18.1837 21.6615ZM20.4354 19.7155L20.2056 19.5226L20.2054 19.5229L20.4354 19.7155ZM22.0676 16.8537L22.348 16.9603L22.348 16.9601L22.0676 16.8537ZM22.8259 12.8917L23.1255 12.9077L23.145 12.5426L22.7831 12.5948L22.8259 12.8917ZM14.6102 18.7659L14.334 18.6488L14.2873 18.7591L14.3293 18.8712L14.6102 18.7659ZM14.4392 24.1578C13.2541 24.0165 12.0755 23.7071 10.9028 23.2283L10.676 23.7838C11.8957 24.2818 13.1266 24.6056 14.3682 24.7536L14.4392 24.1578ZM10.9029 23.2284C9.74338 22.7541 8.69132 22.0631 7.746 21.1526L7.32977 21.5848C8.32734 22.5456 9.44295 23.2795 10.6758 23.7837L10.9029 23.2284ZM7.746 21.1526C6.80572 20.2469 6.01908 19.0936 5.38977 17.6856L4.842 17.9304C5.49758 19.3972 6.32561 20.6176 7.32977 21.5848L7.746 21.1526ZM5.38977 17.6856C4.76606 16.2902 4.39753 14.5955 4.29315 12.5937L3.69396 12.625C3.80113 14.6801 4.18082 16.4512 4.842 17.9304L5.38977 17.6856ZM4.29322 12.5953L4.24889 11.6526L3.64955 11.6808L3.69388 12.6235L4.29322 12.5953ZM3.93402 11.9663L4.83119 12.0118L4.86158 11.4126L3.96441 11.3671L3.93402 11.9663ZM4.83003 12.0117C5.60708 12.0542 6.5444 12.2515 7.6464 12.6121L7.83304 12.0419C6.70126 11.6715 5.70969 11.4589 4.86274 11.4126L4.83003 12.0117ZM7.64682 12.6123C8.74102 12.9686 9.65996 13.4205 10.409 13.964L10.7614 13.4784C9.95181 12.891 8.97376 12.4134 7.83262 12.0418L7.64682 12.6123ZM10.8845 13.7414C10.9809 12.3142 11.3345 10.8039 11.9501 9.20924L11.3904 8.99315C10.7569 10.6341 10.387 12.2037 10.2859 13.701L10.8845 13.7414ZM11.9501 9.20924C12.5652 7.61595 13.3268 6.27154 14.2318 5.17107L13.7683 4.78999C12.8159 5.94818 12.0244 7.35089 11.3904 8.99315L11.9501 9.20924ZM13.7683 5.17107C14.6729 6.27108 15.4345 7.62249 16.0497 9.23056L16.6101 9.01617C15.9762 7.35913 15.1846 5.94864 14.2318 4.78999L13.7683 5.17107ZM16.0497 9.23056C16.6656 10.8404 17.0191 12.3588 17.1156 13.7869L17.7142 13.7465C17.6131 12.2486 17.2433 10.6714 16.6101 9.01617L16.0497 9.23056ZM17.5885 14.0113C18.2961 13.5092 19.1818 13.0591 20.2511 12.6645L20.0433 12.1016C18.9379 12.5096 18.0021 12.982 17.2413 13.5221L17.5885 14.0113ZM20.2511 12.6645C21.3182 12.2706 22.2754 12.0553 23.1251 12.0106L23.0936 11.4114C22.1685 11.4601 21.1509 11.6928 20.0433 12.1016L20.2511 12.6645ZM23.1235 12.0107L24.065 11.9664L24.0368 11.367L23.0953 11.4114L23.1235 12.0107ZM23.7512 11.6532L23.7069 12.6402L24.3063 12.6672L24.3506 11.6802L23.7512 11.6532ZM23.7068 12.6425C23.6478 14.2285 23.4013 15.6437 22.9716 16.8913L23.5389 17.0867C23.9911 15.7739 24.2456 14.2989 24.3063 12.6648L23.7068 12.6425ZM22.9716 16.8913C22.5416 18.1396 21.9347 19.2301 21.1525 20.166L21.6129 20.5507C22.4454 19.5547 23.0869 18.3989 23.5389 17.0867L22.9716 16.8913ZM21.1525 20.166C20.3689 21.1036 19.4135 21.9021 18.2835 22.5609L18.5856 23.0792C19.7718 22.3877 20.7819 21.5451 21.6129 20.5507L21.1525 20.166ZM18.2835 22.5609C17.1518 23.2206 15.8333 23.7565 14.3251 24.1662L14.4824 24.7452C16.0324 24.3242 17.4011 23.7697 18.5856 23.0792L18.2835 22.5609ZM14.6891 23.2552C14.4721 19.9806 13.4974 17.4598 11.7264 15.739L11.3083 16.1694C12.9394 17.7542 13.8796 20.1139 14.0904 23.2949L14.6891 23.2552ZM11.7264 15.739C9.97716 14.0393 7.80371 12.9928 5.21866 12.5952L5.12745 13.1882C7.5995 13.5684 9.65561 14.5635 11.3083 16.1694L11.7264 15.739ZM4.87367 12.911C5.09056 16.2826 6.09488 18.8462 7.92999 20.5491L8.33812 20.1093C6.65301 18.5456 5.68332 16.1508 5.47243 12.8724L4.87367 12.911ZM7.92999 20.5491C9.73593 22.225 11.8784 23.2334 14.349 23.5722L14.4305 22.9778C12.0804 22.6555 10.0524 21.7001 8.33812 20.1093L7.92999 20.5491ZM14.2643 17.5347C14.5172 17.0642 14.844 16.5682 15.2467 16.0465L14.7717 15.6799C14.3531 16.2222 14.0071 16.7459 13.7358 17.2507L14.2643 17.5347ZM15.2469 16.0463C15.6457 15.5286 16.0526 15.0995 16.4666 14.7559L16.0835 14.2942C15.6295 14.6708 15.1925 15.1337 14.7716 15.6801L15.2469 16.0463ZM16.575 14.5229C16.5663 13.2924 16.3569 12.0132 15.9506 10.6863L15.3769 10.862C15.7685 12.1408 15.9667 13.3621 15.9751 14.5272L16.575 14.5229ZM15.9506 10.6863C15.5444 9.36017 14.98 8.09061 14.2578 6.87802L13.7423 7.18504C14.4403 8.35711 14.985 9.58267 15.3769 10.862L15.9506 10.6863ZM13.7423 6.87802C13.0201 8.09061 12.4557 9.36017 12.0495 10.6863L12.6232 10.862C13.0151 9.58267 13.5598 8.35711 14.2578 7.18504L13.7423 6.87802ZM12.0495 10.6863C11.6432 12.0132 11.4338 13.2924 11.4251 14.5229L12.025 14.5272C12.0334 13.3621 12.2316 12.1408 12.6232 10.862L12.0495 10.6863ZM11.5332 14.7557C11.9471 15.0998 12.3514 15.5287 12.7454 16.0451L13.2224 15.6812C12.8059 15.1353 12.371 14.672 11.9169 14.2944L11.5332 14.7557ZM12.7452 16.045C13.1435 16.5679 13.4741 17.0655 13.7382 17.5379L14.2619 17.2451C13.9816 16.7438 13.6347 16.2225 13.2225 15.6814L12.7452 16.045ZM15.6537 23.1696C16.5878 22.8537 17.483 22.4364 18.3391 21.9182L18.0284 21.4049C17.2091 21.9009 16.3535 22.2995 15.4615 22.6012L15.6537 23.1696ZM18.3388 21.9183C19.2071 21.394 19.9826 20.7232 20.6654 19.9082L20.2054 19.5229C19.5629 20.2899 18.8373 20.9164 18.0286 21.4047L18.3388 21.9183ZM20.6651 19.9084C21.3533 19.0887 21.9132 18.1044 22.348 16.9603L21.7871 16.7471C21.3725 17.8383 20.8443 18.7619 20.2056 19.5226L20.6651 19.9084ZM22.348 16.9601C22.7855 15.8075 23.0426 14.455 23.1255 12.9077L22.5263 12.8756C22.4459 14.3773 22.1974 15.6661 21.7871 16.7472L22.348 16.9601ZM22.7831 12.5948C20.8504 12.8735 19.1257 13.5544 17.6144 14.6395L17.9644 15.1269C19.3931 14.1011 21.0261 13.4544 22.8687 13.1886L22.7831 12.5948ZM17.6144 14.6395C16.1037 15.7242 15.0068 17.0607 14.334 18.6488L14.8865 18.8829C15.5126 17.405 16.5351 16.1531 17.9644 15.1269L17.6144 14.6395ZM14.3293 18.8712C14.5583 19.4818 14.7463 20.0978 14.8935 20.7192L15.4773 20.5809C15.3242 19.9345 15.1288 19.2943 14.8911 18.6605L14.3293 18.8712ZM14.8935 20.7192C15.0401 21.3385 15.1624 22.0714 15.2595 22.9195L15.8556 22.8513C15.7567 21.9866 15.6309 21.2293 15.4773 20.5809L14.8935 20.7192Z" fill="#667680" mask="url(#path-1-outside-1_1103_8624)"/>
</svg>
