<svg width="28" height="28" viewBox="0 0 28 28" fill="none" xmlns="http://www.w3.org/2000/svg">
<path d="M18.6679 25.1833H18.7679V25.0833V24.3833C18.7679 23.9533 18.4101 23.5833 17.9667 23.5833H10.0345C9.58826 23.5833 9.23337 23.9422 9.23337 24.3833V25.0833V25.1833H9.33337H18.6679ZM11.445 17.6H11.545V17.5V10.4787H13.5387L16.0572 17.5336L16.0809 17.6H16.1514H17.5467H17.6172L17.6409 17.5336L20.5751 9.31329L20.6227 9.17967H20.4809H19.1194H19.0471L19.0244 9.24826L16.8579 15.7974L14.697 9.24834L14.6743 9.17967H14.602H7.65104H7.55104V9.27967V10.3787V10.4787H7.65104H10.0687V17.5V17.6H10.1687H11.445ZM3.83337 20.6667V6.16667H24.1667V20.6667H3.83337ZM2.60437 4.93767C2.36683 5.17522 2.23337 5.4974 2.23337 5.83334V21C2.23337 21.3359 2.36683 21.6581 2.60437 21.8957C2.84192 22.1332 3.1641 22.2667 3.50004 22.2667H24.5C24.836 22.2667 25.1582 22.1332 25.3957 21.8957C25.6333 21.6581 25.7667 21.3359 25.7667 21V5.83334C25.7667 5.4974 25.6333 5.17522 25.3957 4.93767C25.1582 4.70012 24.836 4.56667 24.5 4.56667H3.50004C3.1641 4.56667 2.84192 4.70012 2.60437 4.93767Z" fill="#667680" stroke="#667680" stroke-width="0.2"/>
</svg>
