<svg width="19" height="19" viewBox="0 0 19 19" fill="none" xmlns="http://www.w3.org/2000/svg">
<path d="M17.3953 15.5862C16.3778 13.8003 14.7888 12.4087 12.8843 11.6355C13.8314 10.9252 14.531 9.93492 14.884 8.8049C15.237 7.67488 15.2255 6.46244 14.8511 5.33932C14.4767 4.21621 13.7585 3.23935 12.7981 2.54713C11.8377 1.85491 10.6838 1.48242 9.49993 1.48242C8.31606 1.48242 7.16221 1.85491 6.2018 2.54713C5.2414 3.23935 4.52314 4.21621 4.14877 5.33932C3.77439 6.46244 3.76289 7.67488 4.11588 8.8049C4.46887 9.93492 5.16846 10.9252 6.11556 11.6355C4.21105 12.4087 2.62211 13.8003 1.60454 15.5862C1.54149 15.6876 1.49947 15.8006 1.48097 15.9186C1.46247 16.0365 1.46788 16.157 1.49687 16.2728C1.52586 16.3886 1.57784 16.4974 1.64972 16.5928C1.7216 16.6881 1.81191 16.768 1.91529 16.8277C2.01867 16.8875 2.133 16.9258 2.25149 16.9404C2.36998 16.9551 2.49021 16.9458 2.60503 16.9131C2.71984 16.8803 2.82691 16.8248 2.91985 16.7499C3.0128 16.675 3.08973 16.5821 3.14607 16.4768C4.49091 14.1523 6.86591 12.7659 9.49993 12.7659C12.134 12.7659 14.509 14.153 15.8538 16.4768C15.9759 16.6732 16.1696 16.8143 16.3938 16.8705C16.6181 16.9266 16.8555 16.8933 17.0556 16.7777C17.2558 16.662 17.4032 16.473 17.4666 16.2507C17.53 16.0283 17.5044 15.7901 17.3953 15.5862ZM5.64056 7.12527C5.64056 6.36196 5.86691 5.61579 6.29098 4.98112C6.71505 4.34645 7.31781 3.85178 8.02301 3.55968C8.72822 3.26757 9.50421 3.19114 10.2529 3.34006C11.0015 3.48897 11.6892 3.85654 12.2289 4.39628C12.7687 4.93603 13.1362 5.6237 13.2852 6.37235C13.4341 7.12099 13.3576 7.89698 13.0655 8.60219C12.7734 9.3074 12.2788 9.91015 11.6441 10.3342C11.0094 10.7583 10.2632 10.9846 9.49993 10.9846C8.47673 10.9835 7.49576 10.5765 6.77224 9.85296C6.04873 9.12944 5.64174 8.14848 5.64056 7.12527Z" fill="#4DA3FF"/>
</svg>
