<svg width="24" height="24" viewBox="0 0 24 24" fill="none" xmlns="http://www.w3.org/2000/svg">
<path fill-rule="evenodd" clip-rule="evenodd" d="M20.924 11.75H18.23C16.806 11.75 15.749 12.809 15.749 14C15.749 15.191 16.806 16.25 18.229 16.25H20.947C21.153 16.237 21.242 16.098 21.249 16.014V11.986C21.242 11.902 21.153 11.763 20.947 11.751L20.924 11.75ZM20.85 10.25C20.9167 10.2494 20.98 10.2507 21.04 10.254C21.91 10.307 22.681 10.964 22.746 11.882C22.75 11.942 22.75 12.007 22.75 12.067V15.933C22.75 15.993 22.75 16.058 22.746 16.118C22.681 17.036 21.91 17.693 21.039 17.747C20.9797 17.7497 20.9163 17.7507 20.849 17.75H18.231C16.086 17.75 14.25 16.122 14.25 14C14.25 11.878 16.086 10.25 18.23 10.25H20.85Z" fill="#3A7ABF"/>
<path d="M19 14C19 14.2652 18.8946 14.5196 18.7071 14.7071C18.5196 14.8946 18.2652 15 18 15C17.7348 15 17.4804 14.8946 17.2929 14.7071C17.1054 14.5196 17 14.2652 17 14C17 13.7348 17.1054 13.4804 17.2929 13.2929C17.4804 13.1054 17.7348 13 18 13C18.2652 13 18.5196 13.1054 18.7071 13.2929C18.8946 13.4804 19 13.7348 19 14Z" fill="#3A7ABF"/>
<path fill-rule="evenodd" clip-rule="evenodd" d="M20.85 10.2495C20.9167 10.2489 20.98 10.2502 21.04 10.2535C21.265 10.2665 21.483 10.3205 21.685 10.4095C21.578 8.80354 21.283 7.56554 20.359 6.64054C19.61 5.89254 18.661 5.56054 17.489 5.40254L17.447 5.39754L17.415 5.37454L13.679 2.89754C13.0308 2.47498 12.2738 2.25 11.5 2.25C10.7262 2.25 9.96918 2.47498 9.321 2.89754L5.586 5.37454L5.553 5.39754L5.511 5.40254C4.339 5.56054 3.39 5.89254 2.641 6.64054C1.893 7.38954 1.561 8.33854 1.403 9.51054C1.25 10.6505 1.25 12.1055 1.25 13.9435V14.0555C1.25 15.8935 1.25 17.3495 1.403 18.4885C1.561 19.6605 1.893 20.6095 2.641 21.3585C3.39 22.1065 4.339 22.4385 5.511 22.5965C6.651 22.7495 8.106 22.7495 9.944 22.7495H13.056C14.894 22.7495 16.35 22.7495 17.489 22.5965C18.661 22.4385 19.61 22.1065 20.359 21.3585C21.283 20.4335 21.578 19.1955 21.685 17.5885C21.4817 17.6792 21.2663 17.7319 21.039 17.7465C20.9797 17.7492 20.9163 17.7502 20.849 17.7495H20.168C20.054 19.0915 19.797 19.7995 19.298 20.2975C18.875 20.7205 18.295 20.9745 17.289 21.1095C16.262 21.2475 14.907 21.2495 13 21.2495H10C8.093 21.2495 6.739 21.2475 5.71 21.1095C4.705 20.9745 4.125 20.7205 3.702 20.2975C3.279 19.8745 3.025 19.2945 2.89 18.2885C2.752 17.2615 2.75 15.9065 2.75 13.9995C2.75 12.0925 2.752 10.7385 2.89 9.70954C3.025 8.70454 3.279 8.12454 3.702 7.70154C4.125 7.27854 4.705 7.02454 5.711 6.88954C6.739 6.75154 8.093 6.74954 10 6.74954H13C14.907 6.74954 16.262 6.75154 17.29 6.88954C18.295 7.02454 18.875 7.27854 19.298 7.70154C19.797 8.19954 20.054 8.90854 20.168 10.2495H20.85ZM9.944 5.24954H13.056C13.5727 5.24954 14.0593 5.25054 14.516 5.25254L12.85 4.14754C12.05 3.61754 10.95 3.61754 10.15 4.14754L8.483 5.25254C8.94033 5.24987 9.427 5.24887 9.943 5.24954" fill="#3A7ABF"/>
<path d="M6 9.25C5.80109 9.25 5.61032 9.32902 5.46967 9.46967C5.32902 9.61032 5.25 9.80109 5.25 10C5.25 10.1989 5.32902 10.3897 5.46967 10.5303C5.61032 10.671 5.80109 10.75 6 10.75H10C10.1989 10.75 10.3897 10.671 10.5303 10.5303C10.671 10.3897 10.75 10.1989 10.75 10C10.75 9.80109 10.671 9.61032 10.5303 9.46967C10.3897 9.32902 10.1989 9.25 10 9.25H6Z" fill="#3A7ABF"/>
<path d="M19 14C19 14.2652 18.8946 14.5196 18.7071 14.7071C18.5196 14.8946 18.2652 15 18 15C17.7348 15 17.4804 14.8946 17.2929 14.7071C17.1054 14.5196 17 14.2652 17 14C17 13.7348 17.1054 13.4804 17.2929 13.2929C17.4804 13.1054 17.7348 13 18 13C18.2652 13 18.5196 13.1054 18.7071 13.2929C18.8946 13.4804 19 13.7348 19 14Z" fill="#3A7ABF"/>
</svg>
