<svg width="27" height="27" viewBox="0 0 27 27" fill="none" xmlns="http://www.w3.org/2000/svg">
<path d="M16.0838 13.329L13.0392 11.9083C12.7735 11.785 12.5552 11.9232 12.5552 12.2174V14.8933C12.5552 15.1874 12.7735 15.3257 13.0392 15.2023L16.0824 13.7817C16.3494 13.657 16.3494 13.4537 16.0838 13.329ZM13.9108 0.541992C6.72364 0.541992 0.897461 6.36817 0.897461 13.5553C0.897461 20.7425 6.72364 26.5687 13.9108 26.5687C21.098 26.5687 26.9241 20.7425 26.9241 13.5553C26.9241 6.36817 21.098 0.541992 13.9108 0.541992ZM13.9108 18.842C7.2496 18.842 7.13302 18.2415 7.13302 13.5553C7.13302 8.86917 7.2496 8.26866 13.9108 8.26866C20.572 8.26866 20.6886 8.86917 20.6886 13.5553C20.6886 18.2415 20.572 18.842 13.9108 18.842Z" fill="#254262"/>
</svg>
