<svg width="20" height="20" viewBox="0 0 20 20" fill="none" xmlns="http://www.w3.org/2000/svg">
<g clip-path="url(#clip0_1103_8456)">
<path d="M8.33333 15.8334V19.5834M8.33333 15.8334C8.33333 12.5 10.9725 7.66169 14.2192 4.95585L15.4167 3.95835V3.75002H11.2733M8.33333 15.8334C8.33333 12.5 5.69417 7.66169 2.4475 4.95585L1.25 3.95835V3.75002H11.2733M8.33333 19.5834H4.16667M8.33333 19.5834H12.5M11.2733 3.75002C11.3538 3.03059 11.6407 2.34982 12.0995 1.78988C12.5584 1.22994 13.1695 0.814781 13.8591 0.594506C14.5486 0.374231 15.2872 0.358261 15.9857 0.548524C16.6842 0.738787 17.3126 1.12715 17.7952 1.66673C18.2778 2.20631 18.5939 2.87404 18.7054 3.58933C18.8169 4.30461 18.7189 5.03686 18.4233 5.6977C18.1278 6.35853 17.6473 6.91969 17.0398 7.31344C16.4324 7.7072 15.7239 7.91671 15 7.91669M4.58333 7.08335H12.0833" stroke="#667680" stroke-width="1.6"/>
</g>
<defs>
<clipPath id="clip0_1103_8456">
<rect width="20" height="20" fill="white"/>
</clipPath>
</defs>
</svg>
