<svg width="32" height="32" viewBox="0 0 32 32" fill="none" xmlns="http://www.w3.org/2000/svg">
<path d="M10.5134 23.3333H13.18V18.256H14.5134V14.8213C14.5134 14.2586 14.3205 13.7844 13.9347 13.3986C13.5489 13.0129 13.0752 12.8204 12.5134 12.8213H11.18C10.6174 12.8213 10.1432 13.0138 9.75737 13.3986C9.37249 13.7844 9.18004 14.2586 9.18004 14.8213V18.256H10.5134V23.3333ZM11.8467 11.5893C12.2449 11.5893 12.5792 11.4538 12.8494 11.1826C13.1196 10.9115 13.2552 10.5769 13.256 10.1786C13.2569 9.78042 13.1214 9.4462 12.8494 9.17598C12.5774 8.90576 12.2427 8.7702 11.8454 8.76931C11.448 8.76842 11.1138 8.90398 10.8427 9.17598C10.5716 9.44798 10.436 9.7822 10.436 10.1786C10.436 10.5778 10.5716 10.9124 10.8427 11.1826C11.1138 11.4529 11.448 11.5884 11.8454 11.5893M18.2827 14H22.5387L20.4107 10.5893L18.2827 14ZM20.4107 21.4106L22.5387 18H18.2827L20.4107 21.4106ZM7.48804 26.6666C6.87382 26.6666 6.36137 26.4613 5.95071 26.0506C5.54004 25.64 5.33426 25.1271 5.33337 24.512V7.48798C5.33337 6.87376 5.53915 6.36131 5.95071 5.95065C6.36226 5.53998 6.87471 5.3342 7.48804 5.33331H24.5134C25.1267 5.33331 25.6392 5.53909 26.0507 5.95065C26.4623 6.3622 26.6676 6.87465 26.6667 7.48798V24.5133C26.6667 25.1266 26.4614 25.6391 26.0507 26.0506C25.64 26.4622 25.1272 26.6675 24.512 26.6666H7.48804ZM7.48804 25.3333H24.5134C24.7525 25.3333 24.9489 25.2564 25.1027 25.1026C25.2565 24.9489 25.3334 24.7524 25.3334 24.5133V7.48665C25.3334 7.24753 25.2565 7.05109 25.1027 6.89731C24.9489 6.74354 24.7525 6.66665 24.5134 6.66665H7.48671C7.2476 6.66665 7.05115 6.74354 6.89737 6.89731C6.7436 7.05109 6.66671 7.24798 6.66671 7.48798V24.5133C6.66671 24.7524 6.7436 24.9489 6.89737 25.1026C7.05115 25.2564 7.24804 25.3333 7.48804 25.3333Z" fill="#667680"/>
</svg>
