<svg width="24" height="24" viewBox="0 0 24 24" fill="none" xmlns="http://www.w3.org/2000/svg">
<g clip-path="url(#clip0_1103_8589)">
<path d="M21.25 6V0M20 8C20 8.29667 20.088 8.58668 20.2528 8.83335C20.4176 9.08003 20.6519 9.27229 20.926 9.38582C21.2001 9.49935 21.5017 9.52906 21.7926 9.47118C22.0836 9.4133 22.3509 9.27044 22.5607 9.06066C22.7704 8.85088 22.9133 8.58361 22.9712 8.29264C23.0291 8.00166 22.9993 7.70006 22.8858 7.42597C22.7723 7.15189 22.58 6.91762 22.3334 6.7528C22.0867 6.58797 21.7967 6.5 21.5 6.5L21.25 6.25V5.5M10 20C7.79 20 6 17.985 6 15.5C6 13.015 7.79 11 10 11H10.8C13.319 11 15 10.5 17 8.5V8.25C15 8 14 7.5 14 7.5V7.25C14 7.25 15.5 6 17.25 5.5V5.25C15.724 3.223 13.401 2 10.8 2H10C8.99062 1.99922 7.9883 2.16825 7.035 2.5M10 20C7.61305 20 5.32387 19.0518 3.63604 17.364C1.94821 15.6761 1 13.3869 1 11M10 20C11.078 18.069 13.093 16.5 15.4 16.5V16.75C15.4 16.75 13.5 18 13.5 20C13.5 22 15.4 23.25 15.4 23.25V23.5C13.093 23.5 11.078 21.931 10 20ZM7.035 2.5H7C4.825 2.5 3 1 3 1H2.5C2.5 1 1 4 1 11M7.035 2.5C5.27138 3.11537 3.74292 4.26423 2.66155 5.78728C1.58019 7.31033 0.999497 9.1321 1 11M12 6V4" stroke="#667680" stroke-width="2"/>
</g>
<defs>
<clipPath id="clip0_1103_8589">
<rect width="24" height="24" fill="white"/>
</clipPath>
</defs>
</svg>
