<svg width="24" height="24" viewBox="0 0 24 24" fill="none" xmlns="http://www.w3.org/2000/svg">
<g clip-path="url(#clip0_1103_8509)">
<path d="M2.44287 23.1069C2.44909 22.5099 2.60657 21.9242 2.90059 21.4046C3.21051 20.8643 3.65657 20.4146 4.19435 20.1003C4.73213 19.786 5.34286 19.618 5.96573 19.6131C6.58831 19.6183 7.19868 19.7864 7.73613 20.1007C8.27358 20.415 8.71938 20.8645 9.02916 21.4046C9.32401 21.924 9.48001 22.5103 9.48687 23.1069M14.52 23.1069C14.5262 22.5099 14.6837 21.9242 14.9777 21.4046C15.2875 20.8645 15.7333 20.415 16.2708 20.1007C16.8082 19.7864 17.4186 19.6183 18.0412 19.6131C18.9695 19.6153 19.8596 19.983 20.5189 20.6365C21.1782 21.29 21.5537 22.1769 21.564 23.1051M8.58516 11.5166C8.5903 10.9389 8.74287 10.3714 9.02744 9.86743C9.32715 9.34275 9.75957 8.9061 10.2813 8.6013C10.8031 8.2965 11.3958 8.13426 12 8.13086C13.2172 8.13257 14.3709 8.80629 14.9709 9.86743C15.2554 10.3714 15.408 10.9389 15.4149 11.5166M5.96573 18.0566C6.48472 18.0566 6.98245 17.8504 7.34944 17.4834C7.71642 17.1164 7.92259 16.6187 7.92259 16.0997C7.92259 15.5807 7.71642 15.083 7.34944 14.716C6.98245 14.349 6.48472 14.1429 5.96573 14.1429C5.44674 14.1429 4.949 14.349 4.58202 14.716C4.21504 15.083 4.00887 15.5807 4.00887 16.0997C4.00887 16.6187 4.21504 17.1164 4.58202 17.4834C4.949 17.8504 5.44674 18.0566 5.96573 18.0566ZM18.0429 18.0566C18.5619 18.0566 19.0596 17.8504 19.4266 17.4834C19.7936 17.1164 19.9997 16.6187 19.9997 16.0997C19.9997 15.5807 19.7936 15.083 19.4266 14.716C19.0596 14.349 18.5619 14.1429 18.0429 14.1429C17.5239 14.1429 17.0261 14.349 16.6592 14.716C16.2922 15.083 16.086 15.5807 16.086 16.0997C16.086 16.6187 16.2922 17.1164 16.6592 17.4834C17.0261 17.8504 17.5239 18.0566 18.0429 18.0566ZM11.9983 6.93771C12.4825 6.93771 12.9469 6.74536 13.2893 6.40297C13.6317 6.06059 13.824 5.59621 13.824 5.112C13.824 4.62779 13.6317 4.16341 13.2893 3.82102C12.9469 3.47864 12.4825 3.28629 11.9983 3.28629C11.5141 3.28629 11.0497 3.47864 10.7073 3.82102C10.3649 4.16341 10.1726 4.62779 10.1726 5.112C10.1726 5.59621 10.3649 6.06059 10.7073 6.40297C11.0497 6.74536 11.5141 6.93771 11.9983 6.93771Z" stroke="#667680" stroke-width="2" stroke-linecap="round" stroke-linejoin="round"/>
<path d="M20.1977 0.934296H3.80227C3.4761 0.9352 3.16356 1.06517 2.93292 1.2958C2.70229 1.52644 2.57232 1.83899 2.57141 2.16515V10.2857C2.57141 10.9663 3.12341 11.5166 3.80227 11.5166H20.1977C20.5239 11.5157 20.8364 11.3857 21.067 11.1551C21.2977 10.9244 21.4276 10.6119 21.4286 10.2857V2.16515C21.4276 1.83899 21.2977 1.52644 21.067 1.2958C20.8364 1.06517 20.5239 0.9352 20.1977 0.934296Z" stroke="#667680" stroke-width="2" stroke-linecap="round" stroke-linejoin="round"/>
</g>
<defs>
<clipPath id="clip0_1103_8509">
<rect width="24" height="24" fill="white"/>
</clipPath>
</defs>
</svg>
