<svg width="24" height="24" viewBox="0 0 24 24" fill="none" xmlns="http://www.w3.org/2000/svg">
<path d="M1.46877 8.83019L1.46862 8.83049C1.28531 9.20181 1.11825 9.55238 0.996815 9.81766C0.936169 9.95014 0.886454 10.0623 0.851678 10.1456C0.834374 10.187 0.820128 10.2228 0.809969 10.251C0.80494 10.265 0.800253 10.2789 0.79663 10.2917L0.7965 10.2922C0.794184 10.3003 0.7875 10.3239 0.7875 10.35C0.7875 10.5575 0.896183 10.7436 1.03872 10.8692C1.18047 10.9941 1.37621 11.0772 1.5743 11.0521C1.65518 11.0422 1.74022 11.0281 1.82435 10.9819C1.90904 10.9355 1.97908 10.8647 2.05042 10.7661C2.18814 10.5758 2.36354 10.2334 2.67438 9.62103L2.67479 9.62022C2.87604 9.21773 3.02695 8.92998 3.13156 8.74605C3.16518 8.68694 3.19316 8.64007 3.21585 8.60429C3.23227 8.61498 3.2505 8.6269 3.27047 8.64C3.36967 8.70506 3.50996 8.798 3.68106 8.91167C3.81124 8.99816 3.95923 9.09665 4.1203 9.20382C4.38212 9.37804 4.67846 9.57524 4.98894 9.78125C5.65909 10.2265 6.12947 10.5346 6.44671 10.7327C6.6051 10.8316 6.72754 10.9045 6.81866 10.9537C6.86411 10.9782 6.90405 10.9981 6.93813 11.0125C6.96738 11.0249 7.00488 11.039 7.04277 11.0429C7.24174 11.0676 7.43682 10.9809 7.5769 10.8575C7.71752 10.7336 7.82813 10.5502 7.82813 10.35C7.82813 10.2708 7.82492 10.1803 7.76544 10.0772C7.71155 9.98373 7.61795 9.891 7.47318 9.77482C7.18178 9.54099 6.61865 9.16342 5.53946 8.44396L5.53894 8.44362L3.47245 7.07826L2.78729 5.70793L2.78729 5.70793L2.78704 5.70744C2.52942 5.19689 2.34538 4.83816 2.21373 4.59977C2.14804 4.48082 2.0937 4.38871 2.04856 4.32156C2.02599 4.28799 2.00415 4.25828 1.98292 4.23367C1.96342 4.21107 1.93813 4.18525 1.90709 4.16623C1.68563 4.02692 1.40475 4.01368 1.17836 4.1322C1.06284 4.1904 0.967404 4.29286 0.901614 4.3984C0.83597 4.5037 0.7875 4.63195 0.7875 4.75314C0.7875 4.77847 0.793465 4.80125 0.796081 4.811C0.799725 4.82459 0.804466 4.83918 0.809564 4.85371C0.819838 4.88299 0.834207 4.91949 0.851567 4.96128C0.886455 5.04525 0.936271 5.15735 0.99692 5.28924C1.11838 5.55339 1.28542 5.90156 1.46859 6.2726C1.4686 6.27262 1.46861 6.27264 1.46862 6.27267L2.10139 7.55603L1.46877 8.83019Z" fill="#667680" stroke="#667680" stroke-width="0.3"/>
<path d="M21.2225 5.69774L21.2221 5.69853L20.5275 7.08775L18.4702 8.45313L18.4702 8.45314C17.3863 9.17265 16.823 9.55029 16.5325 9.78436C16.3881 9.90068 16.2952 9.99366 16.2421 10.0876C16.1836 10.1909 16.1813 10.2815 16.1813 10.3594C16.1813 10.5595 16.2919 10.7429 16.4325 10.8668C16.5726 10.9903 16.7677 11.0769 16.9667 11.0522C17.0045 11.0483 17.042 11.0343 17.0713 11.0219C17.1054 11.0074 17.1453 10.9876 17.1908 10.963C17.2819 10.9139 17.4043 10.841 17.5627 10.7421C17.88 10.5439 18.3504 10.2358 19.0206 9.79056L19.0213 9.79006C19.5226 9.45276 19.9863 9.14362 20.3281 8.9177C20.499 8.80472 20.6392 8.7127 20.7383 8.64845C20.7581 8.63558 20.7763 8.62388 20.7926 8.61337C20.8146 8.64836 20.8416 8.69403 20.8742 8.75161C20.9778 8.93467 21.1288 9.22263 21.3349 9.63018L21.335 9.63038C21.6459 10.2428 21.8213 10.5851 21.959 10.7754C22.0303 10.874 22.1004 10.9449 22.1851 10.9913C22.269 11.0373 22.3539 11.0515 22.4346 11.0613C22.6348 11.0869 22.8288 10.9996 22.9684 10.874C23.1084 10.7479 23.2156 10.564 23.2219 10.364L23.2219 10.3641V10.3594C23.2219 10.334 23.216 10.3113 23.2133 10.3015C23.2097 10.2879 23.205 10.2733 23.1999 10.2588C23.1896 10.2295 23.1752 10.193 23.1579 10.1512C23.123 10.0673 23.0732 9.95516 23.0125 9.82326C22.891 9.5591 22.724 9.2109 22.5408 8.83984L22.5407 8.83953L21.908 7.56538L22.5408 6.28201C22.5408 6.28199 22.5408 6.28197 22.5408 6.28195C22.724 5.91091 22.891 5.56274 23.0125 5.29859C23.0732 5.16669 23.123 5.0546 23.1579 4.97062C23.1752 4.92884 23.1896 4.89233 23.1999 4.86305C23.205 4.84852 23.2097 4.83394 23.2133 4.82035C23.216 4.8106 23.2219 4.78782 23.2219 4.76249C23.2219 4.57451 23.1211 4.39559 22.994 4.26853C22.8669 4.14147 22.688 4.04061 22.5 4.04061C22.4097 4.04061 22.2657 4.07451 22.1599 4.13199C22.046 4.18679 21.9705 4.28185 21.8521 4.4872C21.73 4.69903 21.5449 5.06232 21.2225 5.69774ZM21.4688 9.56249C22.0969 10.8 22.1438 10.875 22.4532 10.9125L20.8219 8.41874C20.8594 8.39999 21.0563 8.74686 21.4688 9.56249Z" fill="#667680" stroke="#667680" stroke-width="0.3"/>
<path d="M13.547 19.8926L13.5484 19.8924C16.8867 19.4371 19.5898 17.813 21.2755 15.2321C21.521 14.8567 21.8271 14.2554 22.071 13.7088C22.1933 13.4347 22.3012 13.1714 22.3789 12.954C22.4177 12.8454 22.4496 12.7465 22.472 12.6625C22.4934 12.5819 22.5094 12.5035 22.5094 12.4406C22.5094 12.32 22.4554 12.1948 22.3895 12.0953C22.3225 11.994 22.2279 11.8963 22.1202 11.8393L22.05 11.9719L22.1206 11.8395C22.014 11.7827 21.9003 11.7655 21.5465 11.7563C21.1848 11.7469 20.5413 11.7469 19.3463 11.7469H19.3406H19.3351C18.1494 11.7469 17.5059 11.7469 17.1418 11.7563C16.7865 11.7655 16.6675 11.7825 16.5607 11.8395L16.5607 11.8395L16.5594 11.8402C16.4812 11.8828 16.4145 11.9509 16.3497 12.0348C16.2842 12.1195 16.2125 12.2313 16.1276 12.3728L16.1276 12.3728L16.1264 12.3749C15.4129 13.6097 14.4031 14.4167 13.1417 14.7615L13.1415 14.7616C12.9577 14.8122 12.843 14.8377 12.6927 14.8518C12.538 14.8663 12.3438 14.8687 12 14.8687C11.6562 14.8687 11.462 14.8663 11.3073 14.8518C11.157 14.8377 11.0423 14.8122 10.8585 14.7616L10.8575 14.7613C10.0775 14.5527 9.3498 14.1256 8.77645 13.5706C8.38466 13.1879 8.16792 12.8993 7.87399 12.3849L7.874 12.3849L7.87273 12.3828C7.78279 12.2313 7.70845 12.1167 7.64126 12.0314C7.57438 11.9465 7.50842 11.8826 7.4325 11.8409C7.32832 11.7818 7.20493 11.7654 6.85231 11.7563C6.48709 11.7469 5.84127 11.7469 4.65549 11.7469H4.65059C3.4568 11.7375 2.81404 11.7351 2.45233 11.7446C2.09725 11.7539 1.98521 11.7737 1.87941 11.8301L1.95 11.9625L1.87982 11.8299C1.77053 11.8878 1.67589 11.9891 1.60948 12.0921C1.54405 12.1936 1.49062 12.3207 1.49062 12.4406C1.49062 12.5028 1.50696 12.581 1.52858 12.6608C1.55119 12.7443 1.58341 12.843 1.62257 12.9516C1.70097 13.169 1.80976 13.4331 1.93261 13.7077C2.17751 14.2552 2.48366 14.8567 2.72461 15.2229C4.43892 17.8419 7.2084 19.4751 10.6028 19.9113C11.2734 19.9975 12.8707 19.9783 13.547 19.8926ZM4.8 13.1719H6.49589C6.91076 15.196 7.48901 16.5751 8.41659 17.6748L8.41696 17.6753C8.51819 17.7944 8.65718 17.944 8.78842 18.0736C6.29962 17.2944 4.31555 15.5739 3.2774 13.2978L3.22144 13.1719H4.8ZM19.125 13.1719H20.7692L20.7136 13.297C20.7135 13.2972 20.7134 13.2974 20.7133 13.2977C20.0677 14.7082 18.9886 15.9983 17.7851 16.8067L17.7849 16.8069C17.0231 17.3208 15.8867 17.8111 14.8705 18.0606L14.8703 18.0606C14.0846 18.2547 13.593 18.3181 12.8228 18.2814L12.8209 18.2813C11.5148 18.2357 10.651 17.874 9.79855 17.0489C9.28778 16.5461 8.8837 15.9483 8.56776 15.2396C9.24519 15.7064 9.98454 16.0181 10.7974 16.1874C11.1679 16.2654 11.4138 16.2844 12 16.2844C12.5863 16.2844 12.8322 16.2654 13.2028 16.1874C14.8461 15.8414 16.2776 14.8326 17.1615 13.4202L17.162 13.4194L17.3149 13.1719H19.125Z" fill="#667680" stroke="#667680" stroke-width="0.3"/>
</svg>
