<svg width="24" height="24" viewBox="0 0 24 24" fill="none" xmlns="http://www.w3.org/2000/svg">
<path d="M14.014 22.684H14.3762L14.3134 22.6212C14.4183 22.5837 14.5179 22.5256 14.6053 22.4446C14.9744 22.1106 15.0121 21.5466 14.6755 21.1737C13.3881 19.7426 12.7854 18.5244 12.5512 17.5381C12.3496 16.6889 12.4197 16.0053 12.5682 15.4968C13.6518 16.5479 15.2101 16.7728 16.2378 16.7076L17.7827 17.893L17.7823 17.8935L17.7941 17.9009C18.5876 18.4009 19.6238 18.2085 20.1624 17.4763L21.5096 15.8497L21.5097 15.8498L21.514 15.844C22.0669 15.1069 22.0143 14.0454 21.3832 13.3812C21.3831 13.381 21.3829 13.3808 21.3827 13.3806L20.1036 12.0116L20.1033 12.0112C19.6446 11.5239 19.3278 10.8721 19.2223 10.1813L19.2222 10.1805C19.0158 8.88053 18.2056 7.70333 17.5294 7.05716L17.0254 6.54442L17.8563 4.06159L17.8563 4.06161L17.8575 4.05767C17.9411 3.78308 17.8931 3.48533 17.7269 3.24797C17.5665 3.01883 17.2718 2.83996 16.9841 2.87406C16.8739 2.87529 16.1952 2.89702 15.3848 3.1548C14.5611 3.41683 13.5872 3.92752 12.9456 4.92302C9.36546 5.33604 6.65246 6.95774 4.83674 9.77141C3.0135 12.5967 2.10403 16.6097 2.10403 21.774C2.10403 22.2668 2.51119 22.674 3.00403 22.674C3.49687 22.674 3.90403 22.2668 3.90403 21.774C3.90403 16.9315 4.70519 13.2902 6.31018 10.7951C7.90937 8.30915 10.3168 6.94527 13.5758 6.67353C13.9002 6.64924 14.1875 6.44585 14.3202 6.15699C14.6032 5.55198 15.1287 5.19331 15.6546 4.97958L15.1517 6.49656C15.0451 6.8164 15.115 7.16636 15.3571 7.40915L16.2562 8.33831L16.2562 8.33834L16.2591 8.34119C16.7161 8.78845 17.3026 9.62059 17.4358 10.467C17.5945 11.5112 18.0644 12.4833 18.7843 13.2562L18.7848 13.2568L20.0748 14.6268L20.0748 14.6269L20.078 14.6301C20.0918 14.6439 20.1042 14.6697 20.107 14.704C20.1084 14.7201 20.1072 14.7347 20.1049 14.7457C20.1037 14.7511 20.1025 14.7546 20.1018 14.7565L18.7601 16.3764C18.7599 16.3766 18.7597 16.3769 18.7595 16.3771C18.7582 16.3786 18.7569 16.38 18.7555 16.3813L17.057 15.0762C16.8629 14.9194 16.6208 14.8598 16.3818 14.8957L16.3818 14.8955L16.3746 14.8969C16.3749 14.8968 16.3742 14.897 16.3724 14.8973C16.371 14.8975 16.3688 14.8978 16.3659 14.8983C16.3598 14.8992 16.3513 14.9004 16.3407 14.9017C16.3194 14.9044 16.2901 14.9077 16.2537 14.9109C16.1809 14.9174 16.0804 14.9237 15.9601 14.9251C15.7188 14.928 15.4006 14.9113 15.0658 14.8387C14.3958 14.6934 13.6797 14.3305 13.3544 13.4711C13.2476 13.1865 13.0083 12.9682 12.7044 12.9071C12.5579 12.876 12.406 12.8816 12.2621 12.9232C12.1193 12.9646 11.9889 13.0404 11.8821 13.1439C11.8783 13.1473 11.8757 13.1499 11.8751 13.1505L11.875 13.1506L11.863 13.1627C11.8541 13.1719 11.8424 13.1843 11.8284 13.1999C11.8004 13.231 11.7621 13.2755 11.7165 13.3329C11.6252 13.4478 11.5039 13.6152 11.3758 13.8321C11.1197 14.2657 10.8355 14.8987 10.7108 15.7061C10.4603 17.3281 10.8579 19.6217 13.342 22.3838C13.5225 22.588 13.7644 22.684 14.014 22.684Z" fill="#667680" stroke="#667680" stroke-width="0.3"/>
</svg>
