<svg width="32" height="24" viewBox="0 0 32 24" fill="none" xmlns="http://www.w3.org/2000/svg">
<g clip-path="url(#clip0_1103_8475)">
<path d="M0.337623 16.9859C0.112541 17.4826 0 17.9988 0 18.5343V19.3726C0 19.9624 0.159109 20.5018 0.477328 20.9908C0.795547 21.4798 1.22243 21.8446 1.75797 22.0852C1.99857 22.6207 2.36336 23.0476 2.85233 23.3658C3.3413 23.684 3.88072 23.8431 4.47059 23.8431C5.00613 23.8431 5.50286 23.7112 5.96078 23.4473C6.41871 23.1834 6.7835 22.8186 7.05515 22.3529H15.2978C15.5694 22.8186 15.9342 23.1834 16.3922 23.4473C16.8501 23.7112 17.3468 23.8431 17.8824 23.8431C18.4179 23.8431 18.9146 23.7112 19.3725 23.4473C19.8305 23.1834 20.1953 22.8186 20.4669 22.3529H22.3529C22.5625 22.3529 22.7565 22.3141 22.935 22.2365C23.1136 22.1589 23.2688 22.0541 23.4007 21.9222C23.5327 21.7902 23.6413 21.6311 23.7267 21.4449C23.8121 21.2586 23.8509 21.0645 23.8431 20.8627V17.8824C23.8431 17.2614 23.7267 16.6793 23.4939 16.136C23.261 15.5927 22.9428 15.1193 22.5392 14.7157C22.1356 14.3121 21.6622 13.9939 21.1189 13.761C20.5756 13.5282 19.9935 13.4118 19.3725 13.4118H18.9418L15.1232 9.59314C14.9136 9.38358 14.673 9.22447 14.4013 9.11581C14.1297 9.00715 13.8425 8.94894 13.5398 8.94118H2.98039V10.4314H3.31801L0.337623 16.9859ZM8.94118 10.4314V13.4118H3.59743L4.75 10.8621C4.81209 10.7302 4.90523 10.6254 5.02941 10.5478C5.15359 10.4702 5.28942 10.4314 5.43689 10.4314H8.94118ZM13.5398 10.4314C13.7416 10.4314 13.9163 10.5051 14.0637 10.6526L16.8229 13.4118H10.4314V10.4314H13.5398ZM17.8824 22.3529C17.6728 22.3529 17.4788 22.3141 17.3002 22.2365C17.1217 22.1589 16.9665 22.0541 16.8346 21.9222C16.7026 21.7902 16.594 21.6311 16.5086 21.4449C16.4232 21.2586 16.3844 21.0645 16.3922 20.8627C16.3922 20.6532 16.431 20.4592 16.5086 20.2806C16.5862 20.1021 16.691 19.9469 16.8229 19.815C16.9549 19.683 17.114 19.5743 17.3002 19.489C17.4865 19.4036 17.6806 19.3648 17.8824 19.3726C18.0919 19.3726 18.2859 19.4114 18.4645 19.489C18.643 19.5666 18.7982 19.6714 18.9301 19.8033C19.0621 19.9353 19.1707 20.0944 19.2561 20.2806C19.3415 20.4669 19.3803 20.6609 19.3725 20.8627C19.3725 21.0723 19.3337 21.2663 19.2561 21.4449C19.1785 21.6234 19.0737 21.7786 18.9418 21.9105C18.8098 22.0425 18.6507 22.1511 18.4645 22.2365C18.2782 22.3219 18.0841 22.3607 17.8824 22.3529ZM17.8824 17.8824C17.471 17.8824 17.0868 17.96 16.7298 18.1152C16.3728 18.2704 16.0545 18.4839 15.7751 18.7555C15.4957 19.0272 15.2823 19.3415 15.1348 19.6985C14.9873 20.0556 14.9097 20.4436 14.902 20.8627H10.4314V14.902H19.3725C19.7839 14.902 20.1681 14.9796 20.5251 15.1348C20.8821 15.29 21.2004 15.5035 21.4798 15.7751C21.7592 16.0468 21.9726 16.3611 22.1201 16.7181C22.2676 17.0752 22.3452 17.4632 22.3529 17.8824V20.8627H20.8627C20.8627 20.4514 20.7851 20.0672 20.6299 19.7102C20.4747 19.3531 20.2612 19.0349 19.9896 18.7555C19.7179 18.4761 19.4036 18.2627 19.0466 18.1152C18.6895 17.9677 18.3015 17.8901 17.8824 17.8824ZM4.47059 22.3529C4.26103 22.3529 4.06699 22.3141 3.88848 22.2365C3.70997 22.1589 3.55474 22.0541 3.42279 21.9222C3.29085 21.7902 3.18219 21.6311 3.09681 21.4449C3.01144 21.2586 2.97263 21.0645 2.98039 20.8627C2.98039 20.6532 3.0192 20.4592 3.09681 20.2806C3.17443 20.1021 3.27921 19.9469 3.41115 19.815C3.5431 19.683 3.70221 19.5743 3.88848 19.489C4.07475 19.4036 4.26879 19.3648 4.47059 19.3726C4.68015 19.3726 4.87418 19.4114 5.0527 19.489C5.23121 19.5666 5.38644 19.6714 5.51838 19.8033C5.65033 19.9353 5.75899 20.0944 5.84436 20.2806C5.92974 20.4669 5.96855 20.6609 5.96078 20.8627C5.96078 21.0723 5.92198 21.2663 5.84436 21.4449C5.76675 21.6234 5.66197 21.7786 5.53002 21.9105C5.39808 22.0425 5.23897 22.1511 5.0527 22.2365C4.86642 22.3219 4.67239 22.3607 4.47059 22.3529ZM1.4902 18.5343C1.4902 18.2161 1.55617 17.9056 1.68811 17.6029L2.92218 14.902H8.94118V20.8627H7.45098C7.45098 20.4514 7.37337 20.0672 7.21814 19.7102C7.06291 19.3531 6.84947 19.0349 6.57782 18.7555C6.30617 18.4761 5.99183 18.2627 5.6348 18.1152C5.27778 17.9677 4.88971 17.8901 4.47059 17.8824C4.14461 17.8824 3.83027 17.9328 3.52757 18.0337C3.22488 18.1346 2.94935 18.2782 2.70098 18.4645C2.45261 18.6507 2.23529 18.8719 2.04902 19.1281C1.86275 19.3842 1.71916 19.6714 1.61826 19.9896C1.53288 19.78 1.4902 19.5743 1.4902 19.3726V18.5343Z" fill="#667680"/>
</g>
<g clip-path="url(#clip1_1103_8475)">
<path d="M26.2222 11.6863H27.1111M26.6667 10.3529V11.6863M26.6667 13.4641V14.7974M28.1253 13.4641C28.2183 13.4641 28.309 13.435 28.3846 13.3808C28.4602 13.3265 28.5169 13.25 28.5467 13.1618L29.6 10.0561C29.7658 9.58682 29.8166 9.08464 29.7482 8.59169C29.6798 8.09874 29.4941 7.62939 29.2067 7.22306C28.9194 6.81673 28.5387 6.48526 28.0967 6.2565C27.6548 6.02773 27.1643 5.90833 26.6667 5.90833C26.169 5.90833 25.6786 6.02773 25.2366 6.2565C24.7946 6.48526 24.4139 6.81673 24.1266 7.22306C23.8392 7.62939 23.6535 8.09874 23.5851 8.59169C23.5167 9.08464 23.5675 9.58682 23.7333 10.0561L24.7867 13.1618C24.8164 13.25 24.8731 13.3265 24.9487 13.3808C25.0243 13.435 25.115 13.4641 25.208 13.4641H28.1253Z" stroke="#667680" stroke-linecap="round" stroke-linejoin="round"/>
<path d="M25.3334 9.01961C25.3334 8.66599 25.4738 8.32685 25.7239 8.0768C25.9739 7.82676 26.3131 7.68628 26.6667 7.68628C27.0203 7.68628 27.3595 7.82676 27.6095 8.0768C27.8596 8.32685 28 8.66599 28 9.01961" stroke="#667680" stroke-linecap="round" stroke-linejoin="round"/>
</g>
<defs>
<clipPath id="clip0_1103_8475">
<rect width="23.8431" height="23.8431" fill="white"/>
</clipPath>
<clipPath id="clip1_1103_8475">
<rect width="10.6667" height="10.6667" fill="white" transform="translate(21.3334 5.01962)"/>
</clipPath>
</defs>
</svg>
