<svg width="20" height="20" viewBox="0 0 20 20" fill="none" xmlns="http://www.w3.org/2000/svg">
<g clip-path="url(#clip0_1103_8448)">
<path d="M17.8571 0.714294H2.1428C1.76392 0.714294 1.40056 0.864804 1.13265 1.13271C0.864743 1.40062 0.714233 1.76399 0.714233 2.14287V15.7143C0.714233 16.0932 0.864743 16.4565 1.13265 16.7244C1.40056 16.9924 1.76392 17.1429 2.1428 17.1429H17.8571C18.236 17.1429 18.5993 16.9924 18.8672 16.7244C19.1352 16.4565 19.2857 16.0932 19.2857 15.7143V2.14287C19.2857 1.76399 19.1352 1.40062 18.8672 1.13271C18.5993 0.864804 18.236 0.714294 17.8571 0.714294Z" stroke="#667680" stroke-width="2" stroke-linecap="round" stroke-linejoin="round"/>
<path d="M12.1428 11.4286C12.8058 11.4286 13.4417 11.1652 13.9105 10.6963C14.3794 10.2275 14.6428 9.59161 14.6428 8.92857M12.1428 11.4286C11.4797 11.4286 10.8438 11.1652 10.375 10.6963C9.90616 10.2275 9.64277 9.59161 9.64277 8.92857M12.1428 11.4286V13.2143M14.6428 8.92857C14.6428 8.26553 14.3794 7.62964 13.9105 7.1608C13.4417 6.69196 12.8058 6.42857 12.1428 6.42857M14.6428 8.92857H16.4285M12.1428 6.42857C11.4797 6.42857 10.8438 6.69196 10.375 7.1608C9.90616 7.62964 9.64277 8.26553 9.64277 8.92857M12.1428 6.42857V4.64285M9.64277 8.92857H7.85706M15.1713 5.9L13.9142 7.15714M10.3713 10.7L9.1142 11.9571M15.1713 11.9571L13.9142 10.7M10.3713 7.15714L9.1142 5.9M4.28563 6.42857V11.4286M2.85706 17.1429V19.2857M16.4285 17.1429V19.2857" stroke="#667680" stroke-width="2" stroke-linecap="round" stroke-linejoin="round"/>
</g>
<defs>
<clipPath id="clip0_1103_8448">
<rect width="20" height="20" fill="white"/>
</clipPath>
</defs>
</svg>
