<svg width="24" height="24" viewBox="0 0 24 24" fill="none" xmlns="http://www.w3.org/2000/svg">
<g clip-path="url(#clip0_1103_8496)">
<mask id="path-1-outside-1_1103_8496" maskUnits="userSpaceOnUse" x="-1" y="3.48886" width="26" height="18" fill="black">
<rect fill="white" x="-1" y="3.48886" width="26" height="18"/>
<path d="M2.66743 20.8594H21.3326C23.1081 20.8594 24 19.9761 24 18.2259V7.12286C24 5.37258 23.1081 4.48886 21.3326 4.48886H2.66743C0.900429 4.48843 0 5.36358 0 7.12286V18.2263C0 19.9766 0.900429 20.8594 2.66743 20.8594ZM2.69314 19.4923C1.84371 19.4923 1.368 19.0337 1.368 18.15V16.9183H3.75514C5.01214 16.9183 5.75143 16.179 5.75143 14.9216V10.4186C5.75143 9.16115 5.01214 8.42229 3.75514 8.42229H1.368V7.19015C1.368 6.315 1.84371 5.85643 2.69314 5.85643H11.2903V8.71929C9.396 9.02529 7.96886 10.665 7.96886 12.6699C7.96886 14.6747 9.396 16.3144 11.2903 16.629V19.4919L2.69314 19.4923ZM15.9801 12.6703C15.963 10.674 14.5616 9.05958 12.6587 8.72829V5.85686H21.3069C22.1477 5.85686 22.632 6.31543 22.632 7.19058V8.42229H20.2449C18.9874 8.42229 18.2486 9.16158 18.2486 10.419V14.9216C18.2486 16.179 18.9874 16.9179 20.2449 16.9179H22.632V18.15C22.632 19.0333 22.1477 19.4923 21.3069 19.4923H12.6583V16.6286C14.5697 16.3054 16.0054 14.6743 15.9801 12.6694M20.2701 15.5494C19.854 15.5494 19.6161 15.3116 19.6161 14.8954V10.4439C19.6161 10.0277 19.854 9.78986 20.2701 9.78986H22.632V15.5499L20.2701 15.5494ZM3.72986 9.78986C4.14643 9.78986 4.38429 10.0277 4.38429 10.4439V14.8959C4.38429 15.3116 4.14643 15.5499 3.72986 15.5499H1.36843V9.78986H3.72986ZM9.201 12.6613C9.19908 12.0455 9.40409 11.447 9.78312 10.9617C10.1622 10.4764 10.6932 10.1326 11.2911 9.98529V15.3544C10.1019 15.0484 9.201 13.953 9.201 12.6613ZM14.7489 12.6613C14.7317 13.9526 13.848 15.0484 12.6587 15.3544V9.99386C13.8566 10.2994 14.757 11.3781 14.7489 12.6613Z"/>
</mask>
<path d="M2.66743 20.8594H21.3326C23.1081 20.8594 24 19.9761 24 18.2259V7.12286C24 5.37258 23.1081 4.48886 21.3326 4.48886H2.66743C0.900429 4.48843 0 5.36358 0 7.12286V18.2263C0 19.9766 0.900429 20.8594 2.66743 20.8594ZM2.69314 19.4923C1.84371 19.4923 1.368 19.0337 1.368 18.15V16.9183H3.75514C5.01214 16.9183 5.75143 16.179 5.75143 14.9216V10.4186C5.75143 9.16115 5.01214 8.42229 3.75514 8.42229H1.368V7.19015C1.368 6.315 1.84371 5.85643 2.69314 5.85643H11.2903V8.71929C9.396 9.02529 7.96886 10.665 7.96886 12.6699C7.96886 14.6747 9.396 16.3144 11.2903 16.629V19.4919L2.69314 19.4923ZM15.9801 12.6703C15.963 10.674 14.5616 9.05958 12.6587 8.72829V5.85686H21.3069C22.1477 5.85686 22.632 6.31543 22.632 7.19058V8.42229H20.2449C18.9874 8.42229 18.2486 9.16158 18.2486 10.419V14.9216C18.2486 16.179 18.9874 16.9179 20.2449 16.9179H22.632V18.15C22.632 19.0333 22.1477 19.4923 21.3069 19.4923H12.6583V16.6286C14.5697 16.3054 16.0054 14.6743 15.9801 12.6694M20.2701 15.5494C19.854 15.5494 19.6161 15.3116 19.6161 14.8954V10.4439C19.6161 10.0277 19.854 9.78986 20.2701 9.78986H22.632V15.5499L20.2701 15.5494ZM3.72986 9.78986C4.14643 9.78986 4.38429 10.0277 4.38429 10.4439V14.8959C4.38429 15.3116 4.14643 15.5499 3.72986 15.5499H1.36843V9.78986H3.72986ZM9.201 12.6613C9.19908 12.0455 9.40409 11.447 9.78312 10.9617C10.1622 10.4764 10.6932 10.1326 11.2911 9.98529V15.3544C10.1019 15.0484 9.201 13.953 9.201 12.6613ZM14.7489 12.6613C14.7317 13.9526 13.848 15.0484 12.6587 15.3544V9.99386C13.8566 10.2994 14.757 11.3781 14.7489 12.6613Z" fill="#667680"/>
<path d="M2.66743 4.48886L2.66738 4.68886H2.66743V4.48886ZM2.69314 19.4923V19.6923H2.69315L2.69314 19.4923ZM1.368 16.9183V16.7183H1.168V16.9183H1.368ZM1.368 8.42229H1.168V8.62229H1.368V8.42229ZM11.2903 5.85643H11.4903V5.65643H11.2903V5.85643ZM11.2903 8.71929L11.3222 8.91673L11.4903 8.88957V8.71929H11.2903ZM11.2903 16.629H11.4903V16.4595L11.323 16.4317L11.2903 16.629ZM11.2903 19.4919L11.2903 19.6919L11.4903 19.6919V19.4919H11.2903ZM12.6587 8.72829H12.4587V8.89648L12.6244 8.92533L12.6587 8.72829ZM12.6587 5.85686V5.65686H12.4587V5.85686H12.6587ZM22.632 8.42229V8.62229H22.832V8.42229H22.632ZM22.632 16.9179H22.832V16.7179H22.632V16.9179ZM12.6583 19.4923H12.4583V19.6923H12.6583V19.4923ZM12.6583 16.6286L12.6249 16.4314L12.4583 16.4595V16.6286H12.6583ZM20.2701 15.5494L20.2702 15.3494H20.2701V15.5494ZM22.632 9.78986H22.832V9.58986H22.632V9.78986ZM22.632 15.5499L22.632 15.7499L22.832 15.7499V15.5499H22.632ZM1.36843 15.5499H1.16843V15.7499H1.36843V15.5499ZM1.36843 9.78986V9.58986H1.16843V9.78986H1.36843ZM9.201 12.6613H9.401L9.401 12.6607L9.201 12.6613ZM11.2911 9.98529H11.4911V9.73005L11.2433 9.79109L11.2911 9.98529ZM11.2911 15.3544L11.2413 15.5481L11.4911 15.6124V15.3544H11.2911ZM14.7489 12.6613L14.9488 12.6639L14.9489 12.6626L14.7489 12.6613ZM12.6587 15.3544H12.4587V15.6124L12.7086 15.5481L12.6587 15.3544ZM12.6587 9.99386L12.7082 9.80007L12.4587 9.73644V9.99386H12.6587ZM2.66743 21.0594H21.3326V20.6594H2.66743V21.0594ZM21.3326 21.0594C22.2509 21.0594 22.9771 20.8309 23.4727 20.3413C23.9687 19.8512 24.2 19.1328 24.2 18.2259H23.8C23.8 19.0692 23.5854 19.6676 23.1916 20.0567C22.7973 20.4463 22.1898 20.6594 21.3326 20.6594V21.0594ZM24.2 18.2259V7.12286H23.8V18.2259H24.2ZM24.2 7.12286C24.2 6.21593 23.9687 5.49743 23.4727 5.00725C22.9772 4.5175 22.251 4.28886 21.3326 4.28886V4.68886C22.1898 4.68886 22.7973 4.90208 23.1915 5.29175C23.5854 5.681 23.8 6.27951 23.8 7.12286H24.2ZM21.3326 4.28886H2.66743V4.68886H21.3326V4.28886ZM2.66748 4.28886C1.75361 4.28864 1.02751 4.51489 0.530846 5.00338C0.0335835 5.49246 -0.2 6.2112 -0.2 7.12286H0.2C0.2 6.27524 0.416631 5.67676 0.811333 5.28856C1.20663 4.89976 1.81424 4.68865 2.66738 4.68886L2.66748 4.28886ZM-0.2 7.12286V18.2263H0.2V7.12286H-0.2ZM-0.2 18.2263C-0.2 19.1337 0.0337151 19.8519 0.530707 20.3417C1.02717 20.8309 1.75313 21.0594 2.66743 21.0594V20.6594C1.81472 20.6594 1.20697 20.4465 0.811472 20.0568C0.416499 19.6675 0.2 19.0691 0.2 18.2263H-0.2ZM2.69314 19.2923C2.30311 19.2923 2.02981 19.1875 1.85346 19.0111C1.67714 18.8348 1.568 18.5573 1.568 18.15H1.168C1.168 18.6265 1.29672 19.0201 1.57061 19.294C1.84447 19.5678 2.23374 19.6923 2.69314 19.6923V19.2923ZM1.568 18.15V16.9183H1.168V18.15H1.568ZM1.368 17.1183H3.75514V16.7183H1.368V17.1183ZM3.75514 17.1183C4.42273 17.1183 4.9778 16.9212 5.36609 16.5329C5.75438 16.1445 5.95143 15.5894 5.95143 14.9216H5.55143C5.55143 15.5112 5.37883 15.9544 5.08323 16.2501C4.78763 16.5457 4.34456 16.7183 3.75514 16.7183V17.1183ZM5.95143 14.9216V10.4186H5.55143V14.9216H5.95143ZM5.95143 10.4186C5.95143 9.75079 5.75438 9.19571 5.36607 8.80746C4.97777 8.41922 4.4227 8.22229 3.75514 8.22229V8.62229C4.34459 8.62229 4.78766 8.79479 5.08325 9.09033C5.37884 9.38587 5.55143 9.82893 5.55143 10.4186H5.95143ZM3.75514 8.22229H1.368V8.62229H3.75514V8.22229ZM1.568 8.42229V7.19015H1.168V8.42229H1.568ZM1.568 7.19015C1.568 6.78769 1.67686 6.51229 1.85312 6.33687C2.02957 6.16126 2.30311 6.05643 2.69314 6.05643V5.65643C2.23375 5.65643 1.84472 5.78089 1.57095 6.05335C1.297 6.32601 1.168 6.71746 1.168 7.19015H1.568ZM2.69314 6.05643H11.2903V5.65643H2.69314V6.05643ZM11.0903 5.85643V8.71929H11.4903V5.85643H11.0903ZM11.2584 8.52185C9.26682 8.84356 7.76886 10.5673 7.76886 12.6699H8.16886C8.16886 10.7627 9.52518 9.20701 11.3222 8.91673L11.2584 8.52185ZM7.76886 12.6699C7.76886 14.7726 9.26685 16.4957 11.2575 16.8263L11.323 16.4317C9.52515 16.1331 8.16886 14.5768 8.16886 12.6699H7.76886ZM11.0903 16.629V19.4919H11.4903V16.629H11.0903ZM11.2903 19.2919L2.69313 19.2923L2.69315 19.6923L11.2903 19.6919L11.2903 19.2919ZM16.1801 12.6686C16.1622 10.5754 14.6907 8.87905 12.693 8.53125L12.6244 8.92533C14.4325 9.24011 15.7638 10.7726 15.7801 12.672L16.1801 12.6686ZM12.8587 8.72829V5.85686H12.4587V8.72829H12.8587ZM12.6587 6.05686H21.3069V5.65686H12.6587V6.05686ZM21.3069 6.05686C21.6921 6.05686 21.9661 6.16145 22.144 6.33763C22.3215 6.51346 22.432 6.78907 22.432 7.19058H22.832C22.832 6.71694 22.7003 6.32569 22.4255 6.05345C22.151 5.78156 21.7624 5.65686 21.3069 5.65686V6.05686ZM22.432 7.19058V8.42229H22.832V7.19058H22.432ZM22.632 8.22229H20.2449V8.62229H22.632V8.22229ZM20.2449 8.22229C19.5771 8.22229 19.022 8.41934 18.6337 8.80771C18.2455 9.19608 18.0486 9.75126 18.0486 10.419H18.4486C18.4486 9.82933 18.6211 9.38615 18.9166 9.09051C19.2122 8.79488 19.6552 8.62229 20.2449 8.62229V8.22229ZM18.0486 10.419V14.9216H18.4486V10.419H18.0486ZM18.0486 14.9216C18.0486 15.5893 18.2455 16.1444 18.6338 16.5327C19.022 16.9209 19.5771 17.1179 20.2449 17.1179V16.7179C19.6552 16.7179 19.2121 16.5454 18.9166 16.2498C18.6211 15.9543 18.4486 15.5113 18.4486 14.9216H18.0486ZM20.2449 17.1179H22.632V16.7179H20.2449V17.1179ZM22.432 16.9179V18.15H22.832V16.9179H22.432ZM22.432 18.15C22.432 18.5561 22.3212 18.8338 22.1436 19.0106C21.9658 19.1876 21.6921 19.2923 21.3069 19.2923V19.6923C21.7625 19.6923 22.1513 19.5674 22.4259 19.2941C22.7006 19.0206 22.832 18.6272 22.832 18.15H22.432ZM21.3069 19.2923H12.6583V19.6923H21.3069V19.2923ZM12.8583 19.4923V16.6286H12.4583V19.4923H12.8583ZM12.6916 16.8258C14.6968 16.4868 16.2067 14.7737 16.1801 12.6669L15.7802 12.672C15.8042 14.5749 14.4426 16.1241 12.6249 16.4314L12.6916 16.8258ZM20.2701 15.3494C20.0997 15.3494 19.9928 15.3014 19.9285 15.2371C19.8642 15.1727 19.8161 15.0659 19.8161 14.8954H19.4161C19.4161 15.1411 19.487 15.3613 19.6457 15.5199C19.8043 15.6785 20.0244 15.7494 20.2701 15.7494V15.3494ZM19.8161 14.8954V10.4439H19.4161V14.8954H19.8161ZM19.8161 10.4439C19.8161 10.2734 19.8642 10.1666 19.9285 10.1022C19.9928 10.0379 20.0997 9.98986 20.2701 9.98986V9.58986C20.0244 9.58986 19.8043 9.66075 19.6457 9.81939C19.487 9.97803 19.4161 10.1982 19.4161 10.4439H19.8161ZM20.2701 9.98986H22.632V9.58986H20.2701V9.98986ZM22.432 9.78986V15.5499H22.832V9.78986H22.432ZM22.632 15.3499L20.2702 15.3494L20.2701 15.7494L22.632 15.7499L22.632 15.3499ZM3.72986 9.98986C3.90057 9.98986 4.00754 10.0379 4.0719 10.1023C4.13624 10.1666 4.18429 10.2734 4.18429 10.4439H4.58429C4.58429 10.1982 4.5134 9.978 4.35467 9.81935C4.19596 9.66072 3.97572 9.58986 3.72986 9.58986V9.98986ZM4.18429 10.4439V14.8959H4.58429V10.4439H4.18429ZM4.18429 14.8959C4.18429 15.066 4.13627 15.1729 4.07186 15.2373C4.00746 15.3017 3.90047 15.3499 3.72986 15.3499V15.7499C3.97581 15.7499 4.19604 15.6788 4.35471 15.5202C4.51337 15.3615 4.58429 15.1414 4.58429 14.8959H4.18429ZM3.72986 15.3499H1.36843V15.7499H3.72986V15.3499ZM1.56843 15.5499V9.78986H1.16843V15.5499H1.56843ZM1.36843 9.98986H3.72986V9.58986H1.36843V9.98986ZM9.401 12.6607C9.39922 12.0897 9.5893 11.5348 9.94074 11.0848L9.62551 10.8386C9.21887 11.3592 8.99894 12.0013 9.001 12.6619L9.401 12.6607ZM9.94074 11.0848C10.2922 10.6349 10.7846 10.316 11.339 10.1795L11.2433 9.79109C10.6019 9.94908 10.0321 10.318 9.62551 10.8386L9.94074 11.0848ZM11.0911 9.98529V15.3544H11.4911V9.98529H11.0911ZM11.341 15.1607C10.2372 14.8767 9.401 13.8588 9.401 12.6613H9.001C9.001 14.0472 9.96653 15.2201 11.2413 15.5481L11.341 15.1607ZM14.5489 12.6586C14.5329 13.8599 13.7105 14.8773 12.6089 15.1607L12.7086 15.5481C13.9855 15.2196 14.9305 14.0453 14.9488 12.6639L14.5489 12.6586ZM12.8587 15.3544V9.99386H12.4587V15.3544H12.8587ZM12.6093 10.1877C13.7235 10.4719 14.5564 11.4742 14.5489 12.66L14.9489 12.6626C14.9576 11.282 13.9896 10.127 12.7082 9.80007L12.6093 10.1877Z" fill="#667680" mask="url(#path-1-outside-1_1103_8496)"/>
</g>
<defs>
<clipPath id="clip0_1103_8496">
<rect width="24" height="24" fill="white"/>
</clipPath>
</defs>
</svg>
