<svg width="26" height="26" viewBox="0 0 26 26" fill="none" xmlns="http://www.w3.org/2000/svg">
<path d="M7.47498 5.2C7.2164 5.2 6.9684 5.30272 6.78556 5.48557C6.60271 5.66842 6.49998 5.91641 6.49998 6.175V6.825C6.49998 7.08359 6.39726 7.33158 6.21441 7.51443C6.03157 7.69728 5.78357 7.8 5.52498 7.8C5.2664 7.8 5.0184 7.69728 4.83556 7.51443C4.65271 7.33158 4.54998 7.08359 4.54998 6.825V6.175C4.54998 5.39924 4.85815 4.65526 5.4067 4.10671C5.95524 3.55817 6.69923 3.25 7.47498 3.25C8.25074 3.25 8.99473 3.55817 9.54327 4.10671C10.0918 4.65526 10.4 5.39924 10.4 6.175V9.75H16.9V6.175C16.9 5.91641 16.7973 5.66842 16.6144 5.48557C16.4316 5.30272 16.1836 5.2 15.925 5.2C15.6664 5.2 15.4184 5.30272 15.2356 5.48557C15.0527 5.66842 14.95 5.91641 14.95 6.175V6.825C14.95 7.08359 14.8473 7.33158 14.6644 7.51443C14.4816 7.69728 14.2336 7.8 13.975 7.8C13.7164 7.8 13.4684 7.69728 13.2856 7.51443C13.1027 7.33158 13 7.08359 13 6.825V6.175C13 5.39924 13.3082 4.65526 13.8567 4.10671C14.4052 3.55817 15.1492 3.25 15.925 3.25C16.7007 3.25 17.4447 3.55817 17.9933 4.10671C18.5418 4.65526 18.85 5.39924 18.85 6.175V15.3153C18.22 15.5164 17.5612 15.613 16.9 15.6013V11.7H10.4V13.2977C9.76198 13.1332 9.10832 13.0369 8.44998 13.0104V6.175C8.44998 5.91641 8.34726 5.66842 8.16441 5.48557C7.98157 5.30272 7.73357 5.2 7.47498 5.2ZM7.55688 16.2851C6.80078 16.3633 6.0783 16.638 5.46128 17.082C5.25355 17.2361 4.99311 17.3014 4.73724 17.2635C4.48138 17.2256 4.25105 17.0876 4.09693 16.8799C3.94282 16.6721 3.87753 16.4117 3.91544 16.1558C3.95335 15.8999 4.09135 15.6696 4.29908 15.5155C5.19208 14.867 6.23973 14.4645 7.33718 14.3481C8.82308 14.1791 10.6808 14.4638 12.8414 15.7157C16.6543 17.9283 19.7353 16.4684 20.6375 15.9393C20.8606 15.8085 21.1265 15.7716 21.3767 15.8368C21.627 15.902 21.8411 16.064 21.9719 16.2871C22.1028 16.5101 22.1396 16.776 22.0744 17.0263C22.0092 17.2766 21.8473 17.4907 21.6242 17.6215C20.4347 18.3196 16.5477 20.1201 11.8612 17.4031C10.0282 16.3397 8.58909 16.1681 7.55688 16.2851ZM7.55688 20.1851C6.80078 20.2633 6.0783 20.538 5.46128 20.982C5.25355 21.1361 4.99311 21.2014 4.73724 21.1635C4.48138 21.1256 4.25105 20.9876 4.09693 20.7799C3.94282 20.5721 3.87753 20.3117 3.91544 20.0558C3.95335 19.7999 4.09135 19.5696 4.29908 19.4155C5.19208 18.767 6.23973 18.3645 7.33718 18.2481C8.82308 18.0791 10.6808 18.3638 12.8414 19.6157C16.6543 21.8283 19.7353 20.3684 20.6375 19.8393C20.8606 19.7085 21.1265 19.6716 21.3767 19.7368C21.627 19.802 21.8411 19.964 21.9719 20.187C22.1028 20.4101 22.1396 20.676 22.0744 20.9263C22.0092 21.1766 21.8473 21.3907 21.6242 21.5215C20.4347 22.2196 16.5477 24.0201 11.8612 21.3031C10.0282 20.2397 8.58909 20.0681 7.55688 20.1851Z" fill="#667680"/>
</svg>
