<svg width="24" height="24" viewBox="0 0 24 24" fill="none" xmlns="http://www.w3.org/2000/svg">
<path d="M7.004 8.00126C7.0041 7.75633 7.09408 7.51995 7.25689 7.33695C7.41969 7.15396 7.64399 7.03708 7.88725 7.00848L8.00425 7.00151L17.6253 7.00391L15.7977 5.17546C15.6165 4.99587 15.5108 4.75382 15.5022 4.49884C15.4936 4.24386 15.5828 3.99524 15.7515 3.80386C15.9202 3.61249 16.1557 3.49284 16.4098 3.46941C16.6638 3.44597 16.9172 3.52051 17.1181 3.67779L17.2121 3.76181L20.7472 7.29769C20.9193 7.46993 21.0227 7.69906 21.0379 7.94209C21.0531 8.18512 20.9792 8.42535 20.8299 8.61772L20.7468 8.71169L17.2099 12.2468C17.0299 12.4261 16.7884 12.5302 16.5345 12.5379C16.2805 12.5456 16.0332 12.4563 15.8427 12.2882C15.6521 12.1201 15.5327 11.8858 15.5087 11.6329C15.4847 11.38 15.5578 11.1274 15.7133 10.9264L15.7963 10.8315L17.6238 9.00391L8.00375 9.00151C7.73854 9.00144 7.48421 8.89602 7.29672 8.70844C7.10923 8.52086 7.00394 8.26648 7.004 8.00126ZM3.25918 15.2933L6.79607 11.7592C6.88834 11.6637 6.9987 11.5876 7.12072 11.5352C7.24273 11.4828 7.37396 11.4553 7.50674 11.4541C7.63952 11.453 7.77119 11.4784 7.89408 11.5287C8.01696 11.579 8.12859 11.6533 8.22246 11.7472C8.31633 11.8411 8.39056 11.9528 8.44081 12.0757C8.49106 12.1986 8.51633 12.3303 8.51514 12.463C8.51395 12.5958 8.48633 12.727 8.4339 12.849C8.38146 12.971 8.30525 13.0813 8.20971 13.1736L6.38126 15.0011L16.0013 15.0035C16.2665 15.0036 16.5208 15.109 16.7083 15.2966C16.8958 15.4842 17.0011 15.7385 17.001 16.0038C17.0009 16.269 16.8955 16.5233 16.7079 16.7108C16.5204 16.8983 16.266 17.0036 16.0008 17.0035L6.38176 17.0011L8.2083 18.8316C8.39041 19.0202 8.49114 19.2728 8.4888 19.535C8.48645 19.7972 8.38122 20.048 8.19577 20.2334C8.01031 20.4187 7.75947 20.5238 7.49728 20.5261C7.23508 20.5283 6.9825 20.4274 6.79394 20.2452L3.25883 16.7083C3.0714 16.5207 2.96615 16.2664 2.96622 16.0013C2.96628 15.7361 3.07166 15.4808 3.25918 15.2933Z" fill="#667680"/>
</svg>
