<svg width="24" height="24" viewBox="0 0 24 24" fill="none" xmlns="http://www.w3.org/2000/svg">
<path d="M6.36158 15.242C6.61274 15.2387 6.84126 15.1563 7.04139 14.9994L7.04146 14.9995L7.04665 14.9951C7.71261 14.4356 8.46939 13.9962 9.31835 13.6772C10.1643 13.3593 11.0577 13.2 12 13.2C12.9422 13.2 13.8356 13.3593 14.6815 13.6772C15.5306 13.9969 16.2878 14.4363 16.9545 14.9953L16.9544 14.9954L16.9599 14.9996C17.1598 15.1557 17.3871 15.2393 17.6364 15.245C17.8945 15.2508 18.1211 15.1619 18.3031 14.9808L18.3037 14.9801C18.4881 14.7949 18.5788 14.5665 18.5678 14.307M6.36158 15.242L6.359 15.042M6.36158 15.242C6.36159 15.242 6.3616 15.242 6.3616 15.242L6.359 15.042M6.36158 15.242C6.10385 15.2453 5.87813 15.1548 5.69724 14.9731L5.69595 14.9718L5.69595 14.9718C5.51563 14.7872 5.42646 14.5604 5.43408 14.3031C5.44189 14.0393 5.55776 13.8178 5.76564 13.6486C6.60946 12.9209 7.56001 12.3544 8.61619 11.9493C9.67509 11.542 10.8036 11.339 12 11.339C13.1966 11.339 14.3255 11.5431 15.3851 11.9524C16.4405 12.3602 17.3906 12.9276 18.2343 13.6545C18.4414 13.823 18.5574 14.0438 18.5678 14.307M6.359 15.042C6.565 15.0393 6.75133 14.9727 6.918 14.842L5.894 13.802C5.72666 13.9373 5.64 14.1063 5.634 14.309C5.628 14.5117 5.69633 14.686 5.839 14.832C5.981 14.9747 6.15433 15.0447 6.359 15.042ZM18.5678 14.307C18.5678 14.3068 18.5678 14.3066 18.5678 14.3065L18.368 14.315L18.5678 14.3071C18.5678 14.3071 18.5678 14.307 18.5678 14.307ZM17.7504 6.40635L17.7504 6.40637C19.5232 7.11736 21.101 8.106 22.4824 9.37209C22.6879 9.54761 22.8023 9.7743 22.8157 10.042L22.8158 10.0425C22.8284 10.3086 22.7404 10.5426 22.5537 10.7301L22.5531 10.7307C22.3563 10.9267 22.1135 11.0147 21.8398 10.9838M17.7504 6.40635L2.139 10.786C1.927 10.8093 1.74366 10.7437 1.589 10.589C1.44233 10.4423 1.37433 10.2633 1.385 10.052C1.395 9.84067 1.48333 9.664 1.65 9.522M17.7504 6.40635C15.973 5.69417 14.0555 5.339 12 5.339C9.94443 5.339 8.02701 5.69485 6.24967 6.40633L6.24955 6.40637C4.47672 7.11739 2.89891 8.10608 1.5174 9.37224M17.7504 6.40635L22.35 9.522C20.986 8.27134 19.428 7.29467 17.676 6.592C15.924 5.89 14.032 5.539 12 5.539C9.968 5.539 8.076 5.89067 6.324 6.592C4.572 7.29467 3.014 8.27134 1.65 9.522M21.8398 10.9838C21.8397 10.9838 21.8395 10.9837 21.8394 10.9837L21.862 10.785L21.8401 10.9838C21.84 10.9838 21.8399 10.9838 21.8398 10.9838ZM21.8398 10.9838C21.5845 10.9556 21.3524 10.85 21.146 10.6759L21.1414 10.6719L21.1414 10.6719C19.921 9.57686 18.5316 8.72438 16.9721 8.11425C15.4152 7.50512 13.7583 7.2 12 7.2C10.2417 7.2 8.58484 7.50512 7.02786 8.11425C5.46837 8.72438 4.07903 9.57686 2.85856 10.6719L2.85377 10.6762L2.8537 10.6761C2.64701 10.8499 2.41558 10.9558 2.16163 10.9847L2.16088 10.9848C1.88679 11.015 1.64388 10.9267 1.44757 10.7304C1.26009 10.5429 1.17187 10.3086 1.18523 10.0422C1.19796 9.77492 1.3122 9.54827 1.5174 9.37224M1.5174 9.37224C1.51654 9.37302 1.51569 9.37381 1.51483 9.37459L1.65 9.522M1.5174 9.37224C1.51836 9.37141 1.51932 9.37059 1.52029 9.36976L1.65 9.522M10.7666 20.1184C11.1024 20.4543 11.5177 20.623 12 20.623C12.4823 20.623 12.8976 20.4543 13.2334 20.1184C13.5693 19.7825 13.738 19.3668 13.738 18.884C13.738 18.4011 13.5693 17.9857 13.2333 17.6504C12.8975 17.3154 12.4823 17.1467 12.0003 17.146C11.5178 17.1453 11.1023 17.3141 10.7664 17.6507C10.4307 17.9872 10.262 18.4027 10.262 18.885C10.262 19.3673 10.4307 19.7826 10.7666 20.1184Z" fill="#667680" stroke="#667680" stroke-width="0.4"/>
</svg>
