<svg width="56" height="46" viewBox="0 0 56 46" fill="none" xmlns="http://www.w3.org/2000/svg">
<path d="M54.2417 10.1969C53.7697 8.88574 52.3118 8.20536 51.0103 8.6955L42.3654 11.8813L29.8744 2.1298L26.7314 3.27744L34.7292 14.688L26.638 17.6713L23.1167 15.3838L20.7564 16.2575L25.7605 23.4034L52.7374 13.4641C54.054 12.9556 54.7137 11.5081 54.2417 10.1969Z" fill="#001F3D"/>
<path d="M36.64 34.2596C34.4304 36.4691 31.9313 37.9787 29.1426 38.7884C26.3854 39.5665 23.5603 39.5507 20.6673 38.7409C17.8059 37.8996 15.0664 36.1702 12.4489 33.5527C9.83146 30.9353 8.1652 28.1327 7.45015 25.145C6.7351 22.1573 6.81398 19.2375 7.68677 16.3856C8.55956 13.5338 10.0692 11.0347 12.2156 8.88825C13.6676 7.43627 15.2011 6.38152 16.8162 5.72399C18.431 5.00297 20.0318 4.61517 21.6186 4.56057L22.7087 12.1847C21.9473 12.2439 21.1865 12.4301 20.4265 12.7432C19.698 13.0248 19.0023 13.497 18.3395 14.1599C17.2347 15.2647 16.5433 16.4987 16.2653 17.8621C15.9872 19.2254 16.1222 20.6545 16.6702 22.1494C17.2182 23.6443 18.1784 25.0781 19.551 26.4507C20.9236 27.8232 22.3573 28.7835 23.8522 29.3315C25.3472 29.8795 26.7605 30.0302 28.0923 29.7838C29.4556 29.5057 30.6423 28.8617 31.6524 27.8516C32.4415 27.0625 33.0396 26.1771 33.4468 25.1953C33.8539 24.2136 34.1339 23.1995 34.2868 22.1529L41.3421 23.716C41.2574 25.5882 40.8235 27.4586 40.0404 29.3269C39.2254 31.1634 38.0919 32.8076 36.64 34.2596Z" fill="#001F3D"/>
</svg>
