<svg width="32" height="32" viewBox="0 0 32 32" fill="none" xmlns="http://www.w3.org/2000/svg">
<path d="M24.4613 6H7.53867C6.7 6 6 6.7 6 7.53867V15.232C6 16.0693 6.7 16.7693 7.53867 16.7693H24.4613C25.3 16.7693 26 16.0693 26 15.2307V7.53733C26 6.7 25.3 6 24.4613 6Z" stroke="#667680" stroke-width="1.6" stroke-linecap="round" stroke-linejoin="round"/>
<path d="M22.1534 16.7693V13.692C22.1534 12.8547 21.4534 12.1533 20.6161 12.1533H11.3827C10.5454 12.1533 9.84538 12.8547 9.84538 13.692V16.7693M9.07605 24.4627C11.2627 24.4627 11.3827 22.324 11.3827 20.6147M22.9214 24.4613C20.7347 24.4613 20.6147 22.324 20.6147 20.6147M16.0001 26V20.6147" stroke="#667680" stroke-width="1.6" stroke-linecap="round" stroke-linejoin="round"/>
</svg>
