<svg width="24" height="24" viewBox="0 0 24 24" fill="none" xmlns="http://www.w3.org/2000/svg">
<g clip-path="url(#clip0_1103_8442)">
<path d="M4.28577 10.2857H19.7143M7.71434 5.14286V6M6.8572 21.4286V23.1429M17.1429 21.4286V23.1429M18.0001 0.857147H6.00005C5.5454 0.857147 5.10936 1.03776 4.78787 1.35925C4.46638 1.68074 4.28577 2.11678 4.28577 2.57143V19.7143C4.28577 20.1689 4.46638 20.605 4.78787 20.9265C5.10936 21.248 5.5454 21.4286 6.00005 21.4286H18.0001C18.4547 21.4286 18.8907 21.248 19.2122 20.9265C19.5337 20.605 19.7143 20.1689 19.7143 19.7143V2.57143C19.7143 2.11678 19.5337 1.68074 19.2122 1.35925C18.8907 1.03776 18.4547 0.857147 18.0001 0.857147Z" stroke="#667680" stroke-width="2" stroke-linecap="round" stroke-linejoin="round"/>
</g>
<defs>
<clipPath id="clip0_1103_8442">
<rect width="24" height="24" fill="white"/>
</clipPath>
</defs>
</svg>
