<svg width="24" height="24" viewBox="0 0 24 24" fill="none" xmlns="http://www.w3.org/2000/svg">
<path d="M10.0749 18.4103L10.0752 18.4102C10.7113 18.0446 11.2405 17.5186 11.61 16.8848C11.9611 16.2825 12.1565 15.6028 12.1792 14.9071C12.1195 14.9108 12.0598 14.9126 12 14.9125C12 14.9125 11.9999 14.9125 11.9999 14.9125L12.0001 14.8125L10.0749 18.4103ZM10.0749 18.4103C9.4492 18.7727 8.74073 18.9679 8.01771 18.9771M10.0749 18.4103L8.01771 18.9771M8.01771 18.9771C7.29469 18.9863 6.58147 18.8092 5.9467 18.463M8.01771 18.9771L5.9467 18.463M5.9467 18.463C5.31192 18.1167 4.77697 17.6129 4.39333 16.9999M5.9467 18.463L4.39333 16.9999M4.39333 16.9999C4.02367 16.4094 3.80648 15.7367 3.76065 15.0423M4.39333 16.9999L3.76065 15.0423M3.76065 15.0423L9.45544 13.4158L3.76065 15.0423ZM15.7987 8.60517C14.9468 8.6996 14.1288 8.99046 13.4088 9.45451C13.3822 9.43946 13.3551 9.42476 13.3278 9.41054L14.8889 3.17715C14.9227 3.04259 14.9133 2.90084 14.8622 2.77187C14.8111 2.64291 14.7208 2.53324 14.604 2.45833L14.6038 2.4582C13.9706 2.05418 13.2617 1.78324 12.5204 1.66185C11.7791 1.54046 11.0208 1.57117 10.2917 1.75211C9.56268 1.93304 8.87805 2.26042 8.27951 2.71432C7.68097 3.16823 7.18104 3.73916 6.81014 4.39239C6.43924 5.04562 6.20512 5.76748 6.12203 6.51406C6.03894 7.26063 6.10861 8.0163 6.32682 8.7351C6.54502 9.45389 6.90718 10.1208 7.39128 10.6952C7.8621 11.2538 8.43867 11.7136 9.08765 12.0483C9.08784 12.0787 9.0884 12.1102 9.09008 12.1421L2.91394 13.9062C2.9139 13.9062 2.91387 13.9063 2.91383 13.9063C2.78 13.9439 2.6614 14.0227 2.57482 14.1314L2.65306 14.1937L2.57482 14.1314C2.48822 14.2402 2.43805 14.3735 2.43141 14.5124H2.43141L2.43137 14.5134C2.40328 15.261 2.52696 16.0066 2.79495 16.705C3.06295 17.4035 3.46969 18.0404 3.99064 18.5774C4.51158 19.1143 5.13593 19.5401 5.82598 19.8291C6.51603 20.1181 7.25748 20.2642 8.00558 20.2587C8.75368 20.2532 9.49291 20.0962 10.1787 19.7972C10.8644 19.4981 11.4824 19.0632 11.9954 18.5186C12.5084 17.9741 12.9058 17.3313 13.1635 16.629C13.4142 15.9458 13.5277 15.22 13.4978 14.4933C13.5242 14.4774 13.5504 14.4612 13.5765 14.4444L18.1939 18.9156L18.1941 18.9157C18.2941 19.0122 18.4219 19.0747 18.5594 19.0945C18.6969 19.1143 18.837 19.0905 18.9602 19.0263C20.0804 18.4451 20.9684 17.4988 21.4773 16.344C21.9863 15.1892 22.0855 13.8952 21.7585 12.6763L21.7578 12.6764C21.5309 11.8294 21.1062 11.0484 20.5185 10.3976C19.9302 9.74614 19.1954 9.24386 18.3748 8.93221C17.5542 8.62056 16.6712 8.50846 15.7987 8.60517ZM14.7919 3.15282C14.8206 3.03857 14.8127 2.91821 14.7693 2.80871C14.7259 2.69922 14.6492 2.6061 14.5501 2.5425C13.9282 2.14578 13.2321 1.87973 12.5042 1.76054C11.7763 1.64134 11.0317 1.67149 10.3158 1.84916C9.59993 2.02683 8.92766 2.3483 8.33993 2.794C7.7522 3.23971 7.2613 3.80033 6.8971 4.44177C6.53289 5.0832 6.303 5.79203 6.22141 6.52512C6.13982 7.25821 6.20824 8.00024 6.4225 8.70605C6.63677 9.41186 6.99239 10.0667 7.46774 10.6307C7.94309 11.1947 8.52823 11.6562 9.18755 11.9869V12C9.18755 12.0722 9.18755 12.1444 9.19693 12.2156L14.7919 3.15282ZM7.41255 7.12524V7.12497C7.41232 6.40239 7.59797 5.6919 7.95165 5.06179C8.30533 4.43168 8.81514 3.90315 9.43209 3.52698C10.049 3.15082 10.7524 2.93967 11.4745 2.91385C12.1703 2.88896 12.8609 3.03692 13.4849 3.34393L12.0458 9.0875H12.0001H12C11.4397 9.08778 10.8913 9.24967 10.4207 9.55377C9.98162 9.83751 9.62758 10.2338 9.39493 10.7004C8.80338 10.3329 8.31204 9.82365 7.96587 9.21805C7.60163 8.58082 7.41084 7.85922 7.41255 7.12524ZM20.0565 16.2157L20.0183 16.2821L20.0214 16.2853C19.7017 16.8163 19.2685 17.27 18.7528 17.6139L14.4966 13.4955C14.7819 13.0208 14.9258 12.4739 14.9105 11.9191C14.8954 11.3747 14.7276 10.8462 14.4272 10.3937C15.209 9.97743 16.103 9.81774 16.9822 9.93893C17.8976 10.0651 18.7461 10.4888 19.397 11.1447C20.0479 11.8006 20.4651 12.6523 20.5843 13.5687C20.7034 14.485 20.518 15.4151 20.0565 16.2157ZM10.4126 12C10.4126 11.686 10.5057 11.3791 10.6801 11.118C10.8545 10.857 11.1025 10.6535 11.3925 10.5333C11.6826 10.4132 12.0018 10.3818 12.3098 10.443C12.6177 10.5043 12.9006 10.6555 13.1226 10.8775C13.3446 11.0995 13.4958 11.3824 13.557 11.6903C13.6183 11.9982 13.5869 12.3174 13.4667 12.6075C13.3466 12.8976 13.1431 13.1455 12.882 13.32C12.621 13.4944 12.314 13.5875 12.0001 13.5875C11.579 13.5875 11.1752 13.4202 10.8775 13.1225C10.5798 12.8248 10.4126 12.421 10.4126 12Z" fill="#667680" stroke="#667680" stroke-width="0.2"/>
</svg>
