<svg width="26" height="19" viewBox="0 0 26 19" fill="none" xmlns="http://www.w3.org/2000/svg">
<path d="M24.0769 1H1.92308C1.67826 1 1.44347 1.09725 1.27036 1.27036C1.09725 1.44347 1 1.67826 1 1.92308V16.6923C1 16.9371 1.09725 17.1719 1.27036 17.345C1.44347 17.5181 1.67826 17.6154 1.92308 17.6154H24.0769C24.3217 17.6154 24.5565 17.5181 24.7296 17.345C24.9027 17.1719 25 16.9371 25 16.6923V1.92308C25 1.67826 24.9027 1.44347 24.7296 1.27036C24.5565 1.09725 24.3217 1 24.0769 1Z" stroke="#667680" stroke-width="2" stroke-linecap="round" stroke-linejoin="round"/>
<path d="M20.3846 5.6154H21.3076M20.3846 9.30771H21.3076M15.7692 4.69232H5.61534C5.37052 4.69232 5.13573 4.78957 4.96262 4.96268C4.78951 5.1358 4.69226 5.37058 4.69226 5.6154V13C4.69226 13.2448 4.78951 13.4796 4.96262 13.6527C5.13573 13.8258 5.37052 13.9231 5.61534 13.9231H15.7692C16.014 13.9231 16.2488 13.8258 16.4219 13.6527C16.595 13.4796 16.6923 13.2448 16.6923 13V5.6154C16.6923 5.37058 16.595 5.1358 16.4219 4.96268C16.2488 4.78957 16.014 4.69232 15.7692 4.69232Z" stroke="#667680" stroke-width="2" stroke-linecap="round" stroke-linejoin="round"/>
</svg>
