<svg width="27" height="27" viewBox="0 0 27 27" fill="none" xmlns="http://www.w3.org/2000/svg">
<g id="tabler:beach">
<g id="Group">
<path id="Vector" d="M19.7471 18.8437C18.1648 17.2616 16.0188 16.3728 13.7812 16.3728C11.5436 16.3728 9.39768 17.2616 7.81537 18.8437M20.25 4.2795C18.6997 3.38443 16.8573 3.14187 15.1281 3.60518C13.3989 4.06848 11.9246 5.1997 11.0295 6.75L22.7205 13.5C23.6156 11.9497 23.8581 10.1073 23.3948 8.37811C22.9315 6.64894 21.8003 5.17463 20.25 4.2795Z" stroke="currentColor" stroke-width="1.4" stroke-linecap="round" stroke-linejoin="round"/>
<path id="Vector_2" d="M18.8235 11.25C20.6888 8.02125 21.3266 4.9005 20.25 4.2795C19.1734 3.6585 16.7906 5.77125 14.9265 9M16.875 10.125L13.5 15.9705M3.375 21.6563C3.7252 21.4821 4.10906 21.3862 4.5 21.375C4.93818 21.3658 5.37201 21.4635 5.76402 21.6595C6.15603 21.8555 6.49443 22.1439 6.75 22.5C7.00557 22.8561 7.34397 23.1445 7.73598 23.3405C8.12799 23.5366 8.56182 23.6342 9 23.625C9.43818 23.6342 9.87201 23.5366 10.264 23.3405C10.656 23.1445 10.9944 22.8561 11.25 22.5C11.5056 22.1439 11.844 21.8555 12.236 21.6595C12.628 21.4635 13.0618 21.3658 13.5 21.375C13.9382 21.3658 14.372 21.4635 14.764 21.6595C15.156 21.8555 15.4944 22.1439 15.75 22.5C16.0056 22.8561 16.344 23.1445 16.736 23.3405C17.128 23.5366 17.5618 23.6342 18 23.625C18.4382 23.6342 18.872 23.5366 19.264 23.3405C19.656 23.1445 19.9944 22.8561 20.25 22.5C20.5056 22.1439 20.844 21.8555 21.236 21.6595C21.628 21.4635 22.0618 21.3658 22.5 21.375C22.8909 21.3862 23.2748 21.4821 23.625 21.6563" stroke="currentColor" stroke-width="1.4" stroke-linecap="round" stroke-linejoin="round"/>
</g>
</g>
</svg>
