<svg width="22" height="22" viewBox="0 0 22 22" fill="none" xmlns="http://www.w3.org/2000/svg">
<path d="M13.75 0.397461L20.625 7.27246V22H19.25V7.85254L15.125 3.72754V8.25H16.5V22H12.375V17.875H11V22H6.875V8.25H11V6.875H2.75V22H1.375V5.5H12.375V8.25H13.75V0.397461ZM15.125 20.625V9.625H8.25V20.625H9.625V16.5H13.75V20.625H15.125ZM4.125 9.625V8.25H5.5V9.625H4.125ZM4.125 12.375V11H5.5V12.375H4.125ZM4.125 15.125V13.75H5.5V15.125H4.125ZM4.125 17.875V16.5H5.5V17.875H4.125ZM4.125 20.625V19.25H5.5V20.625H4.125ZM13.75 11V12.375H12.375V11H13.75ZM13.75 13.75V15.125H12.375V13.75H13.75ZM11 11V12.375H9.625V11H11ZM11 13.75V15.125H9.625V13.75H11Z" fill="currentColor"/>
</svg>
