<svg width="25" height="25" viewBox="0 0 25 25" fill="none" xmlns="http://www.w3.org/2000/svg">
<path d="M13.3623 21.5264C13.2475 21.6988 13.069 21.8187 12.8659 21.8595C12.6628 21.9003 12.4518 21.8588 12.2793 21.7441C9.3361 19.7862 5.87871 18.7443 2.34375 18.75C2.13655 18.75 1.93784 18.6677 1.79132 18.5212C1.64481 18.3747 1.5625 18.176 1.5625 17.9688C1.5625 17.7616 1.64481 17.5628 1.79132 17.4163C1.93784 17.2698 2.13655 17.1875 2.34375 17.1875C6.18665 17.1816 9.94514 18.3146 13.1445 20.4434C13.317 20.5581 13.4368 20.7367 13.4777 20.9398C13.5185 21.1429 13.477 21.3539 13.3623 21.5264ZM2.34375 14.0625C2.13655 14.0625 1.93784 14.1448 1.79132 14.2913C1.64481 14.4378 1.5625 14.6366 1.5625 14.8438C1.5625 15.051 1.64481 15.2497 1.79132 15.3962C1.93784 15.5427 2.13655 15.625 2.34375 15.625C7.86606 15.6123 13.1706 17.7777 17.1064 21.6514C17.1791 21.726 17.2659 21.7854 17.3618 21.8261C17.4577 21.8667 17.5607 21.8877 17.6649 21.888C17.769 21.8882 17.8722 21.8676 17.9682 21.8273C18.0643 21.7871 18.1514 21.7281 18.2243 21.6537C18.2972 21.5794 18.3546 21.4912 18.3929 21.3943C18.4312 21.2975 18.4498 21.194 18.4476 21.0899C18.4454 20.9857 18.4223 20.8831 18.3798 20.788C18.3373 20.6929 18.2763 20.6073 18.2002 20.5361C13.973 16.375 8.27534 14.0489 2.34375 14.0625ZM22.6562 15.625C21.0594 15.6239 19.4675 15.8038 17.9111 16.1611C18.4476 16.568 18.9684 16.9964 19.4736 17.4463C20.5257 17.274 21.5901 17.1874 22.6562 17.1875C22.8635 17.1875 23.0622 17.2698 23.2087 17.4163C23.3552 17.5628 23.4375 17.7616 23.4375 17.9688C23.4375 18.176 23.3552 18.3747 23.2087 18.5212C23.0622 18.6677 22.8635 18.75 22.6562 18.75C22.0703 18.75 21.4912 18.7783 20.9131 18.834C21.4548 19.3984 21.9736 19.9889 22.4697 20.6055C22.5377 20.6851 22.589 20.7775 22.6205 20.8773C22.6521 20.977 22.6632 21.0821 22.6534 21.1863C22.6435 21.2905 22.6129 21.3916 22.5632 21.4837C22.5135 21.5758 22.4458 21.657 22.3641 21.7225C22.2825 21.7879 22.1885 21.8363 22.0878 21.8647C21.987 21.8931 21.8816 21.901 21.7778 21.8879C21.674 21.8748 21.5739 21.841 21.4834 21.7884C21.3929 21.7359 21.3138 21.6657 21.251 21.582C18.9865 18.7424 16.1101 16.4508 12.8362 14.8783C9.56239 13.3057 5.97569 12.4927 2.34375 12.5C2.13655 12.5 1.93784 12.4177 1.79132 12.2712C1.64481 12.1247 1.5625 11.926 1.5625 11.7188C1.5625 11.5115 1.64481 11.3128 1.79132 11.1663C1.93784 11.0198 2.13655 10.9375 2.34375 10.9375C3.91594 10.9378 5.48486 11.0806 7.03125 11.3643V7.8125C7.03125 7.69122 7.05949 7.5716 7.11373 7.46312C7.16797 7.35463 7.24672 7.26027 7.34375 7.1875L13.5938 2.5C13.729 2.39858 13.8935 2.34375 14.0625 2.34375C14.2315 2.34375 14.396 2.39858 14.5312 2.5L20.7812 7.1875C20.8783 7.26027 20.957 7.35463 21.0113 7.46312C21.0655 7.5716 21.0938 7.69122 21.0938 7.8125V10.9854C21.6123 10.9551 22.1328 10.9375 22.6562 10.9375C22.8635 10.9375 23.0622 11.0198 23.2087 11.1663C23.3552 11.3128 23.4375 11.5115 23.4375 11.7188C23.4375 11.926 23.3552 12.1247 23.2087 12.2712C23.0622 12.4177 22.8635 12.5 22.6562 12.5C19.8507 12.4946 17.0659 12.9802 14.4277 13.9346C15.0423 14.2601 15.6432 14.611 16.2305 14.9873C18.317 14.3724 20.4811 14.061 22.6562 14.0625C22.8635 14.0625 23.0622 14.1448 23.2087 14.2913C23.3552 14.4378 23.4375 14.6366 23.4375 14.8438C23.4375 15.051 23.3552 15.2497 23.2087 15.3962C23.0622 15.5427 22.8635 15.625 22.6562 15.625ZM11.7188 8.59375H16.4062C16.6135 8.59375 16.8122 8.67606 16.9587 8.82257C17.1052 8.96909 17.1875 9.1678 17.1875 9.375V11.5176C17.9609 11.3509 18.7422 11.2207 19.5312 11.127V8.20313L14.0625 4.10156L8.59375 8.20313V11.7002C9.38737 11.8955 10.1686 12.1292 10.9375 12.4014V9.375C10.9375 9.1678 11.0198 8.96909 11.1663 8.82257C11.3128 8.67606 11.5115 8.59375 11.7188 8.59375ZM12.5068 13.0146C13.5213 12.5791 14.5629 12.2095 15.625 11.9082V10.1563H12.5V13.0117L12.5068 13.0146Z" fill="currentColor"/>
</svg>
