<svg width="22" height="22" viewBox="0 0 22 22" fill="none" xmlns="http://www.w3.org/2000/svg">
<g clip-path="url(#clip0_283_28132)">
<path d="M15.1697 8.75399L15.125 8.6646L15.0803 8.75401L13.0625 12.7896L9.675 6.01456V4.175H13.75H13.8V4.125V0V-0.05H13.75H8.25H8.2V0V6.01456L0.213097 21.9776L0.176886 22.05H0.257812H21.7422H21.8231L21.7869 21.9776L15.1697 8.75399ZM2.57304 20.575L6.62009 12.4703L8.90206 14.7628L8.9375 14.7984L8.97294 14.7628L11.2549 12.4703L15.302 20.575H2.57304ZM12.325 2.7H9.675V1.425H12.325V2.7ZM7.31187 11.0867L8.9375 7.83544L10.5631 11.0867L8.9375 12.702L7.31187 11.0867ZM15.1251 11.9607L19.427 20.575H16.9606L13.8918 14.4375L15.1251 11.9607Z" fill="currentColor" stroke="currentColor" stroke-width="0.1"/>
</g>
<defs>
<clipPath id="clip0_283_28132">
<rect width="22" height="22" fill="white"/>
</clipPath>
</defs>
</svg>
