<svg width="20" height="22" viewBox="0 0 20 22" fill="none" xmlns="http://www.w3.org/2000/svg">
<path d="M17.0439 6.06897C17.0439 5.4688 16.87 4.88212 16.5443 4.3831C16.2186 3.88408 15.7557 3.49514 15.2141 3.26547C14.6724 3.0358 14.0764 2.9757 13.5015 3.09279C12.9265 3.20988 12.3983 3.49888 11.9838 3.92326C11.5692 4.34764 11.2869 4.88834 11.1725 5.47697C11.0582 6.0656 11.1169 6.67573 11.3412 7.23021C11.5656 7.78469 11.9455 8.25861 12.4329 8.59205C12.9204 8.92548 13.4935 9.10345 14.0797 9.10345C14.8659 9.10345 15.6198 8.78374 16.1757 8.21467C16.7316 7.64559 17.0439 6.87376 17.0439 6.06897ZM14.0797 7.58621C13.7866 7.58621 13.5001 7.49722 13.2563 7.33051C13.0126 7.16379 12.8226 6.92683 12.7105 6.64959C12.5983 6.37235 12.5689 6.06728 12.6261 5.77297C12.6833 5.47865 12.8245 5.2083 13.0317 4.99611C13.239 4.78392 13.5031 4.63942 13.7906 4.58088C14.0781 4.52233 14.3761 4.55238 14.6469 4.66722C14.9177 4.78205 15.1492 4.97652 15.312 5.22603C15.4749 5.47554 15.5618 5.76888 15.5618 6.06897C15.5618 6.47136 15.4057 6.85728 15.1277 7.14182C14.8498 7.42636 14.4728 7.58621 14.0797 7.58621ZM14.9523 17.3174L17.8776 10.7222C18.8102 9.92269 19.4801 8.84885 19.7963 7.64633C20.1124 6.44382 20.0596 5.17084 19.6449 4.00012C19.2302 2.8294 18.4738 1.8176 17.4782 1.10202C16.4827 0.386429 15.2962 0.00168995 14.0797 0C14.0388 0.000176774 13.9979 0.00366468 13.9575 0.0104311L1.23846 2.18103C0.892433 2.24007 0.578076 2.42283 0.351305 2.69683C0.124534 2.97083 5.18914e-05 3.31829 0 3.67741V8.46052C5.18914e-05 8.81964 0.124534 9.1671 0.351305 9.4411C0.578076 9.7151 0.892433 9.89787 1.23846 9.9569L10.3745 11.5159V16.6897C10.3745 17.0921 10.5307 17.478 10.8086 17.7625C11.0866 18.047 11.4635 18.2069 11.8566 18.2069C11.8566 19.2129 12.247 20.1777 12.9418 20.889C13.6367 21.6004 14.5791 22 15.5618 22H17.0439C17.2404 22 17.4289 21.9201 17.5679 21.7778C17.7069 21.6355 17.7849 21.4426 17.7849 21.2414C17.7849 21.0402 17.7069 20.8472 17.5679 20.705C17.4289 20.5627 17.2404 20.4828 17.0439 20.4828H15.5618C14.9722 20.4828 14.4067 20.243 13.9898 19.8162C13.5729 19.3894 13.3387 18.8105 13.3387 18.2069H13.6027C13.8873 18.207 14.166 18.1231 14.4053 17.9654C14.6446 17.8077 14.8345 17.5827 14.9523 17.3174ZM1.48208 3.67741L14.139 1.51724C15.3182 1.51724 16.4492 1.9968 17.283 2.85041C18.1168 3.70402 18.5852 4.86177 18.5852 6.06897C18.5852 7.27616 18.1168 8.43391 17.283 9.28752C16.4492 10.1411 15.3182 10.6207 14.139 10.6207L1.48208 8.46147V3.67741ZM13.9575 12.1275C13.9979 12.1343 14.0388 12.1378 14.0797 12.1379C14.6383 12.1378 15.194 12.0567 15.7304 11.8971L13.5999 16.6897H11.8566V11.7691L13.9575 12.1275Z" fill="#667680"/>
</svg>
