<svg width="36" height="24" viewBox="0 0 36 24" fill="none" xmlns="http://www.w3.org/2000/svg">
<path d="M7.43173 10.0747L7.54789 9.95857L11.5092 5.99975L9.67727 4.16785C9.01124 3.50182 8.34209 3.03974 7.67063 2.77456L7.43173 10.0747ZM7.43173 10.0747L7.55784 10.1799M7.43173 10.0747L7.55784 10.1799M7.55784 10.1799C7.73057 10.3239 7.91325 10.4356 8.1034 10.5133C8.29958 10.5935 8.52228 10.6315 8.76837 10.6315C9.37079 10.6315 9.95617 10.406 10.522 9.97075C11.0292 9.58065 11.8335 9.37222 12.963 9.37222C14.0924 9.37222 14.8968 9.58065 15.4039 9.97075C15.9697 10.406 16.555 10.6314 17.1573 10.6315M7.55784 10.1799L4.92748 2.29355M4.92748 2.29355V2.15022V0.40741V0.251759L5.08303 0.257512C6.40912 0.306564 7.51754 0.493224 8.40375 0.822115L8.40382 0.822143C9.29647 1.15397 10.1763 1.75807 11.0441 2.62593C11.0441 2.62593 11.0441 2.62593 11.0441 2.62594L18.3781 9.95859L18.4951 10.0756L18.3671 10.1806C18.1935 10.3231 18.0123 10.4345 17.8233 10.513C17.6275 10.5943 17.4043 10.6323 17.1573 10.6315M4.92748 2.29355L5.07065 2.30007M4.92748 2.29355L5.07065 2.30007M17.1573 10.6315C17.1574 10.6315 17.1575 10.6315 17.1576 10.6315V10.4815L17.157 10.6315C17.1571 10.6315 17.1572 10.6315 17.1573 10.6315ZM5.07065 2.30007C6.12924 2.3483 6.99426 2.50811 7.67061 2.77455L5.07065 2.30007ZM0.85 21.767V21.9376L1.01922 21.9157C1.79136 21.816 2.41577 21.5825 2.88029 21.2046C3.28114 20.8785 3.85545 20.7056 4.62289 20.7056C5.3839 20.7056 5.97533 20.9076 6.41333 21.2973L6.41343 21.2973C6.92663 21.7531 7.73117 21.9648 8.7923 21.9648C9.85342 21.9648 10.658 21.7531 11.1712 21.2973C11.61 20.9076 12.202 20.7056 12.963 20.7056C13.7237 20.7056 14.3249 20.9075 14.7805 21.299L14.7806 21.299C15.3098 21.7528 16.1205 21.9648 17.1815 21.9648C18.2412 21.9648 19.0394 21.7534 19.5382 21.2957L19.5384 21.2955C19.9596 20.9077 20.5418 20.7056 21.303 20.7056C22.0705 20.7056 22.6448 20.8785 23.0456 21.2046C23.5102 21.5825 24.1346 21.816 24.9067 21.9157L25.0759 21.9376V21.767V20.4586V20.3258L24.9442 20.3097C24.3152 20.2327 23.8248 20.0282 23.4615 19.7055C23.0273 19.3197 22.2928 19.1463 21.303 19.1463C20.305 19.1463 19.5411 19.359 19.0444 19.8155C18.6244 20.2016 18.011 20.4056 17.1815 20.4056C16.3526 20.4056 15.7206 20.2019 15.2669 19.8122C14.74 19.3595 13.963 19.1463 12.963 19.1463C11.9635 19.1463 11.1929 19.3592 10.6811 19.8138C10.2442 20.2017 9.62186 20.4056 8.79356 20.4056C7.96527 20.4056 7.34244 20.2018 6.90469 19.8137C6.39211 19.3593 5.62158 19.1463 4.62289 19.1463C3.63316 19.1463 2.89876 19.3193 2.46451 19.7041L2.46426 19.7043C2.10188 20.027 1.61149 20.2319 0.981607 20.3097L0.85 20.326V20.4586V21.767ZM0.85 16.1003V16.271L1.01926 16.2491C1.7898 16.1493 2.41403 15.9158 2.88007 15.5381C3.28276 15.2118 3.85727 15.0389 4.62289 15.0389C5.38221 15.0389 5.96991 15.2409 6.40266 15.6301C6.91055 16.0868 7.71985 16.2981 8.79356 16.2981C9.867 16.2981 10.674 16.0869 11.1763 15.6294C11.6025 15.2412 12.192 15.0389 12.963 15.0389C13.7229 15.0389 14.3227 15.2408 14.7766 15.6321C15.3034 16.0863 16.1158 16.2981 17.1815 16.2981C18.2552 16.2981 19.0582 16.0871 19.5493 15.6281C19.9635 15.241 20.5416 15.0389 21.303 15.0389C22.0705 15.0389 22.6448 15.2118 23.0456 15.5379C23.5102 15.9158 24.1347 16.1489 24.9069 16.2478L25.0759 16.2695V16.099V14.7919V14.6592L24.9442 14.643C24.3152 14.566 23.8248 14.3615 23.4615 14.0388C23.0273 13.653 22.2928 13.4796 21.303 13.4796C20.3044 13.4796 19.5342 13.6926 19.0224 14.1471C18.5838 14.5352 17.9605 14.7389 17.1324 14.7389C16.3041 14.7389 15.6817 14.5351 15.2449 14.1471C14.7331 13.6926 13.9624 13.4796 12.963 13.4796C11.9635 13.4796 11.1929 13.6926 10.6811 14.1471C10.2442 14.5351 9.62186 14.7389 8.79356 14.7389C7.97063 14.7389 7.34872 14.5352 6.90817 14.1468C6.3932 13.6926 5.62167 13.4796 4.62289 13.4796C3.63316 13.4796 2.89876 13.6526 2.46451 14.0374L2.46426 14.0377C2.10188 14.3603 1.61149 14.5652 0.981607 14.6431L0.85 14.6593V14.7919V16.1003ZM1 14.7919C1.6523 14.7113 2.17363 14.4973 2.564 14.1497L1 14.7919ZM16.5516 5.30244L16.5517 5.30261C17.1011 5.85022 17.7675 6.12623 18.5426 6.12711C19.3179 6.128 19.984 5.85233 20.5327 5.3037C21.0813 4.7551 21.3573 4.08901 21.3573 3.31378C21.3573 2.54171 21.0811 1.87662 20.5328 1.32655C19.9851 0.776167 19.3189 0.499187 18.5427 0.499187C17.7666 0.499187 17.1 0.776189 16.5514 1.32655L16.5512 1.32672C16.0047 1.87682 15.7294 2.54187 15.7294 3.31378C15.7294 4.08965 16.0045 4.75538 16.5516 5.30244Z" fill="#667680" stroke="#667680" stroke-width="0.3"/>
<mask id="path-2-outside-1_1103_8484" maskUnits="userSpaceOnUse" x="25.0913" y="12.4815" width="11" height="11" fill="black">
<rect fill="white" x="25.0913" y="12.4815" width="11" height="11"/>
<path d="M31.0827 17.3333C30.9986 17.3333 30.9282 17.3049 30.8718 17.248C30.8153 17.1911 30.7868 17.1206 30.7864 17.0364C30.786 16.9523 30.8145 16.882 30.8718 16.8255C30.929 16.769 30.9994 16.7407 31.0827 16.7407H33.3618C33.446 16.7407 33.5163 16.7692 33.5728 16.8261C33.6293 16.883 33.6577 16.9535 33.6581 17.0376C33.6585 17.1218 33.6301 17.1921 33.5728 17.2486C33.5155 17.3051 33.4452 17.3333 33.3618 17.3333H31.0827ZM31.0827 15.0993C30.9986 15.0993 30.9282 15.071 30.8718 15.0145C30.8149 14.9576 30.7864 14.8871 30.7864 14.803C30.7864 14.7188 30.8149 14.6485 30.8718 14.592C30.9286 14.5355 30.999 14.5073 31.0827 14.5073H35.1396C35.2238 14.5073 35.2941 14.5357 35.3506 14.5926C35.4071 14.6495 35.4355 14.7198 35.4359 14.8036C35.4363 14.8873 35.4079 14.9576 35.3506 15.0145C35.2933 15.0714 35.223 15.0999 35.1396 15.0999L31.0827 15.0993ZM28.4617 22.963C27.8015 22.963 27.2413 22.733 26.7811 22.2732C26.3212 21.8125 26.0913 21.2523 26.0913 20.5926C26.0913 20.177 26.195 19.7896 26.4024 19.4305C26.6098 19.071 26.9012 18.7747 27.2765 18.5416V14.6667C27.2765 14.3324 27.3905 14.0514 27.6184 13.8234C27.8464 13.5955 28.1275 13.4815 28.4617 13.4815C28.7959 13.4815 29.077 13.5955 29.3049 13.8234C29.5329 14.0514 29.6469 14.3324 29.6469 14.6667V18.5416C30.0222 18.7747 30.3135 19.071 30.5209 19.4305C30.7283 19.7896 30.832 20.177 30.832 20.5926C30.832 21.2527 30.6021 21.8129 30.1423 22.2732C29.682 22.733 29.1216 22.963 28.4611 22.963M26.6833 20.5926H30.2389C30.2389 20.2987 30.1599 20.015 30.0018 19.7416C29.8438 19.4682 29.6178 19.2245 29.3239 19.0104L29.0543 18.8148V14.6667C29.0543 14.4988 28.9974 14.3581 28.8836 14.2447C28.7698 14.1314 28.6292 14.0745 28.4617 14.0741C28.2942 14.0737 28.1533 14.1306 28.0392 14.2447C27.925 14.3589 27.8683 14.4996 27.8691 14.6667V18.8148L27.6 19.0104C27.3045 19.2241 27.078 19.4679 26.9203 19.7416C26.7623 20.015 26.6833 20.2987 26.6833 20.5926Z"/>
</mask>
<path d="M31.0827 17.3333C30.9986 17.3333 30.9282 17.3049 30.8718 17.248C30.8153 17.1911 30.7868 17.1206 30.7864 17.0364C30.786 16.9523 30.8145 16.882 30.8718 16.8255C30.929 16.769 30.9994 16.7407 31.0827 16.7407H33.3618C33.446 16.7407 33.5163 16.7692 33.5728 16.8261C33.6293 16.883 33.6577 16.9535 33.6581 17.0376C33.6585 17.1218 33.6301 17.1921 33.5728 17.2486C33.5155 17.3051 33.4452 17.3333 33.3618 17.3333H31.0827ZM31.0827 15.0993C30.9986 15.0993 30.9282 15.071 30.8718 15.0145C30.8149 14.9576 30.7864 14.8871 30.7864 14.803C30.7864 14.7188 30.8149 14.6485 30.8718 14.592C30.9286 14.5355 30.999 14.5073 31.0827 14.5073H35.1396C35.2238 14.5073 35.2941 14.5357 35.3506 14.5926C35.4071 14.6495 35.4355 14.7198 35.4359 14.8036C35.4363 14.8873 35.4079 14.9576 35.3506 15.0145C35.2933 15.0714 35.223 15.0999 35.1396 15.0999L31.0827 15.0993ZM28.4617 22.963C27.8015 22.963 27.2413 22.733 26.7811 22.2732C26.3212 21.8125 26.0913 21.2523 26.0913 20.5926C26.0913 20.177 26.195 19.7896 26.4024 19.4305C26.6098 19.071 26.9012 18.7747 27.2765 18.5416V14.6667C27.2765 14.3324 27.3905 14.0514 27.6184 13.8234C27.8464 13.5955 28.1275 13.4815 28.4617 13.4815C28.7959 13.4815 29.077 13.5955 29.3049 13.8234C29.5329 14.0514 29.6469 14.3324 29.6469 14.6667V18.5416C30.0222 18.7747 30.3135 19.071 30.5209 19.4305C30.7283 19.7896 30.832 20.177 30.832 20.5926C30.832 21.2527 30.6021 21.8129 30.1423 22.2732C29.682 22.733 29.1216 22.963 28.4611 22.963M26.6833 20.5926H30.2389C30.2389 20.2987 30.1599 20.015 30.0018 19.7416C29.8438 19.4682 29.6178 19.2245 29.3239 19.0104L29.0543 18.8148V14.6667C29.0543 14.4988 28.9974 14.3581 28.8836 14.2447C28.7698 14.1314 28.6292 14.0745 28.4617 14.0741C28.2942 14.0737 28.1533 14.1306 28.0392 14.2447C27.925 14.3589 27.8683 14.4996 27.8691 14.6667V18.8148L27.6 19.0104C27.3045 19.2241 27.078 19.4679 26.9203 19.7416C26.7623 20.015 26.6833 20.2987 26.6833 20.5926Z" fill="#667680"/>
<path d="M31.0827 15.0993L31.0828 14.7993H31.0827V15.0993ZM35.1396 15.0999L35.1396 15.3999H35.1396V15.0999ZM26.7811 22.2732L26.5688 22.4851L26.569 22.4854L26.7811 22.2732ZM26.4024 19.4305L26.6622 19.5806L26.6623 19.5804L26.4024 19.4305ZM27.2765 18.5416L27.4348 18.7965L27.5765 18.7085V18.5416H27.2765ZM29.6469 18.5416H29.3469V18.7085L29.4886 18.7965L29.6469 18.5416ZM30.5209 19.4305L30.2611 19.5804L30.2612 19.5806L30.5209 19.4305ZM30.1423 22.2732L30.3543 22.4854L30.3545 22.4852L30.1423 22.2732ZM26.6833 20.5926H26.3833V20.8926H26.6833V20.5926ZM30.2389 20.5926V20.8926H30.5389V20.5926H30.2389ZM29.3239 19.0104L29.5005 18.7679L29.5 18.7675L29.3239 19.0104ZM29.0543 18.8148H28.7543V18.9678L28.8781 19.0577L29.0543 18.8148ZM27.8691 14.6667H28.1691L28.1691 14.6653L27.8691 14.6667ZM27.8691 18.8148L28.0455 19.0575L28.1691 18.9676V18.8148H27.8691ZM27.6 19.0104L27.7759 19.2535L27.7764 19.253L27.6 19.0104ZM26.9203 19.7416L27.1801 19.8918L27.1803 19.8913L26.9203 19.7416ZM31.0827 17.0333C31.075 17.0333 31.0751 17.0322 31.0794 17.0339C31.0812 17.0346 31.0829 17.0356 31.0842 17.0364C31.0854 17.0373 31.0856 17.0376 31.0846 17.0366L30.6589 17.4594C30.7747 17.5761 30.9231 17.6333 31.0827 17.6333V17.0333ZM31.0846 17.0366C31.0835 17.0355 31.0836 17.0354 31.0843 17.0364C31.0849 17.0374 31.0857 17.0387 31.0863 17.0402C31.0877 17.0438 31.0865 17.0432 31.0864 17.035L30.4864 17.0379C30.4872 17.1964 30.5439 17.3436 30.6589 17.4594L31.0846 17.0366ZM31.0864 17.035C31.0864 17.0311 31.0867 17.0294 31.0867 17.0295C31.0867 17.0297 31.0864 17.031 31.0856 17.0331C31.0847 17.0352 31.0837 17.0371 31.0827 17.0385C31.0818 17.0398 31.0815 17.04 31.0824 17.0391L30.6611 16.6119C30.5434 16.7279 30.4857 16.8771 30.4864 17.0379L31.0864 17.035ZM31.0824 17.0391C31.0837 17.0378 31.084 17.0378 31.0831 17.0383C31.0822 17.0389 31.0809 17.0397 31.0793 17.0403C31.0755 17.0418 31.0755 17.0407 31.0827 17.0407V16.4407C30.9237 16.4407 30.7767 16.4978 30.6611 16.6119L31.0824 17.0391ZM31.0827 17.0407H33.3618V16.4407H31.0827V17.0407ZM33.3618 17.0407C33.3696 17.0407 33.3695 17.0419 33.3652 17.0402C33.3633 17.0394 33.3616 17.0385 33.3603 17.0376C33.3591 17.0368 33.359 17.0365 33.3599 17.0375L33.7857 16.6147C33.6698 16.498 33.5215 16.4407 33.3618 16.4407V17.0407ZM33.3599 17.0375C33.361 17.0386 33.3609 17.0387 33.3603 17.0377C33.3596 17.0367 33.3589 17.0353 33.3583 17.0339C33.3568 17.0303 33.3581 17.0309 33.3581 17.039L33.9581 17.0362C33.9574 16.8777 33.9006 16.7304 33.7857 16.6147L33.3599 17.0375ZM33.3581 17.039C33.3581 17.0429 33.3578 17.0446 33.3578 17.0446C33.3579 17.0444 33.3581 17.0431 33.359 17.041C33.3598 17.0389 33.3609 17.037 33.3618 17.0356C33.3627 17.0342 33.3631 17.0341 33.3621 17.035L33.7834 17.4622C33.9011 17.3461 33.9589 17.197 33.9581 17.0362L33.3581 17.039ZM33.3621 17.035C33.3608 17.0363 33.3606 17.0363 33.3614 17.0358C33.3623 17.0352 33.3637 17.0344 33.3653 17.0338C33.3691 17.0322 33.369 17.0333 33.3618 17.0333V17.6333C33.5209 17.6333 33.6678 17.5762 33.7834 17.4622L33.3621 17.035ZM33.3618 17.0333H31.0827V17.6333H33.3618V17.0333ZM31.0827 14.7993C31.0747 14.7993 31.0746 14.798 31.0787 14.7997C31.0805 14.8004 31.0821 14.8013 31.0834 14.8022C31.0846 14.803 31.0848 14.8033 31.0839 14.8024L30.6596 15.2267C30.7756 15.3427 30.9237 15.3993 31.0827 15.3993V14.7993ZM31.0839 14.8024C31.0828 14.8013 31.0829 14.8013 31.0837 14.8024C31.0844 14.8035 31.0853 14.805 31.086 14.8067C31.0876 14.8108 31.0864 14.8107 31.0864 14.803H30.4864C30.4864 14.9626 30.5437 15.1107 30.6596 15.2267L31.0839 14.8024ZM31.0864 14.803C31.0864 14.7952 31.0876 14.7953 31.0859 14.7996C31.0851 14.8015 31.0842 14.8032 31.0833 14.8044C31.0825 14.8057 31.0822 14.8058 31.0831 14.8049L30.6604 14.3791C30.5437 14.495 30.4864 14.6433 30.4864 14.803H31.0864ZM31.0831 14.8049C31.0842 14.8038 31.0843 14.8039 31.0833 14.8046C31.0822 14.8053 31.0807 14.8062 31.079 14.8068C31.075 14.8084 31.0751 14.8073 31.0827 14.8073V14.2073C30.9237 14.2073 30.7762 14.2641 30.6604 14.3791L31.0831 14.8049ZM31.0827 14.8073H35.1396V14.2073H31.0827V14.8073ZM35.1396 14.8073C35.1473 14.8073 35.1473 14.8084 35.143 14.8067C35.1411 14.806 35.1394 14.805 35.1381 14.8042C35.1369 14.8033 35.1368 14.803 35.1377 14.804L35.5634 14.3812C35.4476 14.2645 35.2993 14.2073 35.1396 14.2073V14.8073ZM35.1377 14.804C35.1389 14.8051 35.1388 14.8053 35.1382 14.8044C35.1375 14.8034 35.1368 14.802 35.1362 14.8005C35.1347 14.7969 35.1359 14.7972 35.1359 14.805L35.7359 14.8021C35.7352 14.6436 35.6781 14.4967 35.5634 14.3812L35.1377 14.804ZM35.1359 14.805C35.1359 14.8087 35.1356 14.8103 35.1356 14.8101C35.1357 14.8099 35.136 14.8086 35.1368 14.8066C35.1376 14.8046 35.1385 14.8029 35.1393 14.8017C35.1401 14.8005 35.1403 14.8005 35.1392 14.8017L35.562 15.2274C35.6787 15.1115 35.7367 14.9629 35.7359 14.8021L35.1359 14.805ZM35.1392 14.8017C35.1378 14.803 35.1375 14.8031 35.1384 14.8025C35.1393 14.8019 35.1407 14.8011 35.1424 14.8004C35.1431 14.8001 35.1438 14.7999 35.1443 14.7997C35.1449 14.7996 35.1451 14.7995 35.1451 14.7995C35.145 14.7995 35.1433 14.7999 35.1396 14.7999V15.3999C35.2993 15.3999 35.4465 15.3421 35.562 15.2274L35.1392 14.8017ZM35.1396 14.7999L31.0828 14.7993L31.0827 15.3993L35.1396 15.3999L35.1396 14.7999ZM28.4617 22.663C27.8797 22.663 27.3962 22.4637 26.9931 22.061L26.569 22.4854C27.0865 23.0024 27.7233 23.263 28.4617 23.263V22.663ZM26.9934 22.0612C26.5906 21.6577 26.3913 21.1741 26.3913 20.5926H25.7913C25.7913 21.3306 26.0519 21.9674 26.5688 22.4851L26.9934 22.0612ZM26.3913 20.5926C26.3913 20.2295 26.4812 19.894 26.6622 19.5806L26.1426 19.2805C25.9088 19.6853 25.7913 20.1244 25.7913 20.5926H26.3913ZM26.6623 19.5804C26.8434 19.2665 27.0987 19.0052 27.4348 18.7965L27.1182 18.2868C26.7037 18.5442 26.3763 18.8755 26.1426 19.2806L26.6623 19.5804ZM27.5765 18.5416V14.6667H26.9765V18.5416H27.5765ZM27.5765 14.6667C27.5765 14.4087 27.6611 14.205 27.8306 14.0355L27.4063 13.6113C27.1198 13.8978 26.9765 14.2561 26.9765 14.6667H27.5765ZM27.8306 14.0355C28 13.8661 28.2038 13.7815 28.4617 13.7815V13.1815C28.0512 13.1815 27.6928 13.3248 27.4063 13.6113L27.8306 14.0355ZM28.4617 13.7815C28.7196 13.7815 28.9234 13.8661 29.0928 14.0355L29.5171 13.6113C29.2306 13.3248 28.8722 13.1815 28.4617 13.1815V13.7815ZM29.0928 14.0355C29.2622 14.205 29.3469 14.4087 29.3469 14.6667H29.9469C29.9469 14.2561 29.8035 13.8978 29.5171 13.6113L29.0928 14.0355ZM29.3469 14.6667V18.5416H29.9469V14.6667H29.3469ZM29.4886 18.7965C29.8247 19.0052 30.08 19.2665 30.2611 19.5804L30.7808 19.2806C30.5471 18.8755 30.2196 18.5442 29.8051 18.2868L29.4886 18.7965ZM30.2612 19.5806C30.4422 19.894 30.532 20.2295 30.532 20.5926H31.132C31.132 20.1244 31.0145 19.6853 30.7807 19.2805L30.2612 19.5806ZM30.532 20.5926C30.532 21.1745 30.3328 21.6581 29.93 22.0611L30.3545 22.4852C30.8715 21.9678 31.132 21.331 31.132 20.5926H30.532ZM29.9302 22.061C29.5272 22.4637 29.0435 22.663 28.4611 22.663V23.263C29.1998 23.263 29.8369 23.0024 30.3543 22.4854L29.9302 22.061ZM26.6833 20.8926H30.2389V20.2926H26.6833V20.8926ZM30.5389 20.5926C30.5389 20.242 30.4439 19.907 30.2616 19.5915L29.7421 19.8918C29.8758 20.123 29.9389 20.3553 29.9389 20.5926H30.5389ZM30.2616 19.5915C30.0796 19.2768 29.8232 19.0029 29.5005 18.7679L29.1473 19.2529C29.4124 19.446 29.608 19.6597 29.7421 19.8918L30.2616 19.5915ZM29.5 18.7675L29.2304 18.572L28.8781 19.0577L29.1478 19.2532L29.5 18.7675ZM29.3543 18.8148V14.6667H28.7543V18.8148H29.3543ZM29.3543 14.6667C29.3543 14.423 29.2684 14.2047 29.0954 14.0322L28.6718 14.4572C28.7263 14.5116 28.7543 14.5745 28.7543 14.6667H29.3543ZM29.0954 14.0322C28.9229 13.8604 28.7053 13.7746 28.4624 13.7741L28.461 14.3741C28.5531 14.3743 28.6167 14.4023 28.6718 14.4572L29.0954 14.0322ZM28.4624 13.7741C28.2184 13.7735 28 13.8597 27.827 14.0326L28.2513 14.4569C28.3067 14.4015 28.3699 14.3739 28.461 14.3741L28.4624 13.7741ZM27.827 14.0326C27.6541 14.2056 27.5679 14.4241 27.5691 14.6681L28.1691 14.6653C28.1687 14.5751 28.1959 14.5123 28.2513 14.4569L27.827 14.0326ZM27.5691 14.6667V18.8148H28.1691V14.6667H27.5691ZM27.6927 18.5721L27.4237 18.7677L27.7764 19.253L28.0455 19.0575L27.6927 18.5721ZM27.4242 18.7673C27.0997 19.002 26.8422 19.2762 26.6604 19.5919L27.1803 19.8913C27.3138 19.6595 27.5094 19.4462 27.7759 19.2535L27.4242 18.7673ZM26.6606 19.5915C26.4782 19.907 26.3833 20.242 26.3833 20.5926H26.9833C26.9833 20.3553 27.0464 20.123 27.1801 19.8918L26.6606 19.5915Z" fill="#667680" mask="url(#path-2-outside-1_1103_8484)"/>
</svg>
