<svg width="24" height="24" viewBox="0 0 24 24" fill="none" xmlns="http://www.w3.org/2000/svg">
<path d="M16.9 13H16C15.4696 13 14.9609 12.7893 14.5858 12.4142C14.2107 12.0391 14 11.5304 14 11C14 11.5304 13.7893 12.0391 13.4142 12.4142C13.0391 12.7893 12.5304 13 12 13C11.4696 13 10.9609 12.7893 10.5858 12.4142C10.2107 12.0391 10 11.5304 10 11C10 11.5304 9.78929 12.0391 9.41421 12.4142C9.03914 12.7893 8.53043 13 8 13H7.1M5.5 4H8.5M8.717 21H15.283C15.9614 21 16.6287 21.1725 17.2221 21.5014C17.8155 21.8303 18.3154 22.3047 18.675 22.88L18.75 23H21V1H3V23H5.25L5.325 22.88C5.68456 22.3047 6.18454 21.8303 6.77792 21.5014C7.3713 21.1725 8.03858 21 8.717 21ZM12 17C10.6739 17 9.40215 16.4732 8.46447 15.5355C7.52678 14.5979 7 13.3261 7 12C7 10.6739 7.52678 9.40215 8.46447 8.46447C9.40215 7.52678 10.6739 7 12 7C13.3261 7 14.5979 7.52678 15.5355 8.46447C16.4732 9.40215 17 10.6739 17 12C17 13.3261 16.4732 14.5979 15.5355 15.5355C14.5979 16.4732 13.3261 17 12 17Z" stroke="#667680" stroke-width="2"/>
</svg>
