<svg width="24" height="24" viewBox="0 0 24 24" fill="none" xmlns="http://www.w3.org/2000/svg">
<path d="M22 6H2M22 6C22 5.068 22 4.602 21.848 4.235C21.7475 3.99218 21.6001 3.77155 21.4143 3.58572C21.2284 3.3999 21.0078 3.25251 20.765 3.152C20.398 3 19.932 3 19 3H5C4.068 3 3.602 3 3.235 3.152C2.99218 3.25251 2.77155 3.3999 2.58572 3.58572C2.3999 3.77155 2.25251 3.99218 2.152 4.235C2 4.602 2 5.068 2 6M22 6V21M2 6V21M16 19V21M8 19V21M7.5 14L7.743 13.03C8.106 11.575 8.288 10.847 8.831 10.424C9.373 10 10.123 10 11.623 10H12.377C13.877 10 14.627 10 15.169 10.424C15.712 10.847 15.894 11.574 16.257 13.03L16.5 14M8.5 16.49V16.5M15.5 16.49V16.5M17 14H7C6.73478 14 6.48043 14.1054 6.29289 14.2929C6.10536 14.4804 6 14.7348 6 15V18C6 18.2652 6.10536 18.5196 6.29289 18.7071C6.48043 18.8946 6.73478 19 7 19H17C17.2652 19 17.5196 18.8946 17.7071 18.7071C17.8946 18.5196 18 18.2652 18 18V15C18 14.7348 17.8946 14.4804 17.7071 14.2929C17.5196 14.1054 17.2652 14 17 14Z" stroke="#667680" stroke-width="1.6" stroke-linecap="round" stroke-linejoin="round"/>
</svg>
