<svg width="32" height="32" viewBox="0 0 32 32" fill="none" xmlns="http://www.w3.org/2000/svg">
<path d="M6.15467 28C5.54044 28 5.028 27.7947 4.61733 27.384C4.20667 26.9733 4.00089 26.4609 4 25.8467V6.15333C4 5.54 4.20578 5.028 4.61733 4.61733C5.02889 4.20667 5.54089 4.00089 6.15333 4H25.8467C26.46 4 26.972 4.20578 27.3827 4.61733C27.7933 5.02889 27.9991 5.54133 28 6.15467V25.8467C28 26.46 27.7942 26.9724 27.3827 27.384C26.9711 27.7956 26.4591 28.0009 25.8467 28H6.15467ZM5.33333 20.6667V25.8467C5.33333 26.0858 5.41022 26.2822 5.564 26.436C5.71778 26.5898 5.91467 26.6667 6.15467 26.6667H8.66667V23.436H8.02667C7.88267 23.436 7.75644 23.3822 7.648 23.2747C7.54133 23.1662 7.488 23.0404 7.488 22.8973V20.6667H5.33333ZM5.33333 19.3333H7.488V18.7693C7.488 18.508 7.57644 18.2889 7.75333 18.112C7.92933 17.9342 8.14844 17.8453 8.41067 17.8453V14.6667C8.41067 14.2249 8.56533 13.8498 8.87467 13.5413C9.184 13.2329 9.55911 13.0782 10 13.0773H12.6667C13.1084 13.0773 13.484 13.232 13.7933 13.5413C14.1027 13.8507 14.2569 14.2258 14.256 14.6667V17.8467C14.5138 17.8467 14.7324 17.9351 14.912 18.112C15.0898 18.2889 15.1787 18.508 15.1787 18.7693V19.3333H26.6667V6.15467C26.6667 5.91467 26.5898 5.71778 26.436 5.564C26.2822 5.41022 26.0858 5.33333 25.8467 5.33333H6.15333C5.91422 5.33333 5.71778 5.41022 5.564 5.564C5.41022 5.71778 5.33333 5.91467 5.33333 6.15467V19.3333ZM8.66667 22.256H14V19.0267H8.66667V22.256ZM11.34 11.744C10.8991 11.744 10.5231 11.5898 10.212 11.2813C9.9 10.9738 9.744 10.6 9.744 10.16C9.744 9.72 9.89778 9.344 10.2053 9.032C10.5129 8.72 10.8871 8.564 11.328 8.564C11.7689 8.564 12.1444 8.71822 12.4547 9.02667C12.7649 9.33511 12.9209 9.70844 12.9227 10.1467C12.9227 10.5876 12.7689 10.964 12.4613 11.276C12.1538 11.5871 11.78 11.744 11.34 11.744ZM10.7187 26.6667H11.9493V23.436H10.7187V26.6667ZM14 26.6667H25.8467C26.0858 26.6667 26.2822 26.5898 26.436 26.436C26.5898 26.2822 26.6667 26.0858 26.6667 25.8467V20.6667H15.18V22.8973C15.18 23.0413 15.1262 23.1671 15.0187 23.2747C14.9102 23.3822 14.7844 23.436 14.6413 23.436H14V26.6667ZM15.9733 10.3773C15.6747 9.99689 15.4507 9.61644 15.3013 9.236C15.152 8.85644 15.0773 8.46667 15.0773 8.06667V7.66667C15.0996 7.50311 15.1698 7.364 15.288 7.24933C15.4071 7.13378 15.5507 7.076 15.7187 7.076C15.8707 7.076 15.9996 7.13644 16.1053 7.25733C16.2111 7.37822 16.2613 7.51467 16.256 7.66667V8.06667C16.256 8.35822 16.3191 8.64267 16.4453 8.92C16.5707 9.19911 16.764 9.48889 17.0253 9.78933C17.3898 10.2329 17.6524 10.6507 17.8133 11.0427C17.9751 11.4356 18.056 11.8436 18.056 12.2667C18.056 12.4444 17.9947 12.5982 17.872 12.728C17.7484 12.8578 17.5978 12.9227 17.42 12.9227C17.2422 12.9227 17.1018 12.8578 16.9987 12.728C16.8956 12.5982 16.844 12.4444 16.844 12.2667C16.844 11.9484 16.7809 11.6569 16.6547 11.392C16.5293 11.1271 16.3027 10.7889 15.9747 10.3773M19.308 10.3773C19.0084 9.99689 18.784 9.61689 18.6347 9.23733C18.4853 8.85689 18.4107 8.46667 18.4107 8.06667V7.66667C18.4329 7.50311 18.5031 7.364 18.6213 7.24933C18.7404 7.13378 18.8836 7.076 19.0507 7.076C19.2036 7.076 19.3329 7.13644 19.4387 7.25733C19.5444 7.37822 19.5947 7.51467 19.5893 7.66667V8.06667C19.5893 8.35822 19.6524 8.64267 19.7787 8.92C19.904 9.19911 20.0973 9.48889 20.3587 9.78933C20.7231 10.2329 20.9858 10.6507 21.1467 11.0427C21.3084 11.4356 21.3893 11.8436 21.3893 12.2667C21.3893 12.4444 21.328 12.5982 21.2053 12.728C21.0818 12.8578 20.9311 12.9227 20.7533 12.9227C20.5756 12.9227 20.4351 12.8578 20.332 12.728C20.2289 12.5982 20.1773 12.4444 20.1773 12.2667C20.1773 11.9484 20.1142 11.6569 19.988 11.392C19.8627 11.1271 19.636 10.7889 19.308 10.3773ZM22.708 10.3773C22.4084 9.99689 22.184 9.61689 22.0347 9.23733C21.8853 8.85689 21.8107 8.46667 21.8107 8.06667V7.66667C21.8329 7.50311 21.9031 7.364 22.0213 7.24933C22.1404 7.13378 22.2836 7.076 22.4507 7.076C22.6036 7.076 22.7329 7.13644 22.8387 7.25733C22.9444 7.37822 22.9947 7.51467 22.9893 7.66667V8.06667C22.9893 8.35822 23.0524 8.64267 23.1787 8.92C23.304 9.19911 23.4973 9.48889 23.7587 9.78933C24.1231 10.2329 24.3858 10.6507 24.5467 11.0427C24.7084 11.4356 24.7893 11.8436 24.7893 12.2667C24.7893 12.4444 24.732 12.5982 24.6173 12.728C24.5027 12.8578 24.3564 12.9227 24.1787 12.9227C24.0009 12.9227 23.8564 12.8578 23.7453 12.728C23.6342 12.5982 23.5782 12.4444 23.5773 12.2667C23.5773 11.9484 23.5142 11.6569 23.388 11.392C23.2627 11.1271 23.036 10.7889 22.708 10.3773Z" fill="#667680"/>
</svg>
