<svg width="24" height="24" viewBox="0 0 24 24" fill="none" xmlns="http://www.w3.org/2000/svg">
<path d="M16.2003 11.9616C16.8202 11.9656 17.4369 11.8781 18.0305 11.7023C18 12.2355 17.8741 12.7596 17.6582 13.2493C17.4142 13.8027 17.0603 14.3007 16.618 14.7131L16.6177 14.7133C15.3658 15.8854 13.715 16.5376 12 16.5376C10.2849 16.5376 8.63411 15.8854 7.38216 14.7133C6.7705 14.1406 6.33117 13.4082 6.11378 12.599C5.8964 11.7897 5.90963 10.9358 6.15198 10.1337L6.15227 10.1327L6.19995 9.97102C7.31952 9.58767 9.1219 9.46595 11.6781 10.7604L11.6783 10.7605C12.718 11.285 14.3972 11.9614 16.2003 11.9616ZM16.2003 11.9616C16.2002 11.9616 16.2001 11.9616 16.1999 11.9616L16.2009 11.8116V11.9616C16.2007 11.9616 16.2005 11.9616 16.2003 11.9616ZM17.1726 2.79825L17.1726 2.79813C17.129 2.65077 17.039 2.52143 16.916 2.4294C16.7929 2.33738 16.6434 2.28761 16.4897 2.2875H16.4896L7.51027 2.2875L7.51016 2.2875C7.35651 2.28761 7.207 2.33738 7.08395 2.42941C6.9609 2.52143 6.87089 2.65076 6.82735 2.79813L6.82731 2.79825L4.78665 9.72827C4.7866 9.72842 4.78656 9.72858 4.78651 9.72874C4.46832 10.7845 4.45163 11.9082 4.73834 12.9729C5.02507 14.0377 5.60382 15.0012 6.40923 15.7544C7.74581 17.0077 9.4646 17.7732 11.2875 17.9298V21.7875H8.24995C8.06099 21.7875 7.87976 21.8626 7.74614 21.9962C7.61252 22.1298 7.53745 22.311 7.53745 22.5C7.53745 22.689 7.61252 22.8702 7.74614 23.0038C7.87976 23.1374 8.06099 23.2125 8.24995 23.2125H15.75C15.9389 23.2125 16.1201 23.1374 16.2538 23.0038C16.3874 22.8702 16.4625 22.689 16.4625 22.5C16.4625 22.311 16.3874 22.1298 16.2538 21.9962C16.1201 21.8626 15.9389 21.7875 15.75 21.7875H12.7125V17.9298C14.5352 17.773 16.254 17.0075 17.5907 15.7544C18.3961 15.0012 18.9748 14.0377 19.2616 12.9729C19.5483 11.9081 19.5316 10.7844 19.2134 9.72869C19.2133 9.72855 19.2133 9.72841 19.2133 9.72827L17.1726 2.79825ZM6.66654 8.3852L8.04338 3.7125H15.9565L17.8474 10.1319C17.8474 10.1321 17.8475 10.1322 17.8475 10.1323C17.859 10.1721 17.87 10.2116 17.8805 10.2511C16.8947 10.6136 15.8444 10.5929 14.876 10.3995C13.8681 10.1983 12.9587 9.81177 12.3217 9.48959C9.94268 8.28444 8.05662 8.14072 6.66654 8.3852Z" fill="#667680" stroke="#667680" stroke-width="0.3"/>
</svg>
